{
.appVersion = "1352";
DisplayStrings = (
"nn/Placeholder no/Placeholder oo\012abcdefghijklmnopqrstuvwxyz",
"ppp\012lll",
"AÁ/Abreve/Abreveacute/Abrevedotbelow/Abrevegrave/Abrevehookabove/Abrevetilde Â/Acircumflexacute/Acircumflexdotbelow/Acircumflexgrave p/Acircumflexhookabove/Acircumflextilde/Adblgrave Ä/Adotbelow À/Ahookabove/Ainvertedbreve/Amacron/Aogonek Å/Aringacute",
G,
"/aringacute",
epmbnotHO,
"/Uhorn"
);
classes = (
{
automatic = 1;

glyphs = (
{
color = 4;
glyphname = A;
lastChange = "2020-12-22 23:58:30 +0000";
layers = (
{
anchors = (
{
name = bottom;
position = "{567, -72}";
},
{
name = ogonek;
position = "{1137, 20}";
},
{
name = top.case;
position = "{866, 1475}";
}
);
guideLines = (
{
angle = 79;
position = "{298, 71}";
}
);
layerId = "13A5184A-77A5-4E03-80A5-A9198A2CA35F";
paths = (
{
closed = 1;
nodes = (
"6 0 LINE",
"850 1386 LINE",
"854 1386 LINE",
"1149 0 LINE",
"1231 0 LINE",
"920 1434 LINE",
"795 1434 LINE",
"-88 0 LINE"
);
},
{
closed = 1;
nodes = (
"1081 410 LINE",
"1096 483 LINE",
"225 483 LINE",
"211 410 LINE"
);
}
);
width = 1339;
},
{
anchors = (
{
name = bottom;
position = "{707, -72}";
},
{
name = ogonek;
position = "{1268, 20}";
},
{
name = top.case;
position = "{977, 1475}";
}
);
background = {
anchors = (
{
name = ogonek;
position = "{1294, -84}";
},
{
name = top.case;
position = "{979, 1438}";
}
);
paths = (
{
closed = 1;
nodes = (
"401 0 LINE",
"885 969 LINE",
"893 969 LINE",
"999 0 LINE",
"1479 0 LINE",
"1235 1434 LINE",
"725 1434 LINE",
"-68 0 LINE"
);
},
{
closed = 1;
nodes = (
"1044 201 LINE",
"1110 535 LINE",
"504 535 LINE",
"438 201 LINE"
);
}
);
};
guideLines = (
{
angle = 79;
position = "{353, 44}";
}
);
layerId = "6D60D92C-1450-4586-BB49-599D0D4C1213";
paths = (
{
closed = 1;
nodes = (
"422 0 LINE",
"891 971 LINE",
"897 971 LINE",
"1020 0 LINE",
"1487 0 LINE",
"1219 1434 LINE",
"713 1434 LINE",
"-74 0 LINE"
);
},
{
closed = 1;
nodes = (
"1051 201 LINE",
"1116 535 LINE",
"510 535 LINE",
"444 201 LINE"
);
}
);
width = 1622;
},
{
anchors = (
{
name = bottom;
position = "{637, -72}";
},
{
name = ogonek;
position = "{1188, 20}";
},
{
name = top.case;
position = "{926, 1475}";
}
);
background = {
paths = (
{
closed = 1;
nodes = (
"219 0 LINE",
"872 1147 LINE",
"879 1147 LINE",
"1075 0 LINE",
"1370 0 LINE",
"1087 1434 LINE",
"776 1434 LINE",
"-59 0 LINE"
);
},
{
closed = 1;
nodes = (
"1071 285 LINE",
"1116 520 LINE",
"387 520 LINE",
"342 285 LINE"
);
}
);
};
guideLines = (
{
angle = 79;
position = "{335, 86}";
},
{
position = "{163, 562}";
}
);
layerId = "74CCE9C5-5564-42E0-9214-3BF0725DF94D";
paths = (
{
closed = 1;
nodes = (
"252 0 LINE",
"866 1151 LINE",
"870 1151 LINE",
"1075 0 LINE",
"1364 0 LINE",
"1073 1434 LINE",
"772 1434 LINE",
"-80 0 LINE"
);
},
{
closed = 1;
nodes = (
"1108 299 LINE",
"1157 535 LINE",
"338 535 LINE",
"289 299 LINE"
);
}
);
width = 1485;
}
);
leftKerningGroup = A;
rightKerningGroup = A;
unicode = 0041;
},
{
color = 3;
glyphname = AE;
lastChange = "2020-12-22 23:58:30 +0000";
layers = (
{
anchors = (
{
name = top.case;
position = "{1561, 1475}";
}
);
background = {
paths = (
{
closed = 1;
nodes = (
"143 121 LINE",
"1085 1366 LINE",
"1210 1348 LINE",
"1221 1421 LINE",
"1049 1446 LINE",
"53 133 LINE"
);
},
{
closed = 1;
nodes = (
"1118 649 LINE",
"1128 723 LINE",
"588 797 LINE",
"575 723 LINE"
);
},
{
closed = 1;
nodes = (
"1939 -123 LINE",
"1952 -49 LINE",
"1065 72 LINE",
"1143 647 LINE",
"1933 541 LINE",
"1942 612 LINE",
"1153 721 LINE",
"1237 1343 LINE",
"2109 1229 LINE",
"2118 1300 LINE",
"1169 1430 LINE",
"977 8 LINE"
);
}
);
};
layerId = "13A5184A-77A5-4E03-80A5-A9198A2CA35F";
paths = (
{
closed = 1;
nodes = (
"51 0 LINE",
"1079 1360 LINE",
"1206 1360 LINE",
"1221 1434 LINE",
"1040 1434 LINE",
"-47 0 LINE"
);
},
{
closed = 1;
nodes = (
"1071 655 LINE",
"1085 729 LINE",
"539 729 LINE",
"524 655 LINE"
);
},
{
closed = 1;
nodes = (
"1862 0 LINE",
"1876 74 LINE",
"983 74 LINE",
"1096 655 LINE",
"1892 655 LINE",
"1907 729 LINE",
"1110 729 LINE",
"1233 1360 LINE",
"2111 1360 LINE",
"2126 1434 LINE",
"1167 1434 LINE",
"889 0 LINE"
);
}
);
width = 2073;
},
{
anchors = (
{
name = top.case;
position = "{1647, 1475}";
}
);
background = {
paths = (
{
closed = 1;
nodes = (
"412 0 LINE",
"1090 1075 LINE",
"1454 1075 LINE",
"1499 1434 LINE",
"883 1434 LINE",
"-98 0 LINE"
);
},
{
closed = 1;
nodes = (
"1122 442 LINE",
"1190 786 LINE",
"584 786 LINE",
"516 442 LINE"
);
},
{
closed = 1;
nodes = (
"2089 0 LINE",
"2165 393 LINE",
"1468 393 LINE",
"1491 508 LINE",
"2091 508 LINE",
"2163 872 LINE",
"1563 872 LINE",
"1595 1044 LINE",
"2277 1044 LINE",
"2353 1434 LINE",
"1214 1434 LINE",
"936 0 LINE"
);
}
);
};
layerId = "6D60D92C-1450-4586-BB49-599D0D4C1213";
paths = (
{
closed = 1;
nodes = (
"424 0 LINE",
"1106 1075 LINE",
"1454 1075 LINE",
"1499 1434 LINE",
"862 1434 LINE",
"-137 0 LINE"
);
},
{
closed = 1;
nodes = (
"1122 442 LINE",
"1190 786 LINE",
"584 786 LINE",
"516 442 LINE"
);
},
{
closed = 1;
nodes = (
"2089 0 LINE",
"2165 393 LINE",
"1468 393 LINE",
"1491 508 LINE",
"2091 508 LINE",
"2163 872 LINE",
"1563 872 LINE",
"1595 1044 LINE",
"2277 1044 LINE",
"2353 1434 LINE",
"1214 1434 LINE",
"936 0 LINE"
);
}
);
width = 2245;
},
{
anchors = (
{
name = top.case;
position = "{1622, 1475}";
}
);
background = {
paths = (
{
closed = 1;
nodes = (
"270 0 LINE",
"1114 1180 LINE",
"1366 1180 LINE",
"1415 1434 LINE",
"991 1434 LINE",
"-63 0 LINE"
);
},
{
closed = 1;
nodes = (
"1253 535 LINE",
"1300 780 LINE",
"571 780 LINE",
"524 535 LINE"
);
},
{
closed = 1;
nodes = (
"1980 0 LINE",
"2028 236 LINE",
"1257 236 LINE",
"1315 532 LINE",
"1989 532 LINE",
"2038 786 LINE",
"1364 786 LINE",
"1444 1198 LINE",
"2200 1198 LINE",
"2245 1434 LINE",
"1221 1434 LINE",
"942 0 LINE"
);
}
);
};
layerId = "74CCE9C5-5564-42E0-9214-3BF0725DF94D";
paths = (
{
closed = 1;
nodes = (
"270 0 LINE",
"1114 1180 LINE",
"1366 1180 LINE",
"1415 1434 LINE",
"991 1434 LINE",
"-63 0 LINE"
);
},
{
closed = 1;
nodes = (
"1253 541 LINE",
"1294 776 LINE",
"571 776 LINE",
"524 541 LINE"
);
},
{
closed = 1;
nodes = (
"1980 0 LINE",
"2028 236 LINE",
"1257 236 LINE",
"1317 541 LINE",
"1991 541 LINE",
"2036 776 LINE",
"1364 776 LINE",
"1444 1198 LINE",
"2200 1198 LINE",
"2245 1434 LINE",
"1221 1434 LINE",
"942 0 LINE"
);
}
);
width = 2165;
}
);
leftKerningGroup = AE;
rightKerningGroup = E;
rightMetricsKey = E;
unicode = 00C6;
},
{
color = 4;
glyphname = B;
lastChange = "2020-12-22 23:58:30 +0000";
layers = (
{
background = {
paths = (
{
closed = 1;
nodes = (
"725 0 LINE SMOOTH",
"1018 0 OFFCURVE",
"1206 141 OFFCURVE",
"1255 389 CURVE SMOOTH",
"1290 567 OFFCURVE",
"1202 711 OFFCURVE",
"1047 741 CURVE",
"1047 743 LINE",
"1233 786 OFFCURVE",
"1319 909 OFFCURVE",
"1348 1051 CURVE SMOOTH",
"1393 1284 OFFCURVE",
"1272 1434 OFFCURVE",
"1008 1434 CURVE SMOOTH",
"395 1434 LINE",
"117 0 LINE"
);
},
{
closed = 1;
nodes = (
"334 709 LINE",
"870 709 LINE SMOOTH",
"1106 709 OFFCURVE",
"1208 580 OFFCURVE",
"1174 399 CURVE SMOOTH",
"1130 180 OFFCURVE",
"989 74 OFFCURVE",
"713 74 CURVE SMOOTH",
"211 74 LINE"
);
},
{
closed = 1;
nodes = (
"461 1360 LINE",
"969 1360 LINE SMOOTH",
"1225 1360 OFFCURVE",
"1303 1237 OFFCURVE",
"1268 1057 CURVE SMOOTH",
"1233 879 OFFCURVE",
"1106 782 OFFCURVE",
"887 782 CURVE SMOOTH",
"348 782 LINE"
);
}
);
};
guideLines = (
{
angle = 79;
position = "{605, 387}";
},
{
angle = 79;
position = "{642, 365}";
},
{
angle = 79;
position = "{685, 678}";
},
{
angle = 79;
position = "{644, 678}";
}
);
layerId = "13A5184A-77A5-4E03-80A5-A9198A2CA35F";
paths = (
{
closed = 1;
nodes = (
"725 0 LINE SMOOTH",
"1018 0 OFFCURVE",
"1206 141 OFFCURVE",
"1255 389 CURVE SMOOTH",
"1290 567 OFFCURVE",
"1202 711 OFFCURVE",
"1047 741 CURVE",
"1047 743 LINE",
"1233 786 OFFCURVE",
"1319 909 OFFCURVE",
"1348 1051 CURVE SMOOTH",
"1403 1290 OFFCURVE",
"1268 1434 OFFCURVE",
"967 1434 CURVE SMOOTH",
"395 1434 LINE",
"117 0 LINE"
);
},
{
closed = 1;
nodes = (
"334 709 LINE",
"870 709 LINE SMOOTH",
"1106 709 OFFCURVE",
"1208 580 OFFCURVE",
"1174 399 CURVE SMOOTH",
"1130 180 OFFCURVE",
"989 74 OFFCURVE",
"713 74 CURVE SMOOTH",
"211 74 LINE"
);
},
{
closed = 1;
nodes = (
"461 1360 LINE",
"948 1360 LINE SMOOTH",
"1221 1360 OFFCURVE",
"1307 1237 OFFCURVE",
"1268 1057 CURVE SMOOTH",
"1233 879 OFFCURVE",
"1106 782 OFFCURVE",
"887 782 CURVE SMOOTH",
"348 782 LINE"
);
}
);
width = 1391;
},
{
background = {
paths = (
{
closed = 1;
nodes = (
"854 0 LINE SMOOTH",
"1180 0 OFFCURVE",
"1389 188 OFFCURVE",
"1438 453 CURVE SMOOTH",
"1460 571 OFFCURVE",
"1411 686 OFFCURVE",
"1307 737 CURVE",
"1307 741 LINE",
"1415 819 OFFCURVE",
"1473 930 OFFCURVE",
"1493 1032 CURVE SMOOTH",
"1538 1262 OFFCURVE",
"1413 1434 OFFCURVE",
"1112 1434 CURVE SMOOTH",
"287 1434 LINE",
"8 0 LINE"
);
},
{
closed = 1;
nodes = (
"582 596 LINE",
"868 596 LINE SMOOTH",
"961 596 OFFCURVE",
"991 559 OFFCURVE",
"975 475 CURVE SMOOTH",
"956 385 OFFCURVE",
"893 360 OFFCURVE",
"786 360 CURVE SMOOTH",
"535 360 LINE"
);
},
{
closed = 1;
nodes = (
"678 1096 LINE",
"922 1096 LINE SMOOTH",
"1034 1096 OFFCURVE",
"1071 1059 OFFCURVE",
"1057 981 CURVE SMOOTH",
"1042 901 OFFCURVE",
"985 866 OFFCURVE",
"905 866 CURVE SMOOTH",
"633 866 LINE"
);
}
);
};
guideLines = (
{
angle = 79;
position = "{659, 0}";
},
{
angle = 79;
position = "{633, -41}";
},
{
angle = 79;
position = "{408, -77}";
},
{
angle = 79;
position = "{418, -67}";
}
);
layerId = "6D60D92C-1450-4586-BB49-599D0D4C1213";
paths = (
{
closed = 1;
nodes = (
"819 0 LINE SMOOTH",
"1200 0 OFFCURVE",
"1386 184 OFFCURVE",
"1434 432 CURVE SMOOTH",
"1454 543 OFFCURVE",
"1417 686 OFFCURVE",
"1296 739 CURVE",
"1296 741 LINE",
"1417 813 OFFCURVE",
"1473 930 OFFCURVE",
"1493 1032 CURVE SMOOTH",
"1534 1233 OFFCURVE",
"1438 1434 OFFCURVE",
"1092 1434 CURVE SMOOTH",
"287 1434 LINE",
"8 0 LINE"
);
},
{
closed = 1;
nodes = (
"582 596 LINE",
"860 596 LINE SMOOTH",
"954 596 OFFCURVE",
"991 559 OFFCURVE",
"975 475 CURVE SMOOTH",
"961 403 OFFCURVE",
"915 360 OFFCURVE",
"811 360 CURVE SMOOTH",
"535 360 LINE"
);
},
{
closed = 1;
nodes = (
"678 1096 LINE",
"936 1096 LINE SMOOTH",
"1040 1096 OFFCURVE",
"1071 1051 OFFCURVE",
"1055 975 CURVE SMOOTH",
"1040 901 OFFCURVE",
"993 866 OFFCURVE",
"905 866 CURVE SMOOTH",
"633 866 LINE"
);
}
);
width = 1505;
},
{
background = {
paths = (
{
closed = 1;
nodes = (
"768 0 LINE SMOOTH",
"1073 0 OFFCURVE",
"1276 170 OFFCURVE",
"1327 428 CURVE SMOOTH",
"1358 584 OFFCURVE",
"1282 702 OFFCURVE",
"1157 741 CURVE",
"1159 743 LINE",
"1307 805 OFFCURVE",
"1366 928 OFFCURVE",
"1391 1055 CURVE SMOOTH",
"1434 1274 OFFCURVE",
"1317 1434 OFFCURVE",
"1024 1434 CURVE SMOOTH",
"350 1434 LINE",
"72 0 LINE"
);
},
{
closed = 1;
nodes = (
"459 614 LINE",
"885 614 LINE SMOOTH",
"1012 614 OFFCURVE",
"1075 553 OFFCURVE",
"1053 434 CURVE SMOOTH",
"1026 297 OFFCURVE",
"942 236 OFFCURVE",
"799 236 CURVE SMOOTH",
"385 236 LINE"
);
},
{
closed = 1;
nodes = (
"573 1198 LINE",
"963 1198 LINE SMOOTH",
"1102 1198 OFFCURVE",
"1151 1137 OFFCURVE",
"1128 1026 CURVE SMOOTH",
"1104 909 OFFCURVE",
"1034 850 OFFCURVE",
"911 850 CURVE SMOOTH",
"506 850 LINE"
);
}
);
};
guideLines = (
{
position = "{86, 115}";
},
{
position = "{218, 585}";
}
);
layerId = "74CCE9C5-5564-42E0-9214-3BF0725DF94D";
paths = (
{
closed = 1;
nodes = (
"750 0 LINE SMOOTH",
"1085 0 OFFCURVE",
"1272 150 OFFCURVE",
"1321 406 CURVE SMOOTH",
"1352 563 OFFCURVE",
"1280 702 OFFCURVE",
"1135 737 CURVE",
"1135 739 LINE",
"1292 795 OFFCURVE",
"1384 920 OFFCURVE",
"1409 1049 CURVE SMOOTH",
"1450 1260 OFFCURVE",
"1341 1434 OFFCURVE",
"1036 1434 CURVE SMOOTH",
"348 1434 LINE",
"70 0 LINE"
);
},
{
closed = 1;
nodes = (
"457 614 LINE",
"874 614 LINE SMOOTH",
"1016 614 OFFCURVE",
"1071 547 OFFCURVE",
"1049 422 CURVE SMOOTH",
"1026 295 OFFCURVE",
"950 236 OFFCURVE",
"809 236 CURVE SMOOTH",
"385 236 LINE"
);
},
{
closed = 1;
nodes = (
"565 1198 LINE",
"975 1198 LINE SMOOTH",
"1102 1198 OFFCURVE",
"1149 1135 OFFCURVE",
"1128 1026 CURVE SMOOTH",
"1108 903 OFFCURVE",
"1044 850 OFFCURVE",
"922 850 CURVE SMOOTH",
"502 850 LINE"
);
}
);
width = 1446;
}
);
leftMetricsKey = H;
rightKerningGroup = B;
unicode = 0042;
},
{
color = 4;
glyphname = C;
lastChange = "2020-12-22 23:58:30 +0000";
layers = (
{
anchors = (
{
name = bottom;
position = "{672, -72}";
},
{
name = top.case;
position = "{1063, 1475}";
}
);
annotations = (
{
position = "{777, 642}";
type = Text;
}
);
background = {
paths = (
{
closed = 1;
nodes = (
"897 -12 OFFCURVE",
"1053 16 OFFCURVE",
"1210 84 CURVE SMOOTH",
"1378 154 LINE",
"1350 68 LINE",
"1276 225 LINE",
"1389 219 LINE",
"1188 145 LINE SMOOTH",
"1040 92 OFFCURVE",
"899 61 OFFCURVE",
"776 61 CURVE SMOOTH",
"395 61 OFFCURVE",
"182 309 OFFCURVE",
"264 735 CURVE SMOOTH",
"346 1151 OFFCURVE",
"676 1380 OFFCURVE",
"1044 1380 CURVE SMOOTH",
"1167 1380 OFFCURVE",
"1280 1358 OFFCURVE",
"1440 1307 CURVE SMOOTH",
"1497 1288 LINE",
"1454 1249 LINE",
"1513 1372 LINE",
"1554 1335 LINE",
"1464 1370 LINE SMOOTH",
"1331 1421 OFFCURVE",
"1190 1454 OFFCURVE",
"1040 1454 CURVE SMOOTH",
"629 1454 OFFCURVE",
"266 1188 OFFCURVE",
"180 739 CURVE SMOOTH",
"90 270 OFFCURVE",
"348 -12 OFFCURVE",
"758 -12 CURVE SMOOTH"
);
}
);
};
guideLines = (
{
angle = 79;
position = "{24, 57}";
},
{
angle = 79;
position = "{65, 57}";
}
);
layerId = "13A5184A-77A5-4E03-80A5-A9198A2CA35F";
paths = (
{
closed = 1;
nodes = (
"897 -12 OFFCURVE",
"1053 16 OFFCURVE",
"1210 84 CURVE SMOOTH",
"1378 154 LINE",
"1350 68 LINE",
"1276 225 LINE",
"1389 219 LINE",
"1188 145 LINE SMOOTH",
"1040 92 OFFCURVE",
"899 61 OFFCURVE",
"776 61 CURVE SMOOTH",
"395 61 OFFCURVE",
"182 309 OFFCURVE",
"264 735 CURVE SMOOTH",
"346 1151 OFFCURVE",
"676 1380 OFFCURVE",
"1044 1380 CURVE SMOOTH",
"1167 1380 OFFCURVE",
"1280 1358 OFFCURVE",
"1440 1307 CURVE SMOOTH",
"1497 1288 LINE",
"1454 1249 LINE",
"1513 1372 LINE",
"1554 1335 LINE",
"1464 1370 LINE SMOOTH",
"1331 1421 OFFCURVE",
"1190 1454 OFFCURVE",
"1040 1454 CURVE SMOOTH",
"629 1454 OFFCURVE",
"266 1188 OFFCURVE",
"180 739 CURVE SMOOTH",
"90 270 OFFCURVE",
"348 -12 OFFCURVE",
"758 -12 CURVE SMOOTH"
);
}
);
width = 1483;
},
{
anchors = (
{
name = bottom;
position = "{694, -72}";
},
{
name = top.case;
position = "{1014, 1475}";
}
);
guideLines = (
{
angle = 79;
position = "{114, 670}";
},
{
angle = 79;
position = "{369, 808}";
}
);
layerId = "6D60D92C-1450-4586-BB49-599D0D4C1213";
paths = (
{
closed = 1;
nodes = (
"862 -18 OFFCURVE",
"1034 16 OFFCURVE",
"1133 45 CURVE SMOOTH",
"1372 115 LINE",
"1208 2 LINE",
"1190 565 LINE",
"1278 426 LINE",
"1124 414 LINE SMOOTH",
"1006 408 OFFCURVE",
"905 399 OFFCURVE",
"823 399 CURVE SMOOTH",
"610 399 OFFCURVE",
"528 494 OFFCURVE",
"575 741 CURVE SMOOTH",
"623 977 OFFCURVE",
"745 1038 OFFCURVE",
"958 1038 CURVE SMOOTH",
"1057 1038 OFFCURVE",
"1147 1030 OFFCURVE",
"1247 1018 CURVE SMOOTH",
"1376 1004 LINE",
"1247 879 LINE",
"1444 1448 LINE",
"1534 1339 LINE",
"1384 1389 LINE SMOOTH",
"1309 1413 OFFCURVE",
"1135 1452 OFFCURVE",
"989 1452 CURVE SMOOTH",
"551 1452 OFFCURVE",
"209 1245 OFFCURVE",
"117 772 CURVE SMOOTH",
"20 272 OFFCURVE",
"264 -18 OFFCURVE",
"713 -18 CURVE SMOOTH"
);
}
);
width = 1331;
},
{
anchors = (
{
name = bottom;
position = "{684, -72}";
},
{
name = top.case;
position = "{981, 1475}";
}
);
background = {
paths = (
{
closed = 1;
nodes = (
"868 -16 OFFCURVE",
"1030 16 OFFCURVE",
"1182 76 CURVE SMOOTH",
"1360 145 LINE",
"1253 39 LINE",
"1235 399 LINE",
"1317 328 LINE",
"1143 283 LINE SMOOTH",
"1012 248 OFFCURVE",
"893 231 OFFCURVE",
"791 231 CURVE SMOOTH",
"504 231 OFFCURVE",
"352 387 OFFCURVE",
"416 721 CURVE SMOOTH",
"477 1047 OFFCURVE",
"707 1206 OFFCURVE",
"991 1206 CURVE SMOOTH",
"1100 1206 OFFCURVE",
"1194 1184 OFFCURVE",
"1313 1161 CURVE SMOOTH",
"1417 1141 LINE",
"1319 1042 LINE",
"1481 1409 LINE",
"1522 1331 LINE",
"1421 1374 LINE SMOOTH",
"1309 1421 OFFCURVE",
"1174 1454 OFFCURVE",
"1026 1454 CURVE SMOOTH",
"614 1454 OFFCURVE",
"233 1192 OFFCURVE",
"141 719 CURVE SMOOTH",
"47 236 OFFCURVE",
"307 -16 OFFCURVE",
"725 -16 CURVE SMOOTH"
);
}
);
};
guideLines = (
{
angle = 79;
position = "{441, 413}";
},
{
angle = 79;
position = "{248, 582}";
},
{
angle = 79;
position = "{127, 652}";
}
);
layerId = "74CCE9C5-5564-42E0-9214-3BF0725DF94D";
paths = (
{
closed = 1;
nodes = (
"862 -20 OFFCURVE",
"1022 20 OFFCURVE",
"1176 80 CURVE SMOOTH",
"1303 129 LINE",
"1270 41 LINE",
"1176 381 LINE",
"1237 309 LINE",
"1114 279 LINE SMOOTH",
"995 250 OFFCURVE",
"889 231 OFFCURVE",
"784 231 CURVE SMOOTH",
"500 231 OFFCURVE",
"354 397 OFFCURVE",
"420 743 CURVE SMOOTH",
"477 1057 OFFCURVE",
"692 1206 OFFCURVE",
"961 1206 CURVE SMOOTH",
"1047 1206 OFFCURVE",
"1141 1194 OFFCURVE",
"1237 1171 CURVE SMOOTH",
"1350 1145 LINE",
"1278 1042 LINE",
"1464 1405 LINE",
"1489 1327 LINE",
"1374 1376 LINE SMOOTH",
"1266 1423 OFFCURVE",
"1108 1454 OFFCURVE",
"973 1454 CURVE SMOOTH",
"571 1454 OFFCURVE",
"238 1243 OFFCURVE",
"152 774 CURVE SMOOTH",
"59 291 OFFCURVE",
"303 -20 OFFCURVE",
"717 -20 CURVE SMOOTH"
);
}
);
width = 1415;
}
);
leftKerningGroup = O;
leftMetricsKey = O;
rightKerningGroup = C;
unicode = 0043;
},
{
color = 4;
glyphname = D;
lastChange = "2020-12-22 23:58:30 +0000";
layers = (
{
anchors = (
{
name = top.case;
position = "{901, 1475}";
}
);
background = {
paths = (
{
closed = 1;
nodes = (
"809 696 LINE",
"823 770 LINE",
"-31 770 LINE",
"-45 696 LINE"
);
},
{
closed = 1;
nodes = (
"584 0 LINE SMOOTH",
"1034 0 OFFCURVE",
"1372 276 OFFCURVE",
"1458 715 CURVE SMOOTH",
"1544 1153 OFFCURVE",
"1319 1434 OFFCURVE",
"883 1434 CURVE SMOOTH",
"395 1434 LINE",
"117 0 LINE"
);
},
{
closed = 1;
nodes = (
"461 1360 LINE",
"862 1360 LINE SMOOTH",
"1257 1360 OFFCURVE",
"1452 1116 OFFCURVE",
"1374 715 CURVE SMOOTH",
"1298 324 OFFCURVE",
"1001 74 OFFCURVE",
"612 74 CURVE SMOOTH",
"211 74 LINE"
);
}
);
};
guideLines = (
{
angle = 79;
position = "{623, 55}";
},
{
angle = 79;
position = "{665, 61}";
}
);
layerId = "13A5184A-77A5-4E03-80A5-A9198A2CA35F";
paths = (
{
closed = 1;
nodes = (
"590 0 LINE SMOOTH",
"1047 0 OFFCURVE",
"1368 229 OFFCURVE",
"1456 692 CURVE SMOOTH",
"1540 1133 OFFCURVE",
"1325 1434 OFFCURVE",
"866 1434 CURVE SMOOTH",
"395 1434 LINE",
"117 0 LINE"
);
},
{
closed = 1;
nodes = (
"461 1360 LINE",
"844 1360 LINE SMOOTH",
"1260 1360 OFFCURVE",
"1454 1114 OFFCURVE",
"1372 692 CURVE SMOOTH",
"1296 299 OFFCURVE",
"1008 74 OFFCURVE",
"604 74 CURVE SMOOTH",
"211 74 LINE"
);
}
);
width = 1552;
},
{
anchors = (
{
name = top.case;
position = "{885, 1475}";
}
);
background = {
paths = (
{
closed = 1;
nodes = (
"573 0 LINE SMOOTH",
"1073 0 OFFCURVE",
"1434 254 OFFCURVE",
"1524 715 CURVE SMOOTH",
"1620 1206 OFFCURVE",
"1341 1434 OFFCURVE",
"866 1434 CURVE SMOOTH",
"287 1434 LINE",
"8 0 LINE"
);
},
{
closed = 1;
nodes = (
"666 1034 LINE",
"774 1034 LINE SMOOTH",
"1032 1034 OFFCURVE",
"1106 971 OFFCURVE",
"1057 715 CURVE SMOOTH",
"1014 492 OFFCURVE",
"899 399 OFFCURVE",
"651 399 CURVE SMOOTH",
"543 399 LINE"
);
}
);
};
guideLines = (
{
angle = 79;
position = "{807, 673}";
},
{
angle = 79;
position = "{560, 574}";
}
);
layerId = "6D60D92C-1450-4586-BB49-599D0D4C1213";
paths = (
{
closed = 1;
nodes = (
"586 0 LINE SMOOTH",
"1102 0 OFFCURVE",
"1423 205 OFFCURVE",
"1516 674 CURVE SMOOTH",
"1606 1130 OFFCURVE",
"1358 1434 OFFCURVE",
"866 1434 CURVE SMOOTH",
"287 1434 LINE",
"8 0 LINE"
);
},
{
closed = 1;
nodes = (
"666 1034 LINE",
"774 1034 LINE SMOOTH",
"1032 1034 OFFCURVE",
"1100 940 OFFCURVE",
"1053 694 CURVE SMOOTH",
"1012 479 OFFCURVE",
"899 399 OFFCURVE",
"651 399 CURVE SMOOTH",
"543 399 LINE"
);
}
);
width = 1560;
},
{
anchors = (
{
name = top.case;
position = "{895, 1475}";
}
);
background = {
paths = (
{
closed = 1;
nodes = (
"586 0 LINE SMOOTH",
"1061 0 OFFCURVE",
"1411 266 OFFCURVE",
"1499 715 CURVE SMOOTH",
"1591 1180 OFFCURVE",
"1337 1434 OFFCURVE",
"883 1434 CURVE SMOOTH",
"348 1434 LINE",
"70 0 LINE"
);
},
{
closed = 1;
nodes = (
"571 1198 LINE",
"829 1198 LINE SMOOTH",
"1155 1198 OFFCURVE",
"1288 1042 OFFCURVE",
"1225 715 CURVE SMOOTH",
"1165 408 OFFCURVE",
"958 236 OFFCURVE",
"641 236 CURVE SMOOTH",
"383 236 LINE"
);
}
);
};
layerId = "74CCE9C5-5564-42E0-9214-3BF0725DF94D";
paths = (
{
closed = 1;
nodes = (
"578 0 LINE SMOOTH",
"1073 0 OFFCURVE",
"1405 217 OFFCURVE",
"1497 684 CURVE SMOOTH",
"1585 1133 OFFCURVE",
"1352 1434 OFFCURVE",
"877 1434 CURVE SMOOTH",
"348 1434 LINE",
"70 0 LINE"
);
},
{
closed = 1;
nodes = (
"571 1198 LINE",
"823 1198 LINE SMOOTH",
"1163 1198 OFFCURVE",
"1288 1014 OFFCURVE",
"1225 694 CURVE SMOOTH",
"1165 397 OFFCURVE",
"958 236 OFFCURVE",
"635 236 CURVE SMOOTH",
"383 236 LINE"
);
}
);
width = 1568;
}
);
leftMetricsKey = H;
rightKerningGroup = O;
rightMetricsKey = O;
unicode = 0044;
},
{
color = 3;
glyphname = Eth;
lastChange = "2020-12-22 23:58:30 +0000";
layers = (
{
background = {
paths = (
{
closed = 1;
nodes = (
"932 696 LINE",
"946 770 LINE",
"92 770 LINE",
"78 696 LINE"
);
},
{
closed = 1;
nodes = (
"707 0 LINE SMOOTH",
"1157 0 OFFCURVE",
"1495 276 OFFCURVE",
"1581 715 CURVE SMOOTH",
"1667 1153 OFFCURVE",
"1442 1434 OFFCURVE",
"1006 1434 CURVE SMOOTH",
"518 1434 LINE",
"240 0 LINE"
);
},
{
closed = 1;
nodes = (
"584 1360 LINE",
"985 1360 LINE SMOOTH",
"1380 1360 OFFCURVE",
"1575 1116 OFFCURVE",
"1497 715 CURVE SMOOTH",
"1421 324 OFFCURVE",
"1124 74 OFFCURVE",
"735 74 CURVE SMOOTH",
"334 74 LINE"
);
}
);
};
components = (
{
name = D;
transform = "{1, 0, 0, 1, 125, 0}";
}
);
layerId = "13A5184A-77A5-4E03-80A5-A9198A2CA35F";
paths = (
{
closed = 1;
nodes = (
"934 696 LINE",
"946 770 LINE",
"92 770 LINE",
"80 696 LINE"
);
}
);
width = 1677;
},
{
background = {
paths = (
{
closed = 1;
nodes = (
"842 592 LINE",
"889 831 LINE",
"53 831 LINE",
"6 592 LINE"
);
},
{
closed = 1;
nodes = (
"610 0 LINE SMOOTH",
"1110 0 OFFCURVE",
"1470 254 OFFCURVE",
"1561 715 CURVE SMOOTH",
"1657 1206 OFFCURVE",
"1378 1434 OFFCURVE",
"903 1434 CURVE SMOOTH",
"324 1434 LINE",
"45 0 LINE"
);
},
{
closed = 1;
nodes = (
"700 1022 LINE",
"809 1022 LINE SMOOTH",
"1067 1022 OFFCURVE",
"1141 961 OFFCURVE",
"1094 715 CURVE SMOOTH",
"1053 500 OFFCURVE",
"938 412 OFFCURVE",
"690 412 CURVE SMOOTH",
"582 412 LINE"
);
}
);
};
components = (
{
name = D;
transform = "{1, 0, 0, 1, 41, 0}";
}
);
layerId = "6D60D92C-1450-4586-BB49-599D0D4C1213";
paths = (
{
closed = 1;
nodes = (
"842 592 LINE",
"889 831 LINE",
"53 831 LINE",
"6 592 LINE"
);
}
);
width = 1601;
},
{
background = {
paths = (
{
closed = 1;
nodes = (
"911 637 LINE",
"948 819 LINE",
"92 819 LINE",
"55 637 LINE"
);
},
{
closed = 1;
nodes = (
"670 0 LINE SMOOTH",
"1145 0 OFFCURVE",
"1495 266 OFFCURVE",
"1583 715 CURVE SMOOTH",
"1675 1180 OFFCURVE",
"1421 1434 OFFCURVE",
"967 1434 CURVE SMOOTH",
"432 1434 LINE",
"154 0 LINE"
);
},
{
closed = 1;
nodes = (
"653 1192 LINE",
"909 1192 LINE SMOOTH",
"1235 1192 OFFCURVE",
"1370 1038 OFFCURVE",
"1307 715 CURVE SMOOTH",
"1247 412 OFFCURVE",
"1042 244 OFFCURVE",
"725 244 CURVE SMOOTH",
"469 244 LINE"
);
}
);
};
components = (
{
name = D;
transform = "{1, 0, 0, 1, 82, 0}";
}
);
layerId = "74CCE9C5-5564-42E0-9214-3BF0725DF94D";
paths = (
{
closed = 1;
nodes = (
"911 637 LINE",
"948 819 LINE",
"92 819 LINE",
"55 637 LINE"
);
}
);
width = 1650;
}
);
leftKerningGroup = Eth;
rightKerningGroup = O;
rightMetricsKey = D;
unicode = 00D0;
},
{
color = 4;
glyphname = E;
lastChange = "2020-12-22 23:58:30 +0000";
layers = (
{
anchors = (
{
name = bottom;
position = "{637, -72}";
},
{
name = ogonek;
position = "{981, 20}";
},
{
name = top.case;
position = "{932, 1475}";
}
);
layerId = "13A5184A-77A5-4E03-80A5-A9198A2CA35F";
paths = (
{
closed = 1;
nodes = (
"1130 0 LINE",
"1145 74 LINE",
"211 74 LINE",
"332 696 LINE",
"1169 696 LINE",
"1184 770 LINE",
"346 770 LINE",
"461 1360 LINE",
"1380 1360 LINE",
"1395 1434 LINE",
"395 1434 LINE",
"117 0 LINE"
);
}
);
width = 1341;
},
{
anchors = (
{
name = bottom;
position = "{606, -72}";
},
{
name = ogonek;
position = "{936, 20}";
},
{
name = top.case;
position = "{881, 1452}";
}
);
background = {
paths = (
{
closed = 1;
nodes = (
"1192 0 LINE",
"1268 393 LINE",
"541 393 LINE",
"573 557 LINE",
"1204 557 LINE",
"1270 895 LINE",
"639 895 LINE",
"668 1044 LINE",
"1380 1044 LINE",
"1456 1434 LINE",
"287 1434 LINE",
"8 0 LINE"
);
}
);
};
layerId = "6D60D92C-1450-4586-BB49-599D0D4C1213";
paths = (
{
closed = 1;
nodes = (
"1192 0 LINE",
"1268 393 LINE",
"541 393 LINE",
"573 557 LINE",
"1204 557 LINE",
"1270 895 LINE",
"639 895 LINE",
"668 1044 LINE",
"1380 1044 LINE",
"1456 1434 LINE",
"287 1434 LINE",
"8 0 LINE"
);
}
);
width = 1348;
},
{
anchors = (
{
name = bottom;
position = "{604, -72}";
},
{
name = ogonek;
position = "{965, 20}";
},
{
name = top.case;
position = "{893, 1464}";
}
);
background = {
paths = (
{
closed = 1;
nodes = (
"1161 0 LINE",
"1206 236 LINE",
"385 236 LINE",
"459 616 LINE",
"1184 616 LINE",
"1231 852 LINE",
"506 852 LINE",
"573 1198 LINE",
"1380 1198 LINE",
"1425 1434 LINE",
"350 1434 LINE",
"72 0 LINE"
);
}
);
};
guideLines = (
{
position = "{214, 585}";
},
{
position = "{204, 416}";
},
{
position = "{204, 301}";
},
{
position = "{183, 116}";
}
);
layerId = "74CCE9C5-5564-42E0-9214-3BF0725DF94D";
paths = (
{
closed = 1;
nodes = (
"1159 0 LINE",
"1206 236 LINE",
"385 236 LINE",
"459 616 LINE",
"1184 616 LINE",
"1231 852 LINE",
"504 852 LINE",
"571 1198 LINE",
"1378 1198 LINE",
"1423 1434 LINE",
"348 1434 LINE",
"70 0 LINE"
);
}
);
width = 1343;
}
);
leftMetricsKey = H;
rightKerningGroup = E;
unicode = 0045;
},
{
color = 4;
glyphname = F;
lastChange = "2020-12-22 23:58:30 +0000";
layers = (
{
layerId = "13A5184A-77A5-4E03-80A5-A9198A2CA35F";
paths = (
{
closed = 1;
nodes = (
"197 0 LINE",
"332 696 LINE",
"1128 696 LINE",
"1143 770 LINE",
"346 770 LINE",
"461 1360 LINE",
"1339 1360 LINE",
"1354 1434 LINE",
"395 1434 LINE",
"117 0 LINE"
);
}
);
width = 1245;
},
{
background = {
paths = (
{
closed = 1;
nodes = (
"465 0 LINE",
"559 485 LINE",
"1165 485 LINE",
"1231 823 LINE",
"625 823 LINE",
"666 1034 LINE",
"1354 1034 LINE",
"1432 1434 LINE",
"287 1434 LINE",
"8 0 LINE"
);
}
);
};
layerId = "6D60D92C-1450-4586-BB49-599D0D4C1213";
paths = (
{
closed = 1;
nodes = (
"465 0 LINE",
"559 485 LINE",
"1165 485 LINE",
"1231 823 LINE",
"625 823 LINE",
"666 1034 LINE",
"1354 1034 LINE",
"1432 1434 LINE",
"287 1434 LINE",
"8 0 LINE"
);
}
);
width = 1288;
},
{
background = {
paths = (
{
closed = 1;
nodes = (
"338 0 LINE",
"451 584 LINE",
"1110 584 LINE",
"1159 838 LINE",
"500 838 LINE",
"567 1180 LINE",
"1309 1180 LINE",
"1358 1434 LINE",
"348 1434 LINE",
"70 0 LINE"
);
}
);
};
guideLines = (
{
position = "{214, 585}";
},
{
position = "{191, 406}";
},
{
position = "{170, 291}";
}
);
layerId = "74CCE9C5-5564-42E0-9214-3BF0725DF94D";
paths = (
{
closed = 1;
nodes = (
"340 0 LINE",
"455 596 LINE",
"1112 596 LINE",
"1157 831 LINE",
"500 831 LINE",
"573 1198 LINE",
"1313 1198 LINE",
"1358 1434 LINE",
"348 1434 LINE",
"70 0 LINE"
);
}
);
width = 1237;
}
);
leftMetricsKey = H;
unicode = 0046;
},
{
color = 4;
glyphname = G;
lastChange = "2020-12-22 23:58:30 +0000";
layers = (
{
anchors = (
{
name = bottom;
position = "{847, -72}";
},
{
name = top.case;
position = "{1121, 1475}";
}
);
background = {
paths = (
{
closed = 1;
nodes = (
"927 6 OFFCURVE",
"1082 37 OFFCURVE",
"1240 102 CURVE SMOOTH",
"1408 172 LINE",
"1379 86 LINE",
"1306 244 LINE",
"1418 238 LINE",
"1218 164 LINE SMOOTH",
"1070 111 OFFCURVE",
"929 80 OFFCURVE",
"806 80 CURVE SMOOTH",
"425 80 OFFCURVE",
"212 328 OFFCURVE",
"294 754 CURVE SMOOTH",
"374 1169 OFFCURVE",
"706 1399 OFFCURVE",
"1074 1399 CURVE SMOOTH",
"1197 1399 OFFCURVE",
"1310 1376 OFFCURVE",
"1469 1325 CURVE SMOOTH",
"1527 1307 LINE",
"1484 1268 LINE",
"1543 1391 LINE",
"1584 1354 LINE",
"1494 1389 LINE SMOOTH",
"1361 1440 OFFCURVE",
"1220 1473 OFFCURVE",
"1070 1473 CURVE SMOOTH",
"658 1473 OFFCURVE",
"296 1206 OFFCURVE",
"210 758 CURVE SMOOTH",
"120 289 OFFCURVE",
"378 6 OFFCURVE",
"787 6 CURVE SMOOTH"
);
}
);
};
guideLines = (
{
angle = 79;
position = "{24, 50}";
},
{
angle = 79;
position = "{64, 40}";
}
);
layerId = "13A5184A-77A5-4E03-80A5-A9198A2CA35F";
paths = (
{
closed = 1;
nodes = (
"1054 -20 OFFCURVE",
"1220 16 OFFCURVE",
"1385 78 CURVE",
"1508 702 LINE",
"884 702 LINE",
"869 629 LINE",
"1414 629 LINE",
"1304 63 LINE",
"1334 127 LINE",
"1197 82 OFFCURVE",
"1037 53 OFFCURVE",
"914 53 CURVE SMOOTH",
"421 53 OFFCURVE",
"185 317 OFFCURVE",
"265 737 CURVE SMOOTH",
"349 1163 OFFCURVE",
"706 1380 OFFCURVE",
"1103 1380 CURVE SMOOTH",
"1213 1380 OFFCURVE",
"1326 1368 OFFCURVE",
"1437 1333 CURVE SMOOTH",
"1541 1305 LINE",
"1484 1268 LINE",
"1551 1411 LINE",
"1566 1364 LINE",
"1469 1397 LINE SMOOTH",
"1369 1432 OFFCURVE",
"1240 1454 OFFCURVE",
"1117 1454 CURVE SMOOTH",
"681 1454 OFFCURVE",
"275 1225 OFFCURVE",
"183 752 CURVE SMOOTH",
"93 281 OFFCURVE",
"366 -20 OFFCURVE",
"906 -20 CURVE SMOOTH"
);
}
);
width = 1643;
},
{
anchors = (
{
name = bottom;
position = "{733, -72}";
},
{
name = top.case;
position = "{1022, 1475}";
}
);
background = {
paths = (
{
closed = 1;
nodes = (
"969 -18 OFFCURVE",
"1221 51 OFFCURVE",
"1374 141 CURVE",
"1507 827 LINE",
"815 827 LINE",
"758 522 LINE",
"1071 522 LINE",
"1030 315 LINE",
"1094 406 LINE",
"997 383 OFFCURVE",
"920 377 OFFCURVE",
"838 377 CURVE SMOOTH",
"621 377 OFFCURVE",
"524 463 OFFCURVE",
"573 713 CURVE SMOOTH",
"625 971 OFFCURVE",
"764 1053 OFFCURVE",
"989 1053 CURVE SMOOTH",
"1075 1053 OFFCURVE",
"1174 1040 OFFCURVE",
"1284 1022 CURVE SMOOTH",
"1464 991 LINE",
"1315 879 LINE",
"1542 1448 LINE",
"1653 1278 LINE",
"1442 1370 LINE SMOOTH",
"1319 1423 OFFCURVE",
"1188 1452 OFFCURVE",
"1051 1452 CURVE SMOOTH",
"600 1452 OFFCURVE",
"201 1200 OFFCURVE",
"106 717 CURVE SMOOTH",
"20 272 OFFCURVE",
"250 -18 OFFCURVE",
"741 -18 CURVE SMOOTH"
);
}
);
};
guideLines = (
{
angle = 79;
position = "{0, 78}";
},
{
angle = 79;
position = "{650, -42}";
}
);
layerId = "6D60D92C-1450-4586-BB49-599D0D4C1213";
paths = (
{
closed = 1;
nodes = (
"967 -18 OFFCURVE",
"1221 43 OFFCURVE",
"1372 125 CURVE",
"1509 827 LINE",
"817 827 LINE",
"760 522 LINE",
"1073 522 LINE",
"1032 315 LINE",
"1096 406 LINE",
"999 383 OFFCURVE",
"922 377 OFFCURVE",
"840 377 CURVE SMOOTH",
"623 377 OFFCURVE",
"526 463 OFFCURVE",
"578 733 CURVE SMOOTH",
"625 973 OFFCURVE",
"752 1053 OFFCURVE",
"999 1053 CURVE SMOOTH",
"1077 1053 OFFCURVE",
"1178 1040 OFFCURVE",
"1282 1022 CURVE SMOOTH",
"1464 991 LINE",
"1317 879 LINE",
"1544 1448 LINE",
"1622 1296 LINE",
"1442 1366 LINE SMOOTH",
"1305 1419 OFFCURVE",
"1112 1452 OFFCURVE",
"981 1452 CURVE SMOOTH",
"549 1452 OFFCURVE",
"211 1247 OFFCURVE",
"117 772 CURVE SMOOTH",
"33 346 OFFCURVE",
"276 -18 OFFCURVE",
"743 -18 CURVE SMOOTH"
);
}
);
width = 1513;
},
{
anchors = (
{
name = bottom;
position = "{793, -72}";
},
{
name = top.case;
position = "{1063, 1475}";
}
);
background = {
paths = (
{
closed = 1;
nodes = (
"1012 -20 OFFCURVE",
"1221 35 OFFCURVE",
"1380 111 CURVE",
"1518 811 LINE",
"860 811 LINE",
"815 575 LINE",
"1204 575 LINE",
"1128 190 LINE",
"1214 266 LINE",
"1098 233 OFFCURVE",
"979 215 OFFCURVE",
"877 215 CURVE SMOOTH",
"524 215 OFFCURVE",
"352 383 OFFCURVE",
"418 717 CURVE SMOOTH",
"483 1051 OFFCURVE",
"733 1206 OFFCURVE",
"1044 1206 CURVE SMOOTH",
"1141 1206 OFFCURVE",
"1247 1192 OFFCURVE",
"1358 1165 CURVE SMOOTH",
"1497 1133 LINE",
"1401 1073 LINE",
"1550 1430 LINE",
"1608 1319 LINE",
"1458 1382 LINE SMOOTH",
"1343 1432 OFFCURVE",
"1214 1454 OFFCURVE",
"1085 1454 CURVE SMOOTH",
"641 1454 OFFCURVE",
"238 1198 OFFCURVE",
"143 719 CURVE SMOOTH",
"53 258 OFFCURVE",
"305 -20 OFFCURVE",
"825 -20 CURVE SMOOTH"
);
}
);
};
layerId = "74CCE9C5-5564-42E0-9214-3BF0725DF94D";
paths = (
{
closed = 1;
nodes = (
"977 -20 OFFCURVE",
"1223 35 OFFCURVE",
"1380 111 CURVE",
"1518 811 LINE",
"862 811 LINE",
"817 575 LINE",
"1204 575 LINE",
"1128 190 LINE",
"1180 262 LINE",
"1067 231 OFFCURVE",
"954 215 OFFCURVE",
"856 215 CURVE SMOOTH",
"516 215 OFFCURVE",
"356 406 OFFCURVE",
"418 725 CURVE SMOOTH",
"485 1061 OFFCURVE",
"707 1206 OFFCURVE",
"1024 1206 CURVE SMOOTH",
"1108 1206 OFFCURVE",
"1202 1194 OFFCURVE",
"1296 1171 CURVE SMOOTH",
"1407 1145 LINE",
"1321 1042 LINE",
"1507 1405 LINE",
"1528 1337 LINE",
"1419 1380 LINE SMOOTH",
"1317 1419 OFFCURVE",
"1174 1454 OFFCURVE",
"1040 1454 CURVE SMOOTH",
"614 1454 OFFCURVE",
"244 1239 OFFCURVE",
"150 762 CURVE SMOOTH",
"68 313 OFFCURVE",
"313 -20 OFFCURVE",
"797 -20 CURVE SMOOTH"
);
}
);
width = 1550;
}
);
leftKerningGroup = O;
leftMetricsKey = O;
rightKerningGroup = G;
unicode = 0047;
},
{
color = 4;
glyphname = H;
lastChange = "2020-12-22 23:58:30 +0000";
layers = (
{
anchors = (
{
name = top.case;
position = "{967, 1475}";
}
);
layerId = "13A5184A-77A5-4E03-80A5-A9198A2CA35F";
paths = (
{
closed = 1;
nodes = (
"197 0 LINE",
"334 709 LINE",
"1300 709 LINE",
"1163 0 LINE",
"1243 0 LINE",
"1522 1434 LINE",
"1442 1434 LINE",
"1315 782 LINE",
"348 782 LINE",
"475 1434 LINE",
"395 1434 LINE",
"117 0 LINE"
);
}
);
width = 1556;
},
{
anchors = (
{
name = top.case;
position = "{965, 1475}";
}
);
layerId = "6D60D92C-1450-4586-BB49-599D0D4C1213";
paths = (
{
closed = 1;
nodes = (
"465 0 LINE",
"565 518 LINE",
"1014 518 LINE",
"913 0 LINE",
"1370 0 LINE",
"1649 1434 LINE",
"1192 1434 LINE",
"1096 938 LINE",
"647 938 LINE",
"743 1434 LINE",
"287 1434 LINE",
"8 0 LINE"
);
}
);
width = 1587;
},
{
anchors = (
{
name = top.case;
position = "{954, 1475}";
}
);
background = {
paths = (
{
closed = 1;
nodes = (
"338 0 LINE",
"457 612 LINE",
"1118 612 LINE",
"999 0 LINE",
"1268 0 LINE",
"1546 1434 LINE",
"1278 1434 LINE",
"1167 866 LINE",
"506 866 LINE",
"616 1434 LINE",
"348 1434 LINE",
"70 0 LINE"
);
}
);
};
guideLines = (
{
position = "{178, 418}";
},
{
position = "{157, 303}";
}
);
layerId = "74CCE9C5-5564-42E0-9214-3BF0725DF94D";
paths = (
{
closed = 1;
nodes = (
"338 0 LINE",
"459 621 LINE",
"1120 621 LINE",
"999 0 LINE",
"1268 0 LINE",
"1546 1434 LINE",
"1278 1434 LINE",
"1165 856 LINE",
"504 856 LINE",
"616 1434 LINE",
"348 1434 LINE",
"70 0 LINE"
);
}
);
width = 1538;
}
);
unicode = 0048;
},
{
color = 3;
glyphname = Hbar;
lastChange = "2020-12-22 23:58:30 +0000";
layers = (
{
components = (
{
name = H;
transform = "{1, 0, 0, 1, 53, 0}";
}
);
layerId = "13A5184A-77A5-4E03-80A5-A9198A2CA35F";
paths = (
{
closed = 1;
nodes = (
"1759 1061 LINE",
"1772 1135 LINE",
"133 1135 LINE",
"121 1061 LINE"
);
}
);
width = 1661;
},
{
components = (
{
name = H;
transform = "{1, 0, 0, 1, 35, 0}";
}
);
layerId = "6D60D92C-1450-4586-BB49-599D0D4C1213";
paths = (
{
closed = 1;
nodes = (
"1735 1059 LINE",
"1782 1300 LINE",
"174 1300 LINE",
"127 1059 LINE"
);
}
);
width = 1649;
},
{
background = {
paths = (
{
closed = 1;
nodes = (
"1745 1067 LINE",
"1786 1280 LINE",
"164 1280 LINE",
"123 1067 LINE"
);
}
);
};
components = (
{
alignment = -1;
name = H;
transform = "{1, 0, 0, 1, 57, 0}";
}
);
layerId = "74CCE9C5-5564-42E0-9214-3BF0725DF94D";
paths = (
{
closed = 1;
nodes = (
"1747 1083 LINE",
"1784 1264 LINE",
"162 1264 LINE",
"125 1083 LINE"
);
}
);
width = 1655;
}
);
unicode = 0126;
},
{
color = 4;
glyphname = I;
lastChange = "2020-12-22 23:58:30 +0000";
layers = (
{
anchors = (
{
name = bottom;
position = "{137, -72}";
},
{
name = ogonek;
position = "{78, 20}";
},
{
name = top.case;
position = "{444, 1475}";
}
);
layerId = "13A5184A-77A5-4E03-80A5-A9198A2CA35F";
paths = (
{
closed = 1;
nodes = (
"197 0 LINE",
"475 1434 LINE",
"395 1434 LINE",
"117 0 LINE"
);
}
);
width = 510;
},
{
anchors = (
{
name = bottom;
position = "{201, -72}";
},
{
name = ogonek;
position = "{205, 20}";
},
{
name = top.case;
position = "{524, 1475}";
}
);
layerId = "6D60D92C-1450-4586-BB49-599D0D4C1213";
paths = (
{
closed = 1;
nodes = (
"465 0 LINE",
"743 1434 LINE",
"287 1434 LINE",
"8 0 LINE"
);
}
);
width = 681;
},
{
anchors = (
{
name = bottom;
position = "{180, -72}";
},
{
name = ogonek;
position = "{147, 20}";
},
{
name = top.case;
position = "{492, 1475}";
}
);
layerId = "74CCE9C5-5564-42E0-9214-3BF0725DF94D";
paths = (
{
closed = 1;
nodes = (
"338 0 LINE",
"616 1434 LINE",
"348 1434 LINE",
"70 0 LINE"
);
}
);
width = 608;
}
);
leftMetricsKey = H;
rightMetricsKey = H;
unicode = 0049;
},
{
color = 4;
glyphname = J;
lastChange = "2020-12-22 23:58:30 +0000";
layers = (
{
anchors = (
{
name = top.case;
position = "{997, 1475}";
}
);
background = {
paths = (
{
closed = 1;
nodes = (
"602 -20 OFFCURVE",
"778 100 OFFCURVE",
"838 406 CURVE SMOOTH",
"1038 1434 LINE",
"958 1434 LINE",
"758 401 LINE SMOOTH",
"709 143 OFFCURVE",
"559 53 OFFCURVE",
"322 53 CURVE SMOOTH",
"209 53 OFFCURVE",
"143 63 OFFCURVE",
"74 78 CURVE SMOOTH",
"-18 98 LINE",
"39 129 LINE",
"-20 0 LINE",
"-41 37 LINE",
"49 14 LINE SMOOTH",
"152 -10 OFFCURVE",
"231 -20 OFFCURVE",
"313 -20 CURVE SMOOTH"
);
}
);
};
layerId = "13A5184A-77A5-4E03-80A5-A9198A2CA35F";
paths = (
{
closed = 1;
nodes = (
"600 -20 OFFCURVE",
"766 94 OFFCURVE",
"827 406 CURVE SMOOTH",
"1028 1434 LINE",
"948 1434 LINE",
"748 401 LINE SMOOTH",
"698 143 OFFCURVE",
"549 53 OFFCURVE",
"311 53 CURVE SMOOTH",
"199 53 OFFCURVE",
"133 61 OFFCURVE",
"63 74 CURVE SMOOTH",
"-29 90 LINE",
"23 133 LINE",
"-31 0 LINE",
"-51 37 LINE",
"39 14 LINE SMOOTH",
"141 -10 OFFCURVE",
"221 -20 OFFCURVE",
"303 -20 CURVE SMOOTH"
);
}
);
width = 1032;
},
{
anchors = (
{
name = top.case;
position = "{1044, 1475}";
}
);
background = {
anchors = (
{
name = top.case;
position = "{1044, 1475}";
}
);
paths = (
{
closed = 1;
nodes = (
"758 -18 OFFCURVE",
"1024 178 OFFCURVE",
"1094 541 CURVE SMOOTH",
"1268 1434 LINE",
"811 1434 LINE",
"637 543 LINE SMOOTH",
"621 457 OFFCURVE",
"547 401 OFFCURVE",
"438 401 CURVE SMOOTH",
"377 401 OFFCURVE",
"313 401 OFFCURVE",
"240 412 CURVE SMOOTH",
"49 436 LINE",
"174 571 LINE",
"-80 0 LINE",
"-131 98 LINE",
"29 45 LINE SMOOTH",
"156 2 OFFCURVE",
"264 -18 OFFCURVE",
"377 -18 CURVE SMOOTH"
);
}
);
};
layerId = "6D60D92C-1450-4586-BB49-599D0D4C1213";
paths = (
{
closed = 1;
nodes = (
"788 -18 OFFCURVE",
"1012 133 OFFCURVE",
"1073 442 CURVE SMOOTH",
"1268 1434 LINE",
"811 1434 LINE",
"637 543 LINE SMOOTH",
"618 446 OFFCURVE",
"561 401 OFFCURVE",
"438 401 CURVE SMOOTH",
"377 401 OFFCURVE",
"303 406 OFFCURVE",
"236 414 CURVE SMOOTH",
"49 436 LINE",
"174 571 LINE",
"-80 0 LINE",
"-131 113 LINE",
"37 55 LINE SMOOTH",
"164 12 OFFCURVE",
"305 -18 OFFCURVE",
"416 -18 CURVE SMOOTH"
);
}
);
width = 1176;
},
{
anchors = (
{
name = top.case;
position = "{1028, 1475}";
}
);
background = {
paths = (
{
closed = 1;
nodes = (
"696 -20 OFFCURVE",
"897 125 OFFCURVE",
"965 473 CURVE SMOOTH",
"1151 1434 LINE",
"883 1434 LINE",
"698 483 LINE SMOOTH",
"664 311 OFFCURVE",
"551 238 OFFCURVE",
"379 238 CURVE SMOOTH",
"291 238 OFFCURVE",
"227 242 OFFCURVE",
"133 254 CURVE SMOOTH",
"12 268 LINE",
"109 360 LINE",
"-53 0 LINE",
"-86 70 LINE",
"41 29 LINE SMOOTH",
"152 -6 OFFCURVE",
"246 -20 OFFCURVE",
"342 -20 CURVE SMOOTH"
);
}
);
};
layerId = "74CCE9C5-5564-42E0-9214-3BF0725DF94D";
paths = (
{
closed = 1;
nodes = (
"696 -20 OFFCURVE",
"897 125 OFFCURVE",
"965 473 CURVE SMOOTH",
"1151 1434 LINE",
"883 1434 LINE",
"696 473 LINE SMOOTH",
"664 301 OFFCURVE",
"549 227 OFFCURVE",
"377 227 CURVE SMOOTH",
"289 227 OFFCURVE",
"225 233 OFFCURVE",
"131 244 CURVE SMOOTH",
"10 258 LINE",
"109 360 LINE",
"-53 0 LINE",
"-86 70 LINE",
"41 29 LINE SMOOTH",
"152 -6 OFFCURVE",
"246 -20 OFFCURVE",
"342 -20 CURVE SMOOTH"
);
}
);
width = 1107;
}
);
leftKerningGroup = J;
rightKerningGroup = U;
rightMetricsKey = U;
unicode = 004A;
},
{
glyphname = K;
lastChange = "2020-12-22 23:58:30 +0000";
layers = (
{
anchors = (
{
name = bottom;
position = "{604, -72}";
}
);
background = {
anchors = (
{
name = bottom;
position = "{766, -27}";
}
);
paths = (
{
closed = 1;
nodes = (
"1255 -4 LINE",
"676 758 LINE",
"1370 1423 LINE",
"1274 1434 LINE",
"612 793 LINE",
"387 817 LINE",
"379 743 LINE",
"604 721 LINE",
"1155 6 LINE"
);
},
{
closed = 1;
nodes = (
"334 92 LINE",
"483 1518 LINE",
"403 1526 LINE",
"254 100 LINE"
);
}
);
};
layerId = "13A5184A-77A5-4E03-80A5-A9198A2CA35F";
paths = (
{
closed = 1;
nodes = (
"1124 0 LINE",
"600 692 LINE",
"1368 1434 LINE",
"1264 1434 LINE",
"539 727 LINE",
"315 727 LINE",
"301 653 LINE",
"530 653 LINE",
"1032 0 LINE"
);
},
{
closed = 1;
nodes = (
"197 0 LINE",
"475 1434 LINE",
"395 1434 LINE",
"117 0 LINE"
);
}
);
width = 1253;
},
{
anchors = (
{
name = bottom;
position = "{674, -72}";
}
);
background = {
paths = (
{
closed = 1;
nodes = (
"1386 0 LINE",
"1057 729 LINE",
"1640 1434 LINE",
"1116 1434 LINE",
"696 893 LINE",
"483 895 LINE",
"416 557 LINE",
"631 557 LINE",
"883 0 LINE"
);
},
{
closed = 1;
nodes = (
"465 0 LINE",
"743 1434 LINE",
"287 1434 LINE",
"8 0 LINE"
);
}
);
};
guideLines = (
{
position = "{388, 436}";
},
{
position = "{388, 272}";
}
);
layerId = "6D60D92C-1450-4586-BB49-599D0D4C1213";
paths = (
{
closed = 1;
nodes = (
"1386 0 LINE",
"1069 729 LINE",
"1640 1434 LINE",
"1116 1434 LINE",
"713 893 LINE",
"483 895 LINE",
"416 557 LINE",
"647 557 LINE",
"883 0 LINE"
);
},
{
closed = 1;
nodes = (
"465 0 LINE",
"743 1434 LINE",
"287 1434 LINE",
"8 0 LINE"
);
}
);
width = 1511;
},
{
anchors = (
{
name = bottom;
position = "{643, -72}";
}
);
background = {
anchors = (
{
name = bottom;
position = "{698, -59}";
}
);
paths = (
{
closed = 1;
nodes = (
"1264 0 LINE",
"848 731 LINE",
"1507 1434 LINE",
"1184 1434 LINE",
"627 831 LINE",
"418 831 LINE",
"328 596 LINE",
"598 596 LINE",
"922 0 LINE"
);
},
{
closed = 1;
nodes = (
"340 0 LINE",
"618 1434 LINE",
"350 1434 LINE",
"72 0 LINE"
);
}
);
};
layerId = "74CCE9C5-5564-42E0-9214-3BF0725DF94D";
paths = (
{
closed = 1;
nodes = (
"1262 0 LINE",
"846 731 LINE",
"1505 1434 LINE",
"1184 1434 LINE",
"625 831 LINE",
"416 831 LINE",
"324 596 LINE",
"610 596 LINE",
"969 0 LINE"
);
},
{
closed = 1;
nodes = (
"338 0 LINE",
"616 1434 LINE",
"348 1434 LINE",
"70 0 LINE"
);
}
);
width = 1399;
}
);
leftMetricsKey = H;
rightKerningGroup = K;
unicode = 004B;
},
{
color = 4;
glyphname = L;
lastChange = "2020-12-22 23:58:30 +0000";
layers = (
{
anchors = (
{
name = bottom;
position = "{584, -72}";
},
{
name = caron;
position = "{862, 846}";
},
{
name = top.case;
position = "{442, 1475}";
}
);
layerId = "13A5184A-77A5-4E03-80A5-A9198A2CA35F";
paths = (
{
closed = 1;
nodes = (
"1069 0 LINE",
"1083 74 LINE",
"211 74 LINE",
"475 1434 LINE",
"395 1434 LINE",
"117 0 LINE"
);
}
);
width = 1229;
},
{
anchors = (
{
name = bottom;
position = "{571, -72}";
},
{
name = caron;
position = "{1114, 846}";
},
{
name = top.case;
position = "{512, 1475}";
}
);
background = {
paths = (
{
closed = 1;
nodes = (
"1124 0 LINE",
"1202 399 LINE",
"545 399 LINE",
"745 1434 LINE",
"289 1434 LINE",
"10 0 LINE"
);
}
);
};
layerId = "6D60D92C-1450-4586-BB49-599D0D4C1213";
paths = (
{
closed = 1;
nodes = (
"1122 0 LINE",
"1200 399 LINE",
"543 399 LINE",
"743 1434 LINE",
"287 1434 LINE",
"8 0 LINE"
);
}
);
width = 1257;
},
{
anchors = (
{
name = bottom;
position = "{610, -72}";
},
{
name = caron;
position = "{952, 846}";
},
{
name = top.case;
position = "{485, 1475}";
}
);
background = {
paths = (
{
closed = 1;
nodes = (
"1094 0 LINE",
"1139 236 LINE",
"383 236 LINE",
"616 1434 LINE",
"348 1434 LINE",
"70 0 LINE"
);
}
);
};
layerId = "74CCE9C5-5564-42E0-9214-3BF0725DF94D";
paths = (
{
closed = 1;
nodes = (
"1094 0 LINE",
"1139 236 LINE",
"383 236 LINE",
"616 1434 LINE",
"348 1434 LINE",
"70 0 LINE"
);
}
);
width = 1243;
}
);
leftMetricsKey = H;
rightKerningGroup = L;
unicode = 004C;
},
{
color = 3;
glyphname = Lslash;
lastChange = "2020-12-22 23:58:30 +0000";
layers = (
{
background = {
paths = (
{
closed = 1;
nodes = (
"934 733 LINE",
"920 805 LINE",
"72 528 LINE",
"84 455 LINE"
);
},
{
closed = 1;
nodes = (
"1198 0 LINE",
"1212 74 LINE",
"340 74 LINE",
"604 1434 LINE",
"524 1434 LINE",
"246 0 LINE"
);
}
);
};
components = (
{
name = L;
transform = "{1, 0, 0, 1, 129, 0}";
}
);
layerId = "13A5184A-77A5-4E03-80A5-A9198A2CA35F";
paths = (
{
closed = 1;
nodes = (
"938 733 LINE",
"911 807 LINE",
"399 639 LINE",
"381 549 LINE"
);
},
{
closed = 1;
nodes = (
"381 549 LINE",
"399 639 LINE",
"68 530 LINE",
"94 455 LINE"
);
}
);
width = 1358;
},
{
background = {
paths = (
{
closed = 1;
nodes = (
"606 604 LINE",
"1208 854 LINE",
"1151 1073 LINE",
"657 868 LINE"
);
},
{
closed = 1;
nodes = (
"664 899 LINE",
"68 653 LINE",
"125 432 LINE",
"612 635 LINE"
);
},
{
closed = 1;
nodes = (
"1276 0 LINE",
"1358 420 LINE",
"700 420 LINE",
"897 1434 LINE",
"440 1434 LINE",
"162 0 LINE"
);
}
);
};
components = (
{
name = L;
transform = "{1, 0, 0, 1, 152, 0}";
}
);
layerId = "6D60D92C-1450-4586-BB49-599D0D4C1213";
paths = (
{
closed = 1;
nodes = (
"1208 834 LINE",
"1120 1057 LINE",
"657 877 LINE",
"643 612 LINE"
);
},
{
closed = 1;
nodes = (
"580 608 LINE",
"594 872 LINE",
"33 655 LINE",
"121 430 LINE"
);
}
);
width = 1409;
},
{
background = {
paths = (
{
closed = 1;
nodes = (
"465 569 LINE",
"1061 795 LINE",
"1022 958 LINE",
"502 764 LINE"
);
},
{
closed = 1;
nodes = (
"506 784 LINE",
"57 614 LINE",
"98 449 LINE",
"469 590 LINE"
);
},
{
closed = 1;
nodes = (
"1194 0 LINE",
"1243 254 LINE",
"518 254 LINE",
"748 1434 LINE",
"479 1434 LINE",
"201 0 LINE"
);
}
);
};
components = (
{
name = L;
transform = "{1, 0, 0, 1, 131, 0}";
}
);
layerId = "74CCE9C5-5564-42E0-9214-3BF0725DF94D";
paths = (
{
closed = 1;
nodes = (
"1063 786 LINE",
"999 952 LINE",
"510 784 LINE",
"500 590 LINE"
);
},
{
closed = 1;
nodes = (
"502 600 LINE",
"512 795 LINE",
"49 631 LINE",
"113 463 LINE"
);
}
);
width = 1374;
}
);
rightKerningGroup = L;
rightMetricsKey = L;
unicode = 0141;
},
{
glyphname = M;
lastChange = "2020-12-22 23:58:30 +0000";
layers = (
{
background = {
paths = (
{
closed = 1;
nodes = (
"207 0 LINE",
"459 1296 LINE",
"956 473 LINE",
"987 473 LINE",
"1778 1288 LINE",
"1528 0 LINE",
"1608 0 LINE",
"1886 1434 LINE",
"1825 1434 LINE",
"983 573 LINE",
"981 573 LINE",
"467 1434 LINE",
"406 1434 LINE",
"127 0 LINE"
);
}
);
};
layerId = "13A5184A-77A5-4E03-80A5-A9198A2CA35F";
paths = (
{
closed = 1;
nodes = (
"197 0 LINE",
"449 1303 LINE",
"946 473 LINE",
"977 473 LINE",
"1769 1296 LINE",
"1518 0 LINE",
"1597 0 LINE",
"1876 1434 LINE",
"1808 1434 LINE",
"973 573 LINE",
"971 573 LINE",
"461 1434 LINE",
"395 1434 LINE",
"117 0 LINE"
);
}
);
width = 1910;
},
{
background = {
paths = (
{
closed = 1;
nodes = (
"514 76 LINE",
"598 768 LINE",
"780 360 LINE",
"1083 326 LINE",
"1360 674 LINE",
"1272 -18 LINE",
"1716 -72 LINE",
"1892 1352 LINE",
"1464 1403 LINE",
"989 803 LINE",
"985 803 LINE",
"672 1501 LINE",
"246 1554 LINE",
"70 131 LINE"
);
}
);
};
guideLines = (
{
angle = 79;
position = "{304, 422}";
},
{
angle = 79;
position = "{682, 441}";
},
{
position = "{728, 349}";
}
);
layerId = "6D60D92C-1450-4586-BB49-599D0D4C1213";
paths = (
{
closed = 1;
nodes = (
"455 0 LINE",
"594 715 LINE",
"748 315 LINE",
"1063 315 LINE",
"1358 696 LINE",
"1221 0 LINE",
"1667 0 LINE",
"1946 1434 LINE",
"1509 1434 LINE",
"979 776 LINE",
"975 776 LINE",
"717 1434 LINE",
"287 1434 LINE",
"8 0 LINE"
);
}
);
width = 1884;
},
{
associatedMasterId = "6D60D92C-1450-4586-BB49-599D0D4C1213";
background = {
paths = (
{
closed = 1;
nodes = (
"524 45 LINE",
"590 786 LINE",
"911 395 LINE",
"926 395 LINE",
"1311 723 LINE",
"1247 -18 LINE",
"1702 -57 LINE",
"1827 1370 LINE",
"1450 1403 LINE",
"973 991 LINE",
"969 991 LINE",
"571 1481 LINE",
"205 1511 LINE",
"80 84 LINE"
);
}
);
};
layerId = "0118A8E5-585C-4363-8704-53B43E3C9E6D";
name = "May 9 18, 08:31";
paths = (
{
closed = 1;
nodes = (
"455 0 LINE",
"600 752 LINE",
"883 383 LINE",
"897 383 LINE",
"1325 743 LINE",
"1180 0 LINE",
"1636 0 LINE",
"1915 1434 LINE",
"1516 1434 LINE",
"971 979 LINE",
"965 979 LINE",
"635 1434 LINE",
"287 1434 LINE",
"8 0 LINE"
);
}
);
width = 1853;
},
{
background = {
paths = (
{
closed = 1;
nodes = (
"332 0 LINE",
"522 977 LINE",
"782 360 LINE",
"977 360 LINE",
"1499 956 LINE",
"1315 0 LINE",
"1577 0 LINE",
"1855 1434 LINE",
"1583 1434 LINE",
"922 672 LINE",
"918 672 LINE",
"594 1434 LINE",
"348 1434 LINE",
"70 0 LINE"
);
}
);
};
guideLines = (
{
position = "{659, 477}";
},
{
position = "{642, 320}";
}
);
layerId = "74CCE9C5-5564-42E0-9214-3BF0725DF94D";
paths = (
{
closed = 1;
nodes = (
"332 0 LINE",
"522 977 LINE",
"782 360 LINE",
"977 360 LINE",
"1505 977 LINE",
"1315 0 LINE",
"1583 0 LINE",
"1862 1434 LINE",
"1583 1434 LINE",
"922 655 LINE",
"918 655 LINE",
"594 1434 LINE",
"348 1434 LINE",
"70 0 LINE"
);
}
);
width = 1853;
}
);
leftMetricsKey = H;
rightMetricsKey = H;
unicode = 004D;
},
{
glyphname = N;
lastChange = "2020-12-22 23:58:30 +0000";
layers = (
{
anchors = (
{
name = bottom;
position = "{711, -72}";
},
{
name = top.case;
position = "{1004, 1475}";
}
);
background = {
anchors = (
{
name = bottom;
position = "{754, -63}";
},
{
name = top.case;
position = "{958, 1470}";
}
);
paths = (
{
closed = 1;
nodes = (
"225 125 LINE",
"381 1421 LINE",
"385 1421 LINE",
"1268 2 LINE",
"1335 -10 LINE",
"1509 1415 LINE",
"1430 1425 LINE",
"1276 137 LINE",
"1272 139 LINE",
"393 1552 LINE",
"317 1563 LINE",
"143 137 LINE"
);
}
);
};
layerId = "13A5184A-77A5-4E03-80A5-A9198A2CA35F";
paths = (
{
closed = 1;
nodes = (
"197 0 LINE",
"449 1296 LINE",
"455 1296 LINE",
"1257 0 LINE",
"1319 0 LINE",
"1597 1434 LINE",
"1518 1434 LINE",
"1264 139 LINE",
"1260 139 LINE",
"457 1434 LINE",
"395 1434 LINE",
"117 0 LINE"
);
}
);
width = 1632;
},
{
anchors = (
{
name = bottom;
position = "{733, -72}";
},
{
name = top.case;
position = "{954, 1475}";
}
);
background = {
anchors = (
{
name = bottom;
position = "{782, -76}";
},
{
name = top.case;
position = "{909, 1464}";
}
);
paths = (
{
closed = 1;
nodes = (
"528 25 LINE",
"600 711 LINE",
"604 711 LINE",
"1040 -31 LINE",
"1432 -72 LINE",
"1583 1354 LINE",
"1133 1401 LINE",
"1065 731 LINE",
"1061 731 LINE",
"633 1454 LINE",
"229 1497 LINE",
"78 72 LINE"
);
}
);
};
layerId = "6D60D92C-1450-4586-BB49-599D0D4C1213";
paths = (
{
closed = 1;
nodes = (
"461 0 LINE",
"596 700 LINE",
"600 700 LINE",
"1020 0 LINE",
"1370 0 LINE",
"1649 1434 LINE",
"1196 1434 LINE",
"1061 752 LINE",
"1057 752 LINE",
"643 1434 LINE",
"287 1434 LINE",
"8 0 LINE"
);
}
);
width = 1587;
},
{
anchors = (
{
name = bottom;
position = "{705, -72}";
},
{
name = top.case;
position = "{950, 1475}";
}
);
background = {
anchors = (
{
name = bottom;
position = "{776, -72}";
},
{
name = top.case;
position = "{903, 1470}";
}
);
paths = (
{
closed = 1;
nodes = (
"410 43 LINE",
"510 1004 LINE",
"514 1001 LINE",
"1169 -41 LINE",
"1370 -61 LINE",
"1524 1366 LINE",
"1257 1391 LINE",
"1159 471 LINE",
"1155 473 LINE",
"526 1470 LINE",
"297 1495 LINE",
"143 68 LINE"
);
}
);
};
layerId = "74CCE9C5-5564-42E0-9214-3BF0725DF94D";
paths = (
{
closed = 1;
nodes = (
"336 0 LINE",
"526 973 LINE",
"530 973 LINE",
"1135 0 LINE",
"1303 0 LINE",
"1581 1434 LINE",
"1315 1434 LINE",
"1135 502 LINE",
"1130 502 LINE",
"547 1434 LINE",
"348 1434 LINE",
"70 0 LINE"
);
}
);
width = 1573;
}
);
leftMetricsKey = H;
rightMetricsKey = H;
unicode = 004E;
},
{
color = 3;
glyphname = Eng;
lastChange = "2020-12-22 23:58:30 +0000";
layers = (
{
background = {
paths = (
{
closed = 1;
nodes = (
"199 0 LINE",
"451 1294 LINE",
"455 1294 LINE",
"1257 25 LINE",
"1319 0 LINE",
"1597 1434 LINE",
"1518 1434 LINE",
"1268 160 LINE",
"1264 160 LINE",
"457 1434 LINE",
"395 1434 LINE",
"117 0 LINE"
);
},
{
closed = 1;
nodes = (
"760 -393 LINE",
"852 -414 LINE SMOOTH",
"895 -422 OFFCURVE",
"934 -428 OFFCURVE",
"989 -428 CURVE SMOOTH",
"1147 -428 OFFCURVE",
"1245 -367 OFFCURVE",
"1272 -238 CURVE SMOOTH",
"1331 63 LINE",
"1251 63 LINE",
"1194 -238 LINE SMOOTH",
"1178 -319 OFFCURVE",
"1108 -358 OFFCURVE",
"1001 -358 CURVE SMOOTH",
"963 -358 OFFCURVE",
"915 -354 OFFCURVE",
"866 -350 CURVE SMOOTH",
"766 -340 LINE",
"829 -315 LINE",
"793 -432 LINE"
);
}
);
};
layerId = "13A5184A-77A5-4E03-80A5-A9198A2CA35F";
paths = (
{
closed = 1;
nodes = (
"197 0 LINE",
"449 1294 LINE",
"455 1294 LINE",
"1257 25 LINE",
"1319 0 LINE",
"1597 1434 LINE",
"1520 1434 LINE",
"1270 160 LINE",
"1264 160 LINE",
"457 1434 LINE",
"395 1434 LINE",
"117 0 LINE"
);
},
{
closed = 1;
nodes = (
"760 -393 LINE",
"852 -414 LINE SMOOTH",
"895 -422 OFFCURVE",
"934 -428 OFFCURVE",
"989 -428 CURVE SMOOTH",
"1147 -428 OFFCURVE",
"1245 -367 OFFCURVE",
"1272 -238 CURVE SMOOTH",
"1331 63 LINE",
"1251 63 LINE",
"1194 -238 LINE SMOOTH",
"1178 -319 OFFCURVE",
"1108 -358 OFFCURVE",
"1001 -358 CURVE SMOOTH",
"963 -358 OFFCURVE",
"915 -354 OFFCURVE",
"866 -350 CURVE SMOOTH",
"766 -340 LINE",
"829 -315 LINE",
"793 -432 LINE"
);
}
);
width = 1632;
},
{
background = {
paths = (
{
closed = 1;
nodes = (
"463 0 LINE",
"598 690 LINE",
"602 690 LINE",
"985 41 LINE",
"1372 0 LINE",
"1651 1434 LINE",
"1198 1434 LINE",
"1075 801 LINE",
"1071 801 LINE",
"696 1434 LINE",
"289 1434 LINE",
"10 0 LINE"
);
},
{
closed = 1;
nodes = (
"528 -358 LINE",
"664 -393 LINE SMOOTH",
"743 -414 OFFCURVE",
"825 -428 OFFCURVE",
"918 -428 CURVE SMOOTH",
"1149 -428 OFFCURVE",
"1317 -293 OFFCURVE",
"1364 -49 CURVE SMOOTH",
"1434 313 LINE",
"1034 313 LINE",
"973 -2 LINE SMOOTH",
"961 -61 OFFCURVE",
"918 -80 OFFCURVE",
"854 -80 CURVE SMOOTH",
"817 -80 OFFCURVE",
"784 -78 OFFCURVE",
"758 -74 CURVE SMOOTH",
"678 -63 LINE",
"748 -25 LINE",
"592 -444 LINE"
);
}
);
};
layerId = "6D60D92C-1450-4586-BB49-599D0D4C1213";
paths = (
{
closed = 1;
nodes = (
"461 0 LINE",
"596 700 LINE",
"600 700 LINE",
"1020 0 LINE",
"1370 0 LINE",
"1649 1434 LINE",
"1196 1434 LINE",
"1061 752 LINE",
"1057 752 LINE",
"643 1434 LINE",
"287 1434 LINE",
"8 0 LINE"
);
},
{
closed = 1;
nodes = (
"528 -350 LINE",
"655 -385 LINE SMOOTH",
"731 -406 OFFCURVE",
"848 -428 OFFCURVE",
"911 -428 CURVE SMOOTH",
"1157 -428 OFFCURVE",
"1315 -305 OFFCURVE",
"1358 -76 CURVE SMOOTH",
"1421 256 LINE",
"1022 256 LINE",
"971 -2 LINE SMOOTH",
"958 -61 OFFCURVE",
"913 -80 OFFCURVE",
"838 -80 CURVE SMOOTH",
"813 -80 OFFCURVE",
"782 -78 OFFCURVE",
"756 -76 CURVE SMOOTH",
"676 -68 LINE",
"745 -25 LINE",
"590 -444 LINE"
);
}
);
width = 1589;
},
{
background = {
paths = (
{
closed = 0;
nodes = (
"530 1462 LINE",
"1135 516 LINE"
);
},
{
closed = 1;
nodes = (
"623 -369 LINE",
"729 -399 LINE SMOOTH",
"788 -416 OFFCURVE",
"846 -428 OFFCURVE",
"895 -428 CURVE SMOOTH",
"1112 -428 OFFCURVE",
"1239 -330 OFFCURVE",
"1276 -139 CURVE SMOOTH",
"1325 113 LINE",
"1067 113 LINE",
"1026 -92 LINE SMOOTH",
"1012 -162 OFFCURVE",
"967 -190 OFFCURVE",
"883 -190 CURVE SMOOTH",
"856 -190 OFFCURVE",
"819 -188 OFFCURVE",
"793 -186 CURVE SMOOTH",
"702 -178 LINE",
"784 -121 LINE",
"668 -438 LINE"
);
}
);
};
layerId = "74CCE9C5-5564-42E0-9214-3BF0725DF94D";
paths = (
{
closed = 1;
nodes = (
"336 0 LINE",
"526 973 LINE",
"530 973 LINE",
"1135 27 LINE",
"1303 0 LINE",
"1581 1434 LINE",
"1315 1434 LINE",
"1139 516 LINE",
"1135 516 LINE",
"547 1434 LINE",
"348 1434 LINE",
"70 0 LINE"
);
},
{
closed = 1;
nodes = (
"627 -371 LINE",
"748 -401 LINE SMOOTH",
"813 -418 OFFCURVE",
"883 -428 OFFCURVE",
"940 -428 CURVE SMOOTH",
"1114 -428 OFFCURVE",
"1237 -348 OFFCURVE",
"1276 -139 CURVE SMOOTH",
"1333 152 LINE",
"1073 152 LINE",
"1026 -92 LINE SMOOTH",
"1012 -170 OFFCURVE",
"969 -190 OFFCURVE",
"879 -190 CURVE SMOOTH",
"852 -190 OFFCURVE",
"815 -188 OFFCURVE",
"791 -186 CURVE SMOOTH",
"700 -178 LINE",
"772 -119 LINE",
"676 -438 LINE"
);
}
);
width = 1574;
}
);
leftMetricsKey = N;
rightMetricsKey = N;
unicode = 014A;
},
{
color = 3;
glyphname = Nhookleft;
lastChange = "2020-12-22 23:58:30 +0000";
layers = (
{
background = {
paths = (
{
closed = 1;
nodes = (
"-313 -393 LINE",
"-233 -414 LINE SMOOTH",
"-198 -422 OFFCURVE",
"-159 -428 OFFCURVE",
"-131 -428 CURVE SMOOTH",
"29 -428 OFFCURVE",
"101 -373 OFFCURVE",
"127 -240 CURVE SMOOTH",
"426 1305 LINE",
"430 1305 LINE",
"1227 0 LINE",
"1295 0 LINE",
"1573 1434 LINE",
"1493 1434 LINE",
"1241 137 LINE",
"1237 137 LINE",
"443 1434 LINE",
"371 1434 LINE",
"47 -238 LINE SMOOTH",
"31 -324 OFFCURVE",
"-14 -358 OFFCURVE",
"-108 -358 CURVE SMOOTH",
"-139 -358 OFFCURVE",
"-176 -354 OFFCURVE",
"-217 -350 CURVE SMOOTH",
"-270 -344 LINE",
"-249 -315 LINE",
"-286 -432 LINE"
);
}
);
};
layerId = "13A5184A-77A5-4E03-80A5-A9198A2CA35F";
paths = (
{
closed = 1;
nodes = (
"-303 -393 LINE",
"-225 -414 LINE SMOOTH",
"-190 -422 OFFCURVE",
"-157 -428 OFFCURVE",
"-110 -428 CURVE SMOOTH",
"23 -428 OFFCURVE",
"101 -367 OFFCURVE",
"127 -238 CURVE SMOOTH",
"426 1296 LINE",
"430 1296 LINE",
"1233 0 LINE",
"1295 0 LINE",
"1573 1434 LINE",
"1495 1434 LINE",
"1241 139 LINE",
"1235 139 LINE",
"433 1434 LINE",
"371 1434 LINE",
"47 -238 LINE SMOOTH",
"33 -317 OFFCURVE",
"-18 -358 OFFCURVE",
"-102 -358 CURVE SMOOTH",
"-133 -358 OFFCURVE",
"-170 -354 OFFCURVE",
"-209 -350 CURVE SMOOTH",
"-288 -340 LINE",
"-237 -315 LINE",
"-276 -432 LINE"
);
}
);
width = 1608;
},
{
background = {
paths = (
{
closed = 1;
nodes = (
"-393 -358 LINE",
"-247 -393 LINE SMOOTH",
"-161 -414 OFFCURVE",
"-75 -428 OFFCURVE",
"25 -428 CURVE SMOOTH",
"271 -428 OFFCURVE",
"449 -293 OFFCURVE",
"496 -49 CURVE SMOOTH",
"639 690 LINE",
"644 690 LINE",
"1018 0 LINE",
"1414 0 LINE",
"1692 1434 LINE",
"1239 1434 LINE",
"1108 760 LINE",
"1104 760 LINE",
"738 1434 LINE",
"330 1434 LINE",
"52 -2 LINE SMOOTH",
"39 -61 OFFCURVE",
"-4 -80 OFFCURVE",
"-67 -80 CURVE SMOOTH",
"-104 -80 OFFCURVE",
"-137 -78 OFFCURVE",
"-163 -74 CURVE SMOOTH",
"-243 -63 LINE",
"-174 -25 LINE",
"-329 -444 LINE"
);
}
);
};
layerId = "6D60D92C-1450-4586-BB49-599D0D4C1213";
paths = (
{
closed = 1;
nodes = (
"-378 -350 LINE",
"-247 -389 LINE SMOOTH",
"-168 -414 OFFCURVE",
"-43 -428 OFFCURVE",
"23 -428 CURVE SMOOTH",
"285 -428 OFFCURVE",
"447 -303 OFFCURVE",
"494 -57 CURVE SMOOTH",
"641 700 LINE",
"646 700 LINE",
"1065 0 LINE",
"1416 0 LINE",
"1694 1434 LINE",
"1242 1434 LINE",
"1106 752 LINE",
"1102 752 LINE",
"689 1434 LINE",
"332 1434 LINE",
"52 -2 LINE SMOOTH",
"39 -61 OFFCURVE",
"2 -80 OFFCURVE",
"-65 -80 CURVE SMOOTH",
"-86 -80 OFFCURVE",
"-114 -78 OFFCURVE",
"-137 -76 CURVE SMOOTH",
"-208 -68 LINE",
"-174 -25 LINE",
"-329 -444 LINE"
);
}
);
width = 1632;
},
{
background = {
paths = (
{
closed = 1;
nodes = (
"-313 -369 LINE",
"-217 -399 LINE SMOOTH",
"-161 -416 OFFCURVE",
"-106 -428 OFFCURVE",
"-61 -428 CURVE SMOOTH",
"138 -428 OFFCURVE",
"254 -330 OFFCURVE",
"291 -139 CURVE SMOOTH",
"506 967 LINE",
"510 967 LINE",
"1080 0 LINE",
"1284 0 LINE",
"1563 1434 LINE",
"1297 1434 LINE",
"1117 508 LINE",
"1112 508 LINE",
"564 1434 LINE",
"330 1434 LINE",
"35 -92 LINE SMOOTH",
"21 -162 OFFCURVE",
"-18 -190 OFFCURVE",
"-86 -190 CURVE SMOOTH",
"-108 -190 OFFCURVE",
"-139 -188 OFFCURVE",
"-155 -186 CURVE SMOOTH",
"-231 -178 LINE",
"-159 -121 LINE",
"-272 -438 LINE"
);
}
);
};
layerId = "74CCE9C5-5564-42E0-9214-3BF0725DF94D";
paths = (
{
closed = 1;
nodes = (
"-313 -369 LINE",
"-200 -399 LINE SMOOTH",
"-139 -416 OFFCURVE",
"-75 -428 OFFCURVE",
"-22 -428 CURVE SMOOTH",
"138 -428 OFFCURVE",
"250 -354 OFFCURVE",
"287 -166 CURVE SMOOTH",
"508 973 LINE",
"512 973 LINE",
"1117 0 LINE",
"1284 0 LINE",
"1563 1434 LINE",
"1297 1434 LINE",
"1117 502 LINE",
"1112 502 LINE",
"529 1434 LINE",
"330 1434 LINE",
"33 -92 LINE SMOOTH",
"19 -168 OFFCURVE",
"-14 -186 OFFCURVE",
"-86 -186 CURVE SMOOTH",
"-108 -186 OFFCURVE",
"-139 -184 OFFCURVE",
"-157 -182 CURVE SMOOTH",
"-231 -176 LINE",
"-172 -119 LINE",
"-268 -438 LINE"
);
}
);
width = 1554;
}
);
leftKerningGroup = j;
leftMetricsKey = "=j+15";
rightMetricsKey = N;
unicode = 019D;
},
{
color = 4;
glyphname = O;
lastChange = "2020-12-22 23:58:30 +0000";
layers = (
{
anchors = (
{
name = bottom;
position = "{723, -72}";
},
{
name = ogonek;
position = "{825, 20}";
},
{
name = top.case;
position = "{1042, 1475}";
}
);
background = {
paths = (
{
closed = 1;
nodes = (
"1174 -20 OFFCURVE",
"1501 260 OFFCURVE",
"1585 694 CURVE SMOOTH",
"1671 1128 OFFCURVE",
"1444 1454 OFFCURVE",
"1018 1454 CURVE SMOOTH",
"608 1454 OFFCURVE",
"274 1167 OFFCURVE",
"190 739 CURVE SMOOTH",
"104 301 OFFCURVE",
"326 -20 OFFCURVE",
"748 -20 CURVE SMOOTH"
);
},
{
closed = 1;
nodes = (
"391 53 OFFCURVE",
"195 330 OFFCURVE",
"274 739 CURVE SMOOTH",
"348 1122 OFFCURVE",
"657 1380 OFFCURVE",
"1016 1380 CURVE SMOOTH",
"1391 1380 OFFCURVE",
"1575 1085 OFFCURVE",
"1501 694 CURVE SMOOTH",
"1427 311 OFFCURVE",
"1120 53 OFFCURVE",
"758 53 CURVE SMOOTH"
);
}
);
};
guideLines = (
{
angle = 79;
position = "{23, 52}";
},
{
angle = 79;
position = "{63, 44}";
},
{
angle = 79;
position = "{707, 44}";
},
{
angle = 79;
position = "{666, 44}";
}
);
layerId = "13A5184A-77A5-4E03-80A5-A9198A2CA35F";
paths = (
{
closed = 1;
nodes = (
"1163 -20 OFFCURVE",
"1491 260 OFFCURVE",
"1575 694 CURVE SMOOTH",
"1661 1128 OFFCURVE",
"1434 1454 OFFCURVE",
"1008 1454 CURVE SMOOTH",
"598 1454 OFFCURVE",
"264 1167 OFFCURVE",
"180 739 CURVE SMOOTH",
"94 301 OFFCURVE",
"315 -20 OFFCURVE",
"737 -20 CURVE SMOOTH"
);
},
{
closed = 1;
nodes = (
"381 53 OFFCURVE",
"184 330 OFFCURVE",
"264 739 CURVE SMOOTH",
"338 1122 OFFCURVE",
"647 1380 OFFCURVE",
"1006 1380 CURVE SMOOTH",
"1386 1380 OFFCURVE",
"1567 1092 OFFCURVE",
"1491 694 CURVE SMOOTH",
"1417 311 OFFCURVE",
"1110 53 OFFCURVE",
"748 53 CURVE SMOOTH"
);
}
);
width = 1671;
},
{
anchors = (
{
name = bottom;
position = "{711, -72}";
},
{
name = ogonek;
position = "{915, 20}";
},
{
name = top.case;
position = "{995, 1475}";
}
);
background = {
paths = (
{
closed = 0;
nodes = (
"117 782 LINE SMOOTH",
"29 336 OFFCURVE",
"262 -18 OFFCURVE",
"735 -18 CURVE SMOOTH",
"1192 -18 OFFCURVE",
"1520 203 OFFCURVE",
"1610 659 CURVE SMOOTH"
);
},
{
closed = 0;
nodes = (
"1153 698 LINE SMOOTH",
"1106 461 OFFCURVE",
"995 401 OFFCURVE",
"811 401 CURVE SMOOTH",
"612 401 OFFCURVE",
"524 498 OFFCURVE",
"571 735 CURVE SMOOTH"
);
}
);
};
guideLines = (
{
angle = 79;
position = "{107, 636}";
},
{
angle = 79;
position = "{848, 636}";
},
{
angle = 79;
position = "{331, 619}";
},
{
angle = 79;
position = "{612, 592}";
}
);
layerId = "6D60D92C-1450-4586-BB49-599D0D4C1213";
paths = (
{
closed = 1;
nodes = (
"1194 -18 OFFCURVE",
"1520 195 OFFCURVE",
"1610 651 CURVE SMOOTH",
"1698 1098 OFFCURVE",
"1464 1452 OFFCURVE",
"991 1452 CURVE SMOOTH",
"535 1452 OFFCURVE",
"207 1231 OFFCURVE",
"117 774 CURVE SMOOTH",
"29 328 OFFCURVE",
"264 -18 OFFCURVE",
"737 -18 CURVE SMOOTH"
);
},
{
closed = 1;
nodes = (
"614 406 OFFCURVE",
"530 498 OFFCURVE",
"578 735 CURVE SMOOTH",
"625 973 OFFCURVE",
"731 1028 OFFCURVE",
"915 1028 CURVE SMOOTH",
"1114 1028 OFFCURVE",
"1198 936 OFFCURVE",
"1151 698 CURVE SMOOTH",
"1104 461 OFFCURVE",
"997 406 OFFCURVE",
"813 406 CURVE SMOOTH"
);
}
);
width = 1659;
},
{
anchors = (
{
name = bottom;
position = "{748, -72}";
},
{
name = ogonek;
position = "{881, 20}";
},
{
name = top.case;
position = "{1001, 1475}";
}
);
background = {
paths = (
{
closed = 1;
nodes = (
"1163 -20 OFFCURVE",
"1518 279 OFFCURVE",
"1604 717 CURVE SMOOTH",
"1690 1155 OFFCURVE",
"1460 1454 OFFCURVE",
"1016 1454 CURVE SMOOTH",
"584 1454 OFFCURVE",
"229 1157 OFFCURVE",
"143 719 CURVE SMOOTH",
"57 279 OFFCURVE",
"287 -20 OFFCURVE",
"729 -20 CURVE SMOOTH"
);
},
{
closed = 1;
nodes = (
"504 227 OFFCURVE",
"356 401 OFFCURVE",
"418 717 CURVE SMOOTH",
"479 1034 OFFCURVE",
"696 1206 OFFCURVE",
"967 1206 CURVE SMOOTH",
"1243 1206 OFFCURVE",
"1391 1034 OFFCURVE",
"1329 719 CURVE SMOOTH",
"1268 401 OFFCURVE",
"1051 227 OFFCURVE",
"778 227 CURVE SMOOTH"
);
}
);
};
guideLines = (
{
angle = 79;
position = "{130, 668}";
},
{
angle = 79;
position = "{248, 583}";
},
{
angle = 79;
position = "{698, 760}";
},
{
angle = 79;
position = "{812, 656}";
},
{
angle = 79;
position = "{421, 250}";
},
{
position = "{276, 590}";
}
);
layerId = "74CCE9C5-5564-42E0-9214-3BF0725DF94D";
paths = (
{
closed = 1;
nodes = (
"1223 -20 OFFCURVE",
"1509 266 OFFCURVE",
"1591 668 CURVE SMOOTH",
"1690 1133 OFFCURVE",
"1436 1454 OFFCURVE",
"997 1454 CURVE SMOOTH",
"518 1454 OFFCURVE",
"231 1165 OFFCURVE",
"150 764 CURVE SMOOTH",
"55 299 OFFCURVE",
"305 -20 OFFCURVE",
"758 -20 CURVE SMOOTH"
);
},
{
closed = 1;
nodes = (
"500 227 OFFCURVE",
"350 397 OFFCURVE",
"420 737 CURVE SMOOTH",
"477 1018 OFFCURVE",
"645 1206 OFFCURVE",
"967 1206 CURVE SMOOTH",
"1239 1206 OFFCURVE",
"1395 1036 OFFCURVE",
"1323 696 CURVE SMOOTH",
"1266 416 OFFCURVE",
"1098 227 OFFCURVE",
"776 227 CURVE SMOOTH"
);
}
);
width = 1665;
},
{
anchors = (
{
name = bottom;
position = "{690, -72}";
},
{
name = ogonek;
position = "{797, 20}";
},
{
name = top.case;
position = "{989, 1475}";
}
);
associatedMasterId = "74CCE9C5-5564-42E0-9214-3BF0725DF94D";
background = {
paths = (
{
closed = 1;
nodes = (
"1180 -20 OFFCURVE",
"1470 268 OFFCURVE",
"1550 670 CURVE SMOOTH",
"1647 1161 OFFCURVE",
"1389 1454 OFFCURVE",
"983 1454 CURVE SMOOTH",
"575 1454 OFFCURVE",
"256 1217 OFFCURVE",
"168 766 CURVE SMOOTH",
"78 303 OFFCURVE",
"305 -20 OFFCURVE",
"731 -20 CURVE SMOOTH"
);
},
{
closed = 1;
nodes = (
"514 238 OFFCURVE",
"375 403 OFFCURVE",
"438 737 CURVE SMOOTH",
"496 1034 OFFCURVE",
"676 1196 OFFCURVE",
"948 1196 CURVE SMOOTH",
"1200 1196 OFFCURVE",
"1346 1030 OFFCURVE",
"1280 696 CURVE SMOOTH",
"1227 422 OFFCURVE",
"1069 238 OFFCURVE",
"766 238 CURVE SMOOTH"
);
}
);
};
guideLines = (
{
angle = 79;
position = "{139, 668}";
},
{
angle = 79;
position = "{257, 583}";
},
{
angle = 79;
position = "{707, 760}";
},
{
angle = 79;
position = "{821, 656}";
},
{
angle = 79;
position = "{393, 250}";
}
);
layerId = "900372FE-1004-4C74-8D0F-10A4560C49DC";
name = "Jun 17 18, 19:38";
paths = (
{
closed = 1;
nodes = (
"1194 -20 OFFCURVE",
"1470 266 OFFCURVE",
"1550 668 CURVE SMOOTH",
"1640 1133 OFFCURVE",
"1403 1454 OFFCURVE",
"973 1454 CURVE SMOOTH",
"524 1454 OFFCURVE",
"248 1165 OFFCURVE",
"168 764 CURVE SMOOTH",
"78 299 OFFCURVE",
"315 -20 OFFCURVE",
"745 -20 CURVE SMOOTH"
);
},
{
closed = 1;
nodes = (
"514 238 OFFCURVE",
"375 403 OFFCURVE",
"438 737 CURVE SMOOTH",
"492 1012 OFFCURVE",
"649 1196 OFFCURVE",
"952 1196 CURVE SMOOTH",
"1204 1196 OFFCURVE",
"1343 1030 OFFCURVE",
"1280 696 CURVE SMOOTH",
"1227 422 OFFCURVE",
"1069 238 OFFCURVE",
"766 238 CURVE SMOOTH"
);
}
);
width = 1640;
},
{
anchors = (
{
name = bottom;
position = "{690, -72}";
},
{
name = ogonek;
position = "{797, 20}";
},
{
name = top.case;
position = "{989, 1475}";
}
);
associatedMasterId = "74CCE9C5-5564-42E0-9214-3BF0725DF94D";
background = {
paths = (
{
closed = 1;
nodes = (
"1180 -20 OFFCURVE",
"1470 268 OFFCURVE",
"1550 670 CURVE SMOOTH",
"1647 1161 OFFCURVE",
"1389 1454 OFFCURVE",
"983 1454 CURVE SMOOTH",
"575 1454 OFFCURVE",
"256 1217 OFFCURVE",
"168 766 CURVE SMOOTH",
"78 303 OFFCURVE",
"305 -20 OFFCURVE",
"731 -20 CURVE SMOOTH"
);
},
{
closed = 1;
nodes = (
"514 238 OFFCURVE",
"375 403 OFFCURVE",
"438 737 CURVE SMOOTH",
"496 1034 OFFCURVE",
"676 1196 OFFCURVE",
"948 1196 CURVE SMOOTH",
"1200 1196 OFFCURVE",
"1346 1030 OFFCURVE",
"1280 696 CURVE SMOOTH",
"1227 422 OFFCURVE",
"1069 238 OFFCURVE",
"766 238 CURVE SMOOTH"
);
}
);
};
guideLines = (
{
angle = 79;
position = "{139, 668}";
},
{
angle = 79;
position = "{257, 583}";
},
{
angle = 79;
position = "{707, 760}";
},
{
angle = 79;
position = "{821, 656}";
},
{
angle = 79;
position = "{393, 250}";
}
);
layerId = "100C6CC0-6A46-4C3D-9933-D150D44CE7EB";
name = "Jun 17 18, 19:42";
paths = (
{
closed = 1;
nodes = (
"1194 -20 OFFCURVE",
"1466 236 OFFCURVE",
"1544 637 CURVE SMOOTH",
"1634 1102 OFFCURVE",
"1403 1454 OFFCURVE",
"973 1454 CURVE SMOOTH",
"524 1454 OFFCURVE",
"252 1186 OFFCURVE",
"172 784 CURVE SMOOTH",
"82 319 OFFCURVE",
"315 -20 OFFCURVE",
"745 -20 CURVE SMOOTH"
);
},
{
closed = 1;
nodes = (
"514 238 OFFCURVE",
"379 424 OFFCURVE",
"442 758 CURVE SMOOTH",
"496 1032 OFFCURVE",
"649 1196 OFFCURVE",
"952 1196 CURVE SMOOTH",
"1204 1196 OFFCURVE",
"1339 997 OFFCURVE",
"1274 664 CURVE SMOOTH",
"1221 389 OFFCURVE",
"1069 238 OFFCURVE",
"766 238 CURVE SMOOTH"
);
}
);
width = 1640;
}
);
leftKerningGroup = O;
rightKerningGroup = O;
unicode = 004F;
},
{
glyphname = Ohorn;
lastChange = "2020-12-22 23:58:30 +0000";
layers = (
{
anchors = (
{
name = bottom;
position = "{723, -72}";
},
{
name = ogonek;
position = "{825, 20}";
},
{
name = top.case;
position = "{1042, 1475}";
}
);
components = (
{
name = O;
}
);
layerId = "13A5184A-77A5-4E03-80A5-A9198A2CA35F";
paths = (
{
closed = 1;
nodes = (
"1722 1327 OFFCURVE",
"1823 1403 OFFCURVE",
"1858 1579 CURVE SMOOTH",
"1872 1651 OFFCURVE",
"1860 1729 OFFCURVE",
"1829 1808 CURVE",
"1956 1772 LINE",
"1690 1718 LINE",
"1800 1798 LINE",
"1796 1712 OFFCURVE",
"1794 1634 OFFCURVE",
"1784 1577 CURVE SMOOTH",
"1757 1423 OFFCURVE",
"1649 1393 OFFCURVE",
"1513 1393 CURVE SMOOTH",
"1368 1393 OFFCURVE",
"1178 1454 OFFCURVE",
"1030 1454 CURVE",
"1360 1352 LINE",
"1427 1339 OFFCURVE",
"1487 1331 OFFCURVE",
"1538 1331 CURVE SMOOTH"
);
}
);
width = 1669;
},
{
anchors = (
{
name = bottom;
position = "{690, -72}";
},
{
name = ogonek;
position = "{797, 20}";
},
{
name = top.case;
position = "{989, 1475}";
}
);
background = {
paths = (
{
closed = 1;
nodes = (
"1731 1204 OFFCURVE",
"1839 1298 OFFCURVE",
"1843 1507 CURVE SMOOTH",
"1845 1626 OFFCURVE",
"1790 1772 OFFCURVE",
"1710 1896 CURVE",
"1907 1831 LINE",
"1491 1743 LINE",
"1567 1815 LINE",
"1581 1724 OFFCURVE",
"1591 1642 OFFCURVE",
"1591 1581 CURVE SMOOTH",
"1591 1421 OFFCURVE",
"1522 1399 OFFCURVE",
"1417 1399 CURVE SMOOTH",
"1290 1399 OFFCURVE",
"1112 1454 OFFCURVE",
"948 1454 CURVE",
"1380 1231 LINE",
"1432 1214 OFFCURVE",
"1491 1204 OFFCURVE",
"1548 1204 CURVE SMOOTH"
);
}
);
};
components = (
{
alignment = -1;
name = O;
}
);
layerId = "74CCE9C5-5564-42E0-9214-3BF0725DF94D";
paths = (
{
closed = 1;
nodes = (
"1724 1204 OFFCURVE",
"1821 1294 OFFCURVE",
"1860 1481 CURVE SMOOTH",
"1886 1610 OFFCURVE",
"1847 1782 OFFCURVE",
"1806 1896 CURVE",
"1991 1831 LINE",
"1559 1743 LINE",
"1649 1815 LINE",
"1645 1724 OFFCURVE",
"1638 1642 OFFCURVE",
"1626 1581 CURVE SMOOTH",
"1593 1421 OFFCURVE",
"1522 1399 OFFCURVE",
"1417 1399 CURVE SMOOTH",
"1290 1399 OFFCURVE",
"1122 1454 OFFCURVE",
"958 1454 CURVE",
"1348 1231 LINE",
"1397 1214 OFFCURVE",
"1454 1204 OFFCURVE",
"1511 1204 CURVE SMOOTH"
);
}
);
width = 1616;
},
{
anchors = (
{
name = bottom;
position = "{711, -72}";
},
{
name = ogonek;
position = "{915, 20}";
},
{
name = top.case;
position = "{995, 1475}";
}
);
background = {
components = (
{
name = Uhorn;
transform = "{1, 0, 0, 1, -204, 0}";
}
);
};
components = (
{
name = O;
}
);
layerId = "6D60D92C-1450-4586-BB49-599D0D4C1213";
paths = (
{
closed = 1;
nodes = (
"1819 1159 OFFCURVE",
"1952 1260 OFFCURVE",
"1981 1420 CURVE SMOOTH",
"2023 1653 OFFCURVE",
"1950 1829 OFFCURVE",
"1901 1985 CURVE",
"2138 1890 LINE",
"1538 1769 LINE",
"1683 1841 LINE",
"1701 1749 OFFCURVE",
"1716 1651 OFFCURVE",
"1697 1546 CURVE SMOOTH",
"1673 1419 OFFCURVE",
"1550 1401 OFFCURVE",
"1462 1401 CURVE SMOOTH",
"1333 1401 OFFCURVE",
"1206 1452 OFFCURVE",
"979 1452 CURVE",
"1462 1186 LINE",
"1487 1171 OFFCURVE",
"1547 1159 OFFCURVE",
"1604 1159 CURVE SMOOTH"
);
}
);
width = 1677;
}
);
leftMetricsKey = O;
unicode = 01A0;
},
{
glyphname = Oslash;
lastChange = "2020-12-22 23:58:30 +0000";
layers = (
{
components = (
{
name = O;
}
);
guideLines = (
{
angle = 79;
position = "{148, 647}";
},
{
angle = 79;
position = "{830, 632}";
}
);
layerId = "13A5184A-77A5-4E03-80A5-A9198A2CA35F";
paths = (
{
closed = 1;
nodes = (
"1731 1401 LINE",
"1683 1454 LINE",
"61 33 LINE",
"109 -20 LINE"
);
}
);
width = 1689;
},
{
components = (
{
name = O;
}
);
guideLines = (
{
angle = 79;
position = "{846, 622}";
},
{
angle = 79;
position = "{111, 651}";
}
);
layerId = "6D60D92C-1450-4586-BB49-599D0D4C1213";
paths = (
{
closed = 1;
nodes = (
"1731 1272 LINE",
"1581 1452 LINE",
"0 162 LINE",
"152 -18 LINE"
);
}
);
width = 1659;
},
{
background = {
guideLines = (
{
angle = 79;
position = "{131, 618}";
}
);
paths = (
{
closed = 1;
nodes = (
"1638 1315 LINE",
"1507 1454 LINE",
"45 121 LINE",
"176 -18 LINE"
);
}
);
};
components = (
{
name = O;
}
);
guideLines = (
{
angle = 79;
position = "{820, 653}";
},
{
angle = 79;
position = "{131, 618}";
}
);
layerId = "74CCE9C5-5564-42E0-9214-3BF0725DF94D";
paths = (
{
closed = 1;
nodes = (
"1638 1315 LINE",
"1509 1454 LINE",
"45 121 LINE",
"176 -18 LINE"
);
}
);
width = 1665;
}
);
leftKerningGroup = O;
leftMetricsKey = O;
rightKerningGroup = O;
rightMetricsKey = O;
unicode = 00D8;
},
{
color = 3;
glyphname = OE;
lastChange = "2020-12-22 23:58:30 +0000";
layers = (
{
background = {
paths = (
{
closed = 1;
nodes = (
"1130 -20 OFFCURVE",
"1470 287 OFFCURVE",
"1554 717 CURVE SMOOTH",
"1638 1147 OFFCURVE",
"1417 1454 OFFCURVE",
"1018 1454 CURVE SMOOTH",
"608 1454 OFFCURVE",
"258 1147 OFFCURVE",
"174 717 CURVE SMOOTH",
"90 287 OFFCURVE",
"322 -20 OFFCURVE",
"731 -20 CURVE SMOOTH"
);
},
{
closed = 1;
nodes = (
"387 53 OFFCURVE",
"184 334 OFFCURVE",
"258 717 CURVE SMOOTH",
"332 1100 OFFCURVE",
"645 1380 OFFCURVE",
"1004 1380 CURVE SMOOTH",
"1366 1380 OFFCURVE",
"1567 1100 OFFCURVE",
"1493 717 CURVE SMOOTH",
"1419 334 OFFCURVE",
"1108 53 OFFCURVE",
"745 53 CURVE SMOOTH"
);
},
{
closed = 1;
nodes = (
"2327 0 LINE",
"2341 74 LINE",
"1448 74 LINE",
"1569 696 LINE",
"2365 696 LINE",
"2380 770 LINE",
"1583 770 LINE",
"1698 1360 LINE",
"2576 1360 LINE",
"2591 1434 LINE",
"1632 1434 LINE",
"1354 0 LINE"
);
}
);
};
layerId = "13A5184A-77A5-4E03-80A5-A9198A2CA35F";
paths = (
{
closed = 1;
nodes = (
"1151 -20 OFFCURVE",
"1470 274 OFFCURVE",
"1550 694 CURVE SMOOTH",
"1640 1159 OFFCURVE",
"1419 1454 OFFCURVE",
"999 1454 CURVE SMOOTH",
"598 1454 OFFCURVE",
"264 1167 OFFCURVE",
"180 739 CURVE SMOOTH",
"94 301 OFFCURVE",
"315 -20 OFFCURVE",
"737 -20 CURVE SMOOTH"
);
},
{
closed = 1;
nodes = (
"381 53 OFFCURVE",
"184 330 OFFCURVE",
"264 739 CURVE SMOOTH",
"338 1122 OFFCURVE",
"647 1380 OFFCURVE",
"1006 1380 CURVE SMOOTH",
"1386 1380 OFFCURVE",
"1567 1092 OFFCURVE",
"1491 694 CURVE SMOOTH",
"1417 311 OFFCURVE",
"1110 53 OFFCURVE",
"748 53 CURVE SMOOTH"
);
},
{
closed = 1;
nodes = (
"2329 0 LINE",
"2343 74 LINE",
"1450 74 LINE",
"1571 696 LINE",
"2367 696 LINE",
"2382 770 LINE",
"1585 770 LINE",
"1700 1360 LINE",
"2578 1360 LINE",
"2593 1434 LINE",
"1634 1434 LINE",
"1356 0 LINE"
);
}
);
width = 2540;
},
{
background = {
guideLines = (
{
angle = 79;
position = "{419, 504}";
}
);
paths = (
{
closed = 1;
nodes = (
"2202 0 LINE",
"2277 393 LINE",
"1612 393 LINE",
"1642 549 LINE",
"2212 549 LINE",
"2284 913 LINE",
"1714 913 LINE",
"1739 1044 LINE",
"2390 1044 LINE",
"2466 1434 LINE",
"1358 1434 LINE",
"1079 0 LINE"
);
},
{
closed = 1;
nodes = (
"1061 -18 OFFCURVE",
"1346 383 OFFCURVE",
"1403 680 CURVE SMOOTH",
"1489 1130 OFFCURVE",
"1319 1452 OFFCURVE",
"903 1452 CURVE SMOOTH",
"508 1452 OFFCURVE",
"207 1231 OFFCURVE",
"117 774 CURVE SMOOTH",
"29 328 OFFCURVE",
"252 -18 OFFCURVE",
"698 -18 CURVE SMOOTH"
);
},
{
closed = 1;
nodes = (
"614 401 OFFCURVE",
"526 498 OFFCURVE",
"573 735 CURVE SMOOTH",
"621 973 OFFCURVE",
"731 1032 OFFCURVE",
"915 1032 CURVE SMOOTH",
"1114 1032 OFFCURVE",
"1202 936 OFFCURVE",
"1155 698 CURVE SMOOTH",
"1108 461 OFFCURVE",
"997 401 OFFCURVE",
"813 401 CURVE SMOOTH"
);
}
);
};
guideLines = (
{
angle = 79;
position = "{108, 641}";
},
{
angle = 79;
position = "{316, 545}";
},
{
angle = 79;
position = "{718, 504}";
},
{
angle = 79;
position = "{419, 504}";
}
);
layerId = "6D60D92C-1450-4586-BB49-599D0D4C1213";
paths = (
{
closed = 1;
nodes = (
"1087 -18 OFFCURVE",
"1343 360 OFFCURVE",
"1413 729 CURVE SMOOTH",
"1483 1087 OFFCURVE",
"1341 1452 OFFCURVE",
"903 1452 CURVE SMOOTH",
"508 1452 OFFCURVE",
"207 1231 OFFCURVE",
"117 774 CURVE SMOOTH",
"29 328 OFFCURVE",
"252 -18 OFFCURVE",
"698 -18 CURVE SMOOTH"
);
},
{
closed = 1;
nodes = (
"614 401 OFFCURVE",
"526 498 OFFCURVE",
"573 735 CURVE SMOOTH",
"621 973 OFFCURVE",
"731 1032 OFFCURVE",
"915 1032 CURVE SMOOTH",
"1114 1032 OFFCURVE",
"1202 936 OFFCURVE",
"1155 698 CURVE SMOOTH",
"1108 461 OFFCURVE",
"997 401 OFFCURVE",
"813 401 CURVE SMOOTH"
);
},
{
closed = 1;
nodes = (
"2202 0 LINE",
"2277 393 LINE",
"1612 393 LINE",
"1642 549 LINE",
"2212 549 LINE",
"2284 913 LINE",
"1714 913 LINE",
"1739 1044 LINE",
"2390 1044 LINE",
"2466 1434 LINE",
"1358 1434 LINE",
"1079 0 LINE"
);
}
);
width = 2358;
},
{
background = {
components = (
{
name = E;
transform = "{1, 0, 0, 1, 515, 0}";
}
);
};
guideLines = (
{
angle = 79;
position = "{353, 418}";
},
{
angle = 79;
position = "{601, 552}";
},
{
angle = 79;
position = "{366, 410}";
}
);
layerId = "74CCE9C5-5564-42E0-9214-3BF0725DF94D";
paths = (
{
closed = 1;
nodes = (
"1133 -20 OFFCURVE",
"1405 291 OFFCURVE",
"1475 668 CURVE SMOOTH",
"1563 1143 OFFCURVE",
"1362 1454 OFFCURVE",
"938 1454 CURVE SMOOTH",
"506 1454 OFFCURVE",
"229 1165 OFFCURVE",
"150 764 CURVE SMOOTH",
"57 299 OFFCURVE",
"297 -20 OFFCURVE",
"727 -20 CURVE SMOOTH"
);
},
{
closed = 1;
nodes = (
"494 227 OFFCURVE",
"354 403 OFFCURVE",
"420 737 CURVE SMOOTH",
"473 1012 OFFCURVE",
"637 1206 OFFCURVE",
"940 1206 CURVE SMOOTH",
"1192 1206 OFFCURVE",
"1327 1030 OFFCURVE",
"1262 696 CURVE SMOOTH",
"1208 422 OFFCURVE",
"1049 227 OFFCURVE",
"745 227 CURVE SMOOTH"
);
},
{
closed = 1;
nodes = (
"2150 0 LINE",
"2195 236 LINE",
"1405 236 LINE",
"1481 616 LINE",
"2175 616 LINE",
"2220 852 LINE",
"1526 852 LINE",
"1591 1198 LINE",
"2367 1198 LINE",
"2415 1434 LINE",
"1405 1434 LINE",
"1126 0 LINE"
);
}
);
width = 2333;
}
);
leftKerningGroup = O;
leftMetricsKey = O;
rightKerningGroup = E;
rightMetricsKey = E;
unicode = 0152;
},
{
glyphname = P;
lastChange = "2020-12-22 23:58:30 +0000";
layers = (
{
background = {
paths = (
{
closed = 1;
nodes = (
"209 0 LINE",
"313 537 LINE",
"768 537 LINE SMOOTH",
"1087 537 OFFCURVE",
"1300 694 OFFCURVE",
"1358 987 CURVE SMOOTH",
"1413 1274 OFFCURVE",
"1260 1434 OFFCURVE",
"942 1434 CURVE SMOOTH",
"406 1434 LINE",
"127 0 LINE"
);
},
{
closed = 1;
nodes = (
"473 1360 LINE",
"928 1360 LINE SMOOTH",
"1192 1360 OFFCURVE",
"1325 1245 OFFCURVE",
"1276 993 CURVE SMOOTH",
"1229 754 OFFCURVE",
"1065 610 OFFCURVE",
"756 610 CURVE SMOOTH",
"328 610 LINE"
);
}
);
};
guideLines = (
{
angle = 79;
position = "{598, 202}";
},
{
angle = 79;
position = "{555, 187}";
}
);
layerId = "13A5184A-77A5-4E03-80A5-A9198A2CA35F";
paths = (
{
closed = 1;
nodes = (
"197 0 LINE",
"301 537 LINE",
"780 537 LINE SMOOTH",
"1087 537 OFFCURVE",
"1290 688 OFFCURVE",
"1346 981 CURVE SMOOTH",
"1401 1268 OFFCURVE",
"1249 1434 OFFCURVE",
"932 1434 CURVE SMOOTH",
"395 1434 LINE",
"117 0 LINE"
);
},
{
closed = 1;
nodes = (
"461 1360 LINE",
"918 1360 LINE SMOOTH",
"1182 1360 OFFCURVE",
"1313 1239 OFFCURVE",
"1264 987 CURVE SMOOTH",
"1219 748 OFFCURVE",
"1063 610 OFFCURVE",
"764 610 CURVE SMOOTH",
"315 610 LINE"
);
}
);
width = 1335;
},
{
background = {
paths = (
{
closed = 1;
nodes = (
"467 0 LINE",
"543 395 LINE",
"838 395 LINE SMOOTH",
"1155 395 OFFCURVE",
"1409 596 OFFCURVE",
"1470 913 CURVE SMOOTH",
"1530 1225 OFFCURVE",
"1382 1434 OFFCURVE",
"1047 1434 CURVE SMOOTH",
"289 1434 LINE",
"10 0 LINE"
);
},
{
closed = 1;
nodes = (
"672 1059 LINE",
"848 1059 LINE SMOOTH",
"967 1059 OFFCURVE",
"1026 1030 OFFCURVE",
"1004 918 CURVE SMOOTH",
"981 805 OFFCURVE",
"913 778 OFFCURVE",
"795 778 CURVE SMOOTH",
"618 778 LINE"
);
}
);
};
guideLines = (
{
angle = 79;
position = "{646, 104}";
},
{
angle = 79;
position = "{430, 146}";
}
);
layerId = "6D60D92C-1450-4586-BB49-599D0D4C1213";
paths = (
{
closed = 1;
nodes = (
"465 0 LINE",
"541 395 LINE",
"795 395 LINE SMOOTH",
"1219 395 OFFCURVE",
"1409 598 OFFCURVE",
"1464 891 CURVE SMOOTH",
"1524 1212 OFFCURVE",
"1364 1434 OFFCURVE",
"993 1434 CURVE SMOOTH",
"287 1434 LINE",
"8 0 LINE"
);
},
{
closed = 1;
nodes = (
"670 1059 LINE",
"887 1059 LINE SMOOTH",
"973 1059 OFFCURVE",
"1022 1022 OFFCURVE",
"1001 918 CURVE SMOOTH",
"981 815 OFFCURVE",
"932 778 OFFCURVE",
"834 778 CURVE SMOOTH",
"618 778 LINE"
);
}
);
width = 1456;
},
{
background = {
paths = (
{
closed = 1;
nodes = (
"338 0 LINE",
"424 455 LINE",
"803 455 LINE SMOOTH",
"1110 455 OFFCURVE",
"1341 647 OFFCURVE",
"1401 952 CURVE SMOOTH",
"1460 1253 OFFCURVE",
"1311 1434 OFFCURVE",
"995 1434 CURVE SMOOTH",
"348 1434 LINE",
"70 0 LINE"
);
},
{
closed = 1;
nodes = (
"571 1198 LINE",
"911 1198 LINE SMOOTH",
"1079 1198 OFFCURVE",
"1161 1128 OFFCURVE",
"1126 948 CURVE SMOOTH",
"1092 772 OFFCURVE",
"979 690 OFFCURVE",
"811 690 CURVE SMOOTH",
"471 690 LINE"
);
}
);
};
guideLines = (
{
angle = 79;
position = "{616, 128}";
},
{
angle = 79;
position = "{481, 105}";
}
);
layerId = "74CCE9C5-5564-42E0-9214-3BF0725DF94D";
paths = (
{
closed = 1;
nodes = (
"336 0 LINE",
"424 455 LINE",
"760 455 LINE SMOOTH",
"1108 455 OFFCURVE",
"1337 623 OFFCURVE",
"1393 913 CURVE SMOOTH",
"1454 1239 OFFCURVE",
"1290 1434 OFFCURVE",
"954 1434 CURVE SMOOTH",
"348 1434 LINE",
"70 0 LINE"
);
},
{
closed = 1;
nodes = (
"571 1198 LINE",
"893 1198 LINE SMOOTH",
"1067 1198 OFFCURVE",
"1159 1126 OFFCURVE",
"1122 940 CURVE SMOOTH",
"1090 774 OFFCURVE",
"983 690 OFFCURVE",
"782 690 CURVE SMOOTH",
"471 690 LINE"
);
}
);
width = 1389;
}
);
leftMetricsKey = H;
unicode = 0050;
},
{
color = 3;
glyphname = Thorn;
lastChange = "2020-12-22 23:58:30 +0000";
layers = (
{
background = {
paths = (
{
closed = 1;
nodes = (
"199 0 LINE",
"260 315 LINE",
"715 315 LINE SMOOTH",
"1030 315 OFFCURVE",
"1251 492 OFFCURVE",
"1307 778 CURVE SMOOTH",
"1362 1065 OFFCURVE",
"1204 1212 OFFCURVE",
"889 1212 CURVE SMOOTH",
"434 1212 LINE",
"477 1434 LINE",
"395 1434 LINE",
"117 0 LINE"
);
},
{
closed = 1;
nodes = (
"420 1139 LINE",
"874 1139 LINE SMOOTH",
"1139 1139 OFFCURVE",
"1272 1028 OFFCURVE",
"1223 776 CURVE SMOOTH",
"1176 530 OFFCURVE",
"993 389 OFFCURVE",
"729 389 CURVE SMOOTH",
"274 389 LINE"
);
}
);
};
layerId = "13A5184A-77A5-4E03-80A5-A9198A2CA35F";
paths = (
{
closed = 1;
nodes = (
"197 0 LINE",
"258 315 LINE",
"737 315 LINE SMOOTH",
"1044 315 OFFCURVE",
"1247 467 OFFCURVE",
"1303 760 CURVE SMOOTH",
"1356 1047 OFFCURVE",
"1206 1212 OFFCURVE",
"889 1212 CURVE SMOOTH",
"432 1212 LINE",
"475 1434 LINE",
"395 1434 LINE",
"117 0 LINE"
);
},
{
closed = 1;
nodes = (
"418 1139 LINE",
"874 1139 LINE SMOOTH",
"1139 1139 OFFCURVE",
"1270 1018 OFFCURVE",
"1221 766 CURVE SMOOTH",
"1174 526 OFFCURVE",
"1020 389 OFFCURVE",
"721 389 CURVE SMOOTH",
"272 389 LINE"
);
}
);
width = 1335;
},
{
background = {
paths = (
{
closed = 1;
nodes = (
"465 0 LINE",
"508 219 LINE",
"793 219 LINE SMOOTH",
"1110 219 OFFCURVE",
"1362 420 OFFCURVE",
"1423 737 CURVE SMOOTH",
"1483 1049 OFFCURVE",
"1335 1257 OFFCURVE",
"999 1257 CURVE SMOOTH",
"709 1257 LINE",
"743 1434 LINE",
"287 1434 LINE",
"8 0 LINE"
);
},
{
closed = 1;
nodes = (
"633 860 LINE",
"852 860 LINE SMOOTH",
"942 860 OFFCURVE",
"985 836 OFFCURVE",
"967 735 CURVE SMOOTH",
"946 635 OFFCURVE",
"893 612 OFFCURVE",
"803 612 CURVE SMOOTH",
"584 612 LINE"
);
}
);
};
layerId = "6D60D92C-1450-4586-BB49-599D0D4C1213";
paths = (
{
closed = 1;
nodes = (
"465 0 LINE",
"506 219 LINE",
"799 219 LINE SMOOTH",
"1184 219 OFFCURVE",
"1368 422 OFFCURVE",
"1417 698 CURVE SMOOTH",
"1477 1036 OFFCURVE",
"1323 1257 OFFCURVE",
"958 1257 CURVE SMOOTH",
"709 1257 LINE",
"743 1434 LINE",
"287 1434 LINE",
"8 0 LINE"
);
},
{
closed = 1;
nodes = (
"633 860 LINE",
"850 860 LINE SMOOTH",
"936 860 OFFCURVE",
"983 823 OFFCURVE",
"965 731 CURVE SMOOTH",
"948 649 OFFCURVE",
"901 612 OFFCURVE",
"803 612 CURVE SMOOTH",
"586 612 LINE"
);
}
);
width = 1447;
},
{
background = {
paths = (
{
closed = 1;
nodes = (
"339 0 LINE",
"386 248 LINE",
"712 248 LINE SMOOTH",
"1029 248 OFFCURVE",
"1267 438 OFFCURVE",
"1326 743 CURVE SMOOTH",
"1385 1044 OFFCURVE",
"1232 1227 OFFCURVE",
"906 1227 CURVE SMOOTH",
"577 1227 LINE",
"617 1434 LINE",
"349 1434 LINE",
"71 0 LINE"
);
},
{
closed = 1;
nodes = (
"531 991 LINE",
"820 991 LINE SMOOTH",
"998 991 OFFCURVE",
"1084 920 OFFCURVE",
"1050 741 CURVE SMOOTH",
"1015 565 OFFCURVE",
"900 483 OFFCURVE",
"722 483 CURVE SMOOTH",
"433 483 LINE"
);
}
);
};
layerId = "74CCE9C5-5564-42E0-9214-3BF0725DF94D";
paths = (
{
closed = 1;
nodes = (
"337 0 LINE",
"386 250 LINE",
"689 250 LINE SMOOTH",
"1037 250 OFFCURVE",
"1263 416 OFFCURVE",
"1320 719 CURVE SMOOTH",
"1381 1040 OFFCURVE",
"1230 1227 OFFCURVE",
"884 1227 CURVE SMOOTH",
"579 1227 LINE",
"620 1434 LINE",
"349 1434 LINE",
"69 0 LINE"
);
},
{
closed = 1;
nodes = (
"531 991 LINE",
"824 991 LINE SMOOTH",
"1003 991 OFFCURVE",
"1080 903 OFFCURVE",
"1048 733 CURVE SMOOTH",
"1019 586 OFFCURVE",
"917 483 OFFCURVE",
"716 483 CURVE SMOOTH",
"433 483 LINE"
);
}
);
width = 1353;
}
);
leftMetricsKey = H;
rightMetricsKey = P;
unicode = 00DE;
},
{
color = 0;
glyphname = Q;
lastChange = "2020-12-22 23:58:30 +0000";
layers = (
{
background = {
paths = (
{
closed = 1;
nodes = (
"1473 33 LINE",
"993 715 LINE",
"924 670 LINE",
"1405 -14 LINE"
);
},
{
closed = 1;
nodes = (
"1178 12 OFFCURVE",
"1503 279 OFFCURVE",
"1556 707 CURVE SMOOTH",
"1610 1135 OFFCURVE",
"1356 1475 OFFCURVE",
"946 1524 CURVE SMOOTH",
"541 1573 OFFCURVE",
"215 1307 OFFCURVE",
"162 879 CURVE SMOOTH",
"109 451 OFFCURVE",
"360 111 OFFCURVE",
"768 61 CURVE SMOOTH"
);
},
{
closed = 1;
nodes = (
"422 182 OFFCURVE",
"201 489 OFFCURVE",
"246 868 CURVE SMOOTH",
"291 1247 OFFCURVE",
"582 1495 OFFCURVE",
"938 1450 CURVE SMOOTH",
"1296 1405 OFFCURVE",
"1518 1096 OFFCURVE",
"1473 717 CURVE SMOOTH",
"1427 338 OFFCURVE",
"1137 88 OFFCURVE",
"778 135 CURVE SMOOTH"
);
}
);
};
components = (
{
name = O;
}
);
layerId = "13A5184A-77A5-4E03-80A5-A9198A2CA35F";
paths = (
{
closed = 1;
nodes = (
"1462 35 LINE",
"1026 655 LINE",
"958 606 LINE",
"1395 -16 LINE"
);
}
);
width = 1686;
},
{
background = {
paths = (
{
closed = 1;
nodes = (
"1554 82 LINE",
"973 727 LINE",
"797 578 LINE",
"1386 -76 LINE"
);
},
{
closed = 1;
nodes = (
"1241 -59 OFFCURVE",
"1571 195 OFFCURVE",
"1616 637 CURVE SMOOTH",
"1661 1083 OFFCURVE",
"1413 1401 OFFCURVE",
"940 1450 CURVE SMOOTH",
"485 1497 OFFCURVE",
"158 1243 OFFCURVE",
"111 801 CURVE SMOOTH",
"63 354 OFFCURVE",
"313 37 OFFCURVE",
"786 -12 CURVE SMOOTH"
);
},
{
closed = 1;
nodes = (
"641 426 OFFCURVE",
"547 502 OFFCURVE",
"571 748 CURVE SMOOTH",
"596 997 OFFCURVE",
"715 1051 OFFCURVE",
"897 1032 CURVE SMOOTH",
"1085 1014 OFFCURVE",
"1182 936 OFFCURVE",
"1155 690 CURVE SMOOTH",
"1128 440 OFFCURVE",
"1012 387 OFFCURVE",
"831 406 CURVE SMOOTH"
);
}
);
};
components = (
{
name = O;
}
);
guideLines = (
{
angle = 79;
position = "{758, 173}";
}
);
layerId = "6D60D92C-1450-4586-BB49-599D0D4C1213";
paths = (
{
closed = 1;
nodes = (
"1509 135 LINE",
"975 727 LINE",
"797 573 LINE",
"1343 -18 LINE"
);
}
);
width = 1659;
},
{
background = {
paths = (
{
closed = 1;
nodes = (
"1460 127 LINE",
"922 762 LINE",
"743 618 LINE",
"1286 -20 LINE"
);
}
);
};
components = (
{
alignment = -1;
name = O;
}
);
guideLines = (
{
angle = 79;
position = "{742, 141}";
}
);
layerId = "74CCE9C5-5564-42E0-9214-3BF0725DF94D";
paths = (
{
closed = 1;
nodes = (
"1487 125 LINE",
"987 715 LINE",
"811 571 LINE",
"1313 -16 LINE"
);
}
);
width = 1667;
}
);
leftKerningGroup = O;
leftMetricsKey = O;
rightKerningGroup = O;
rightMetricsKey = O;
unicode = 0051;
},
{
glyphname = R;
lastChange = "2020-12-22 23:58:30 +0000";
layers = (
{
anchors = (
{
name = bottom;
position = "{612, -72}";
},
{
name = top.case;
position = "{913, 1475}";
}
);
background = {
paths = (
{
closed = 1;
nodes = (
"197 0 LINE",
"319 629 LINE",
"807 629 LINE SMOOTH",
"1178 629 OFFCURVE",
"1346 797 OFFCURVE",
"1391 1028 CURVE SMOOTH",
"1442 1286 OFFCURVE",
"1280 1434 OFFCURVE",
"979 1434 CURVE SMOOTH",
"395 1434 LINE",
"117 0 LINE"
);
},
{
closed = 1;
nodes = (
"1260 0 LINE",
"940 670 LINE",
"866 641 LINE",
"1169 0 LINE"
);
},
{
closed = 1;
nodes = (
"461 1360 LINE",
"958 1360 LINE SMOOTH",
"1225 1360 OFFCURVE",
"1350 1245 OFFCURVE",
"1309 1034 CURVE SMOOTH",
"1266 811 OFFCURVE",
"1096 702 OFFCURVE",
"842 702 CURVE SMOOTH",
"334 702 LINE"
);
}
);
};
guideLines = (
{
angle = 79;
position = "{629, 245}";
},
{
angle = 79;
position = "{586, 234}";
}
);
layerId = "13A5184A-77A5-4E03-80A5-A9198A2CA35F";
paths = (
{
closed = 1;
nodes = (
"197 0 LINE",
"319 629 LINE",
"795 629 LINE SMOOTH",
"1174 629 OFFCURVE",
"1346 797 OFFCURVE",
"1391 1028 CURVE SMOOTH",
"1446 1286 OFFCURVE",
"1270 1434 OFFCURVE",
"940 1434 CURVE SMOOTH",
"395 1434 LINE",
"117 0 LINE"
);
},
{
closed = 1;
nodes = (
"1260 0 LINE",
"940 670 LINE",
"866 641 LINE",
"1169 0 LINE"
);
},
{
closed = 1;
nodes = (
"461 1360 LINE",
"909 1360 LINE SMOOTH",
"1214 1360 OFFCURVE",
"1356 1245 OFFCURVE",
"1309 1034 CURVE SMOOTH",
"1264 811 OFFCURVE",
"1085 702 OFFCURVE",
"819 702 CURVE SMOOTH",
"334 702 LINE"
);
}
);
width = 1460;
},
{
anchors = (
{
name = bottom;
position = "{659, -72}";
},
{
name = top.case;
position = "{903, 1475}";
}
);
guideLines = (
{
angle = 79;
position = "{673, 214}";
},
{
angle = 79;
position = "{474, 318}";
}
);
layerId = "6D60D92C-1450-4586-BB49-599D0D4C1213";
paths = (
{
closed = 1;
nodes = (
"465 0 LINE",
"559 481 LINE",
"641 481 LINE SMOOTH",
"1137 481 OFFCURVE",
"1409 596 OFFCURVE",
"1473 924 CURVE SMOOTH",
"1528 1208 OFFCURVE",
"1380 1434 OFFCURVE",
"989 1434 CURVE SMOOTH",
"287 1434 LINE",
"8 0 LINE"
);
},
{
closed = 1;
nodes = (
"1374 0 LINE",
"1104 586 LINE",
"696 510 LINE",
"895 0 LINE"
);
},
{
closed = 1;
nodes = (
"670 1057 LINE",
"899 1057 LINE SMOOTH",
"1014 1057 OFFCURVE",
"1038 995 OFFCURVE",
"1024 924 CURVE SMOOTH",
"1006 821 OFFCURVE",
"950 782 OFFCURVE",
"829 782 CURVE SMOOTH",
"616 782 LINE"
);
}
);
width = 1499;
},
{
anchors = (
{
name = bottom;
position = "{643, -72}";
},
{
name = top.case;
position = "{907, 1475}";
}
);
background = {
paths = (
{
closed = 1;
nodes = (
"340 0 LINE",
"444 532 LINE",
"741 532 LINE SMOOTH",
"1085 532 OFFCURVE",
"1356 682 OFFCURVE",
"1415 993 CURVE SMOOTH",
"1468 1272 OFFCURVE",
"1300 1434 OFFCURVE",
"991 1434 CURVE SMOOTH",
"350 1434 LINE",
"72 0 LINE"
);
},
{
closed = 1;
nodes = (
"1296 0 LINE",
"1026 629 LINE",
"762 575 LINE",
"997 0 LINE"
);
},
{
closed = 1;
nodes = (
"573 1198 LINE",
"920 1198 LINE SMOOTH",
"1092 1198 OFFCURVE",
"1171 1133 OFFCURVE",
"1145 991 CURVE SMOOTH",
"1118 846 OFFCURVE",
"1006 768 OFFCURVE",
"840 768 CURVE SMOOTH",
"489 768 LINE"
);
}
);
};
guideLines = (
{
angle = 79;
position = "{707, 643}";
},
{
angle = 79;
position = "{562, 604}";
}
);
layerId = "74CCE9C5-5564-42E0-9214-3BF0725DF94D";
paths = (
{
closed = 1;
nodes = (
"338 0 LINE",
"444 532 LINE",
"725 532 LINE SMOOTH",
"1149 532 OFFCURVE",
"1356 672 OFFCURVE",
"1411 967 CURVE SMOOTH",
"1462 1245 OFFCURVE",
"1319 1434 OFFCURVE",
"981 1434 CURVE SMOOTH",
"348 1434 LINE",
"70 0 LINE"
);
},
{
closed = 1;
nodes = (
"1282 0 LINE",
"1001 610 LINE",
"725 557 LINE",
"975 0 LINE"
);
},
{
closed = 1;
nodes = (
"573 1198 LINE",
"938 1198 LINE SMOOTH",
"1092 1198 OFFCURVE",
"1174 1124 OFFCURVE",
"1143 977 CURVE SMOOTH",
"1112 831 OFFCURVE",
"1016 768 OFFCURVE",
"854 768 CURVE SMOOTH",
"489 768 LINE"
);
}
);
width = 1423;
},
{
anchors = (
{
name = bottom;
position = "{612, -72}";
},
{
name = top.case;
position = "{852, 1475}";
}
);
associatedMasterId = "13A5184A-77A5-4E03-80A5-A9198A2CA35F";
background = {
anchors = (
{
name = bottom;
position = "{645, -25}";
},
{
name = top.case;
position = "{860, 1507}";
}
);
paths = (
{
closed = 1;
nodes = (
"197 0 LINE",
"319 629 LINE",
"807 629 LINE SMOOTH",
"1178 629 OFFCURVE",
"1350 815 OFFCURVE",
"1395 1047 CURVE SMOOTH",
"1444 1303 OFFCURVE",
"1276 1434 OFFCURVE",
"979 1434 CURVE SMOOTH",
"395 1434 LINE",
"117 0 LINE"
);
},
{
closed = 1;
nodes = (
"1260 0 LINE",
"950 670 LINE",
"866 641 LINE",
"1163 0 LINE"
);
},
{
closed = 1;
nodes = (
"461 1360 LINE",
"958 1360 LINE SMOOTH",
"1221 1360 OFFCURVE",
"1352 1257 OFFCURVE",
"1311 1049 CURVE SMOOTH",
"1268 825 OFFCURVE",
"1096 702 OFFCURVE",
"842 702 CURVE SMOOTH",
"334 702 LINE"
);
}
);
};
guideLines = (
{
angle = 79;
position = "{594, 245}";
},
{
angle = 79;
position = "{549, 225}";
}
);
layerId = "DEF352B3-50B0-42BF-AC57-FC4CDE592B2A";
name = "Feb 18 20, 13:08";
paths = (
{
closed = 1;
nodes = (
"197 0 LINE",
"311 586 LINE",
"737 586 LINE SMOOTH",
"1116 586 OFFCURVE",
"1278 764 OFFCURVE",
"1325 1010 CURVE SMOOTH",
"1378 1280 OFFCURVE",
"1221 1434 OFFCURVE",
"883 1434 CURVE SMOOTH",
"395 1434 LINE",
"117 0 LINE"
);
},
{
closed = 1;
nodes = (
"1198 0 LINE",
"895 633 LINE",
"819 604 LINE",
"1106 0 LINE"
);
},
{
closed = 1;
nodes = (
"461 1360 LINE",
"897 1360 LINE SMOOTH",
"1163 1360 OFFCURVE",
"1286 1237 OFFCURVE",
"1243 1014 CURVE SMOOTH",
"1198 782 OFFCURVE",
"1024 659 OFFCURVE",
"758 659 CURVE SMOOTH",
"326 659 LINE"
);
}
);
width = 1358;
}
);
leftMetricsKey = H;
rightKerningGroup = R;
unicode = 0052;
},
{
glyphname = S;
lastChange = "2020-12-22 23:58:30 +0000";
layers = (
{
anchors = (
{
name = bottom;
position = "{496, -72}";
},
{
name = top.case;
position = "{825, 1475}";
}
);
background = {
paths = (
{
closed = 1;
nodes = (
"838 -20 OFFCURVE",
"1044 90 OFFCURVE",
"1098 356 CURVE SMOOTH",
"1139 582 OFFCURVE",
"1036 676 OFFCURVE",
"694 782 CURVE SMOOTH",
"387 879 OFFCURVE",
"295 924 OFFCURVE",
"332 1098 CURVE SMOOTH",
"369 1280 OFFCURVE",
"545 1380 OFFCURVE",
"803 1380 CURVE SMOOTH",
"924 1380 OFFCURVE",
"1038 1362 OFFCURVE",
"1161 1331 CURVE SMOOTH",
"1257 1307 LINE",
"1208 1284 LINE",
"1262 1403 LINE",
"1286 1366 LINE",
"1192 1395 LINE SMOOTH",
"1073 1432 OFFCURVE",
"944 1454 OFFCURVE",
"825 1454 CURVE SMOOTH",
"547 1454 OFFCURVE",
"301 1366 OFFCURVE",
"250 1100 CURVE SMOOTH",
"209 883 OFFCURVE",
"311 807 OFFCURVE",
"651 707 CURVE SMOOTH",
"954 616 OFFCURVE",
"1051 539 OFFCURVE",
"1014 358 CURVE SMOOTH",
"975 156 OFFCURVE",
"797 53 OFFCURVE",
"524 53 CURVE SMOOTH",
"418 53 OFFCURVE",
"270 72 OFFCURVE",
"166 96 CURVE SMOOTH",
"12 133 LINE",
"86 201 LINE",
"16 33 LINE",
"-18 76 LINE",
"147 29 LINE SMOOTH",
"223 8 OFFCURVE",
"365 -20 OFFCURVE",
"522 -20 CURVE SMOOTH"
);
}
);
};
guideLines = (
{
angle = 79;
position = "{67, 279}";
},
{
angle = 79;
position = "{109, 290}";
},
{
angle = 79;
position = "{576, 409}";
},
{
angle = 79;
position = "{536, 415}";
}
);
layerId = "13A5184A-77A5-4E03-80A5-A9198A2CA35F";
paths = (
{
closed = 1;
nodes = (
"838 -20 OFFCURVE",
"1044 90 OFFCURVE",
"1098 356 CURVE SMOOTH",
"1139 582 OFFCURVE",
"1034 678 OFFCURVE",
"680 784 CURVE SMOOTH",
"385 872 OFFCURVE",
"295 924 OFFCURVE",
"332 1098 CURVE SMOOTH",
"369 1280 OFFCURVE",
"545 1380 OFFCURVE",
"803 1380 CURVE SMOOTH",
"924 1380 OFFCURVE",
"1038 1362 OFFCURVE",
"1161 1331 CURVE SMOOTH",
"1257 1307 LINE",
"1208 1284 LINE",
"1262 1403 LINE",
"1286 1366 LINE",
"1192 1395 LINE SMOOTH",
"1073 1432 OFFCURVE",
"944 1454 OFFCURVE",
"825 1454 CURVE SMOOTH",
"547 1454 OFFCURVE",
"301 1366 OFFCURVE",
"252 1110 CURVE SMOOTH",
"209 883 OFFCURVE",
"311 807 OFFCURVE",
"651 707 CURVE SMOOTH",
"954 616 OFFCURVE",
"1051 539 OFFCURVE",
"1014 358 CURVE SMOOTH",
"975 156 OFFCURVE",
"797 53 OFFCURVE",
"524 53 CURVE SMOOTH",
"418 53 OFFCURVE",
"270 72 OFFCURVE",
"166 96 CURVE SMOOTH",
"12 133 LINE",
"86 201 LINE",
"16 33 LINE",
"-18 76 LINE",
"147 29 LINE SMOOTH",
"223 8 OFFCURVE",
"365 -20 OFFCURVE",
"522 -20 CURVE SMOOTH"
);
}
);
width = 1239;
},
{
anchors = (
{
name = bottom;
position = "{563, -72}";
},
{
name = top.case;
position = "{907, 1475}";
}
);
background = {
paths = (
{
closed = 1;
nodes = (
"922 -18 OFFCURVE",
"1186 82 OFFCURVE",
"1253 442 CURVE SMOOTH",
"1294 641 OFFCURVE",
"1231 801 OFFCURVE",
"913 891 CURVE SMOOTH",
"692 954 OFFCURVE",
"672 967 OFFCURVE",
"680 1008 CURVE SMOOTH",
"686 1038 OFFCURVE",
"729 1057 OFFCURVE",
"881 1057 CURVE SMOOTH",
"956 1057 OFFCURVE",
"1038 1053 OFFCURVE",
"1090 1047 CURVE SMOOTH",
"1405 1014 LINE",
"1231 862 LINE",
"1421 1456 LINE",
"1563 1309 LINE",
"1282 1395 LINE SMOOTH",
"1155 1434 OFFCURVE",
"1016 1452 OFFCURVE",
"889 1452 CURVE SMOOTH",
"535 1452 OFFCURVE",
"274 1331 OFFCURVE",
"215 1026 CURVE SMOOTH",
"166 768 OFFCURVE",
"250 643 OFFCURVE",
"569 541 CURVE SMOOTH",
"770 475 OFFCURVE",
"774 459 OFFCURVE",
"770 432 CURVE SMOOTH",
"764 399 OFFCURVE",
"713 383 OFFCURVE",
"610 383 CURVE SMOOTH",
"506 383 OFFCURVE",
"375 393 OFFCURVE",
"289 406 CURVE SMOOTH",
"-68 449 LINE",
"182 596 LINE",
"-35 0 LINE",
"-100 137 LINE",
"106 66 LINE SMOOTH",
"260 12 OFFCURVE",
"412 -18 OFFCURVE",
"555 -18 CURVE SMOOTH"
);
}
);
};
guideLines = (
{
angle = 79;
position = "{146, 709}";
},
{
angle = 79;
position = "{659, 455}";
},
{
angle = 79;
position = "{356, 618}";
},
{
angle = 79;
position = "{400, 336}";
}
);
layerId = "6D60D92C-1450-4586-BB49-599D0D4C1213";
paths = (
{
closed = 1;
nodes = (
"922 -18 OFFCURVE",
"1186 82 OFFCURVE",
"1253 442 CURVE SMOOTH",
"1294 641 OFFCURVE",
"1231 801 OFFCURVE",
"913 891 CURVE SMOOTH",
"692 954 OFFCURVE",
"672 967 OFFCURVE",
"680 1008 CURVE SMOOTH",
"686 1038 OFFCURVE",
"729 1057 OFFCURVE",
"881 1057 CURVE SMOOTH",
"956 1057 OFFCURVE",
"1040 1053 OFFCURVE",
"1178 1038 CURVE SMOOTH",
"1405 1014 LINE",
"1231 862 LINE",
"1421 1456 LINE",
"1589 1309 LINE",
"1282 1395 LINE SMOOTH",
"1174 1425 OFFCURVE",
"1032 1452 OFFCURVE",
"901 1452 CURVE SMOOTH",
"541 1452 OFFCURVE",
"276 1331 OFFCURVE",
"215 1026 CURVE SMOOTH",
"166 768 OFFCURVE",
"250 643 OFFCURVE",
"569 541 CURVE SMOOTH",
"770 475 OFFCURVE",
"774 459 OFFCURVE",
"770 432 CURVE SMOOTH",
"764 399 OFFCURVE",
"713 383 OFFCURVE",
"610 383 CURVE SMOOTH",
"506 383 OFFCURVE",
"375 393 OFFCURVE",
"289 406 CURVE SMOOTH",
"-68 449 LINE",
"182 596 LINE",
"-35 0 LINE",
"-100 137 LINE",
"106 66 LINE SMOOTH",
"260 12 OFFCURVE",
"412 -18 OFFCURVE",
"555 -18 CURVE SMOOTH"
);
}
);
width = 1352;
},
{
anchors = (
{
name = bottom;
position = "{524, -72}";
},
{
name = top.case;
position = "{860, 1475}";
}
);
background = {
paths = (
{
closed = 1;
nodes = (
"881 -20 OFFCURVE",
"1102 98 OFFCURVE",
"1157 389 CURVE SMOOTH",
"1206 641 OFFCURVE",
"1090 741 OFFCURVE",
"795 842 CURVE SMOOTH",
"543 926 OFFCURVE",
"494 950 OFFCURVE",
"512 1051 CURVE SMOOTH",
"532 1161 OFFCURVE",
"649 1210 OFFCURVE",
"850 1210 CURVE SMOOTH",
"946 1210 OFFCURVE",
"1057 1200 OFFCURVE",
"1153 1184 CURVE SMOOTH",
"1315 1157 LINE",
"1208 1073 LINE",
"1329 1430 LINE",
"1405 1350 LINE",
"1247 1395 LINE SMOOTH",
"1145 1423 OFFCURVE",
"981 1454 OFFCURVE",
"868 1454 CURVE SMOOTH",
"555 1454 OFFCURVE",
"297 1343 OFFCURVE",
"248 1087 CURVE SMOOTH",
"197 821 OFFCURVE",
"317 717 OFFCURVE",
"616 616 CURVE SMOOTH",
"860 535 OFFCURVE",
"899 487 OFFCURVE",
"879 385 CURVE SMOOTH",
"858 283 OFFCURVE",
"780 227 OFFCURVE",
"563 227 CURVE SMOOTH",
"459 227 OFFCURVE",
"326 242 OFFCURVE",
"180 270 CURVE SMOOTH",
"-16 309 LINE",
"139 399 LINE",
"0 16 LINE",
"-31 94 LINE",
"125 45 LINE SMOOTH",
"279 -4 OFFCURVE",
"397 -20 OFFCURVE",
"561 -20 CURVE SMOOTH"
);
}
);
};
guideLines = (
{
angle = 79;
position = "{603, 386}";
},
{
angle = 79;
position = "{481, 456}";
},
{
angle = 79;
position = "{88, 360}";
},
{
angle = 79;
position = "{191, 211}";
}
);
layerId = "74CCE9C5-5564-42E0-9214-3BF0725DF94D";
paths = (
{
closed = 1;
nodes = (
"881 -20 OFFCURVE",
"1102 98 OFFCURVE",
"1157 389 CURVE SMOOTH",
"1206 641 OFFCURVE",
"1090 741 OFFCURVE",
"795 842 CURVE SMOOTH",
"543 926 OFFCURVE",
"494 950 OFFCURVE",
"512 1051 CURVE SMOOTH",
"532 1161 OFFCURVE",
"649 1210 OFFCURVE",
"850 1210 CURVE SMOOTH",
"946 1210 OFFCURVE",
"1057 1200 OFFCURVE",
"1153 1184 CURVE SMOOTH",
"1315 1157 LINE",
"1208 1073 LINE",
"1329 1430 LINE",
"1405 1350 LINE",
"1247 1395 LINE SMOOTH",
"1145 1423 OFFCURVE",
"981 1454 OFFCURVE",
"868 1454 CURVE SMOOTH",
"555 1454 OFFCURVE",
"297 1343 OFFCURVE",
"248 1087 CURVE SMOOTH",
"197 821 OFFCURVE",
"317 717 OFFCURVE",
"616 616 CURVE SMOOTH",
"860 535 OFFCURVE",
"899 487 OFFCURVE",
"879 385 CURVE SMOOTH",
"858 283 OFFCURVE",
"780 227 OFFCURVE",
"563 227 CURVE SMOOTH",
"459 227 OFFCURVE",
"326 242 OFFCURVE",
"180 270 CURVE SMOOTH",
"-16 309 LINE",
"139 399 LINE",
"0 16 LINE",
"-31 102 LINE",
"125 49 LINE SMOOTH",
"279 -4 OFFCURVE",
"397 -20 OFFCURVE",
"561 -20 CURVE SMOOTH"
);
}
);
width = 1280;
}
);
leftKerningGroup = S;
rightKerningGroup = S;
unicode = 0053;
},
{
glyphname = Germandbls;
lastChange = "2020-12-22 23:58:30 +0000";
layers = (
{
background = {
paths = (
{
closed = 1;
nodes = (
"1100 -20 OFFCURVE",
"1325 141 OFFCURVE",
"1374 389 CURVE SMOOTH",
"1421 635 OFFCURVE",
"1296 788 OFFCURVE",
"944 788 CURVE SMOOTH",
"866 788 LINE",
"907 760 LINE",
"1389 1288 LINE",
"1403 1348 LINE",
"1274 1417 OFFCURVE",
"1116 1454 OFFCURVE",
"961 1454 CURVE SMOOTH",
"659 1454 OFFCURVE",
"362 1321 OFFCURVE",
"309 1038 CURVE SMOOTH",
"106 0 LINE",
"186 0 LINE",
"389 1038 LINE SMOOTH",
"434 1274 OFFCURVE",
"690 1380 OFFCURVE",
"952 1380 CURVE SMOOTH",
"1094 1380 OFFCURVE",
"1235 1352 OFFCURVE",
"1350 1292 CURVE",
"1348 1346 LINE",
"817 770 LINE",
"809 715 LINE",
"924 715 LINE SMOOTH",
"1221 715 OFFCURVE",
"1329 592 OFFCURVE",
"1290 393 CURVE SMOOTH",
"1247 170 OFFCURVE",
"1085 55 OFFCURVE",
"815 55 CURVE SMOOTH",
"750 55 OFFCURVE",
"670 61 OFFCURVE",
"604 74 CURVE SMOOTH",
"492 94 LINE",
"541 121 LINE",
"506 -10 LINE",
"485 31 LINE",
"569 4 LINE SMOOTH",
"635 -16 OFFCURVE",
"729 -20 OFFCURVE",
"801 -20 CURVE SMOOTH"
);
}
);
};
guideLines = (
{
angle = 79;
position = "{630, -19}";
},
{
angle = 79;
position = "{593, 0}";
}
);
layerId = "13A5184A-77A5-4E03-80A5-A9198A2CA35F";
paths = (
{
closed = 1;
nodes = (
"1112 -20 OFFCURVE",
"1317 102 OFFCURVE",
"1368 358 CURVE SMOOTH",
"1417 610 OFFCURVE",
"1294 788 OFFCURVE",
"936 788 CURVE SMOOTH",
"866 788 LINE",
"907 760 LINE",
"1389 1288 LINE",
"1403 1348 LINE",
"1274 1417 OFFCURVE",
"1116 1454 OFFCURVE",
"961 1454 CURVE SMOOTH",
"637 1454 OFFCURVE",
"362 1321 OFFCURVE",
"309 1038 CURVE SMOOTH",
"106 0 LINE",
"186 0 LINE",
"385 1016 LINE SMOOTH",
"434 1274 OFFCURVE",
"690 1380 OFFCURVE",
"952 1380 CURVE SMOOTH",
"1094 1380 OFFCURVE",
"1235 1352 OFFCURVE",
"1350 1292 CURVE",
"1348 1346 LINE",
"817 770 LINE",
"809 715 LINE",
"924 715 LINE SMOOTH",
"1214 715 OFFCURVE",
"1329 586 OFFCURVE",
"1286 367 CURVE SMOOTH",
"1245 154 OFFCURVE",
"1083 53 OFFCURVE",
"801 53 CURVE SMOOTH",
"735 53 OFFCURVE",
"659 61 OFFCURVE",
"604 72 CURVE SMOOTH",
"492 92 LINE",
"541 121 LINE",
"506 -10 LINE",
"485 31 LINE",
"545 12 LINE SMOOTH",
"590 -2 OFFCURVE",
"713 -20 OFFCURVE",
"827 -20 CURVE SMOOTH"
);
}
);
width = 1479;
},
{
background = {
paths = (
{
closed = 1;
nodes = (
"1272 -96 OFFCURVE",
"1470 82 OFFCURVE",
"1495 313 CURVE SMOOTH",
"1522 571 OFFCURVE",
"1350 756 OFFCURVE",
"1030 788 CURVE SMOOTH",
"991 793 LINE",
"1104 705 LINE",
"1419 1135 LINE",
"1434 1262 LINE",
"1296 1352 OFFCURVE",
"1120 1411 OFFCURVE",
"952 1427 CURVE SMOOTH",
"604 1462 OFFCURVE",
"287 1364 OFFCURVE",
"252 1034 CURVE SMOOTH",
"150 49 LINE",
"418 20 LINE",
"516 967 LINE SMOOTH",
"535 1149 OFFCURVE",
"705 1210 OFFCURVE",
"903 1192 CURVE SMOOTH",
"1010 1182 OFFCURVE",
"1116 1147 OFFCURVE",
"1200 1090 CURVE",
"1188 1255 LINE",
"848 801 LINE",
"827 606 LINE",
"969 592 LINE SMOOTH",
"1159 573 OFFCURVE",
"1231 487 OFFCURVE",
"1219 365 CURVE SMOOTH",
"1204 221 OFFCURVE",
"1100 162 OFFCURVE",
"924 182 CURVE SMOOTH",
"868 188 OFFCURVE",
"797 207 OFFCURVE",
"752 219 CURVE SMOOTH",
"641 252 LINE",
"688 272 LINE",
"608 -4 LINE",
"594 55 LINE",
"690 12 LINE SMOOTH",
"776 -27 OFFCURVE",
"860 -45 OFFCURVE",
"958 -57 CURVE SMOOTH"
);
}
);
};
guideLines = (
{
angle = 79;
position = "{640, -65}";
},
{
angle = 79;
position = "{500, -89}";
}
);
layerId = "74CCE9C5-5564-42E0-9214-3BF0725DF94D";
paths = (
{
closed = 1;
nodes = (
"1155 -20 OFFCURVE",
"1368 156 OFFCURVE",
"1413 389 CURVE SMOOTH",
"1464 647 OFFCURVE",
"1307 827 OFFCURVE",
"985 827 CURVE SMOOTH",
"946 827 LINE",
"1073 752 LINE",
"1413 1210 LINE",
"1438 1339 LINE",
"1305 1411 OFFCURVE",
"1120 1454 OFFCURVE",
"944 1454 CURVE SMOOTH",
"602 1454 OFFCURVE",
"295 1368 OFFCURVE",
"219 981 CURVE SMOOTH",
"29 0 LINE",
"297 0 LINE",
"477 922 LINE SMOOTH",
"518 1130 OFFCURVE",
"680 1214 OFFCURVE",
"893 1214 CURVE SMOOTH",
"999 1214 OFFCURVE",
"1106 1192 OFFCURVE",
"1188 1145 CURVE",
"1167 1307 LINE",
"803 819 LINE",
"764 625 LINE",
"940 625 LINE SMOOTH",
"1104 625 OFFCURVE",
"1167 535 OFFCURVE",
"1143 412 CURVE SMOOTH",
"1114 268 OFFCURVE",
"1006 211 OFFCURVE",
"829 211 CURVE SMOOTH",
"774 211 OFFCURVE",
"688 223 OFFCURVE",
"643 231 CURVE SMOOTH",
"535 252 LINE",
"578 276 LINE",
"510 -4 LINE",
"479 51 LINE",
"563 27 LINE SMOOTH",
"664 -4 OFFCURVE",
"745 -20 OFFCURVE",
"877 -20 CURVE SMOOTH"
);
}
);
width = 1489;
},
{
background = {
paths = (
{
closed = 1;
nodes = (
"1288 -18 OFFCURVE",
"1497 197 OFFCURVE",
"1540 418 CURVE SMOOTH",
"1587 659 OFFCURVE",
"1477 819 OFFCURVE",
"1130 819 CURVE SMOOTH",
"1063 819 LINE",
"1212 741 LINE",
"1509 1122 LINE",
"1550 1329 LINE",
"1415 1411 OFFCURVE",
"1214 1452 OFFCURVE",
"1032 1452 CURVE SMOOTH",
"618 1452 OFFCURVE",
"244 1319 OFFCURVE",
"172 944 CURVE SMOOTH",
"-12 0 LINE",
"444 0 LINE",
"621 903 LINE SMOOTH",
"645 1032 OFFCURVE",
"760 1085 OFFCURVE",
"903 1085 CURVE SMOOTH",
"977 1085 OFFCURVE",
"1049 1067 OFFCURVE",
"1102 1032 CURVE",
"1157 1239 LINE",
"831 815 LINE",
"786 582 LINE",
"983 582 LINE SMOOTH",
"1102 582 OFFCURVE",
"1128 535 OFFCURVE",
"1114 467 CURVE SMOOTH",
"1098 379 OFFCURVE",
"1018 338 OFFCURVE",
"918 338 CURVE SMOOTH",
"866 338 OFFCURVE",
"801 350 OFFCURVE",
"762 356 CURVE SMOOTH",
"645 377 LINE",
"702 430 LINE",
"545 4 LINE",
"528 70 LINE",
"633 35 LINE SMOOTH",
"737 0 OFFCURVE",
"817 -18 OFFCURVE",
"946 -18 CURVE SMOOTH"
);
}
);
};
guideLines = (
{
angle = 79;
position = "{720, 39}";
},
{
angle = 79;
position = "{513, 70}";
}
);
layerId = "6D60D92C-1450-4586-BB49-599D0D4C1213";
paths = (
{
closed = 1;
nodes = (
"1288 -18 OFFCURVE",
"1489 152 OFFCURVE",
"1532 373 CURVE SMOOTH",
"1579 612 OFFCURVE",
"1470 819 OFFCURVE",
"1130 819 CURVE SMOOTH",
"1063 819 LINE",
"1212 741 LINE",
"1509 1122 LINE",
"1548 1311 LINE",
"1413 1405 OFFCURVE",
"1198 1452 OFFCURVE",
"967 1452 CURVE SMOOTH",
"547 1452 OFFCURVE",
"242 1303 OFFCURVE",
"168 924 CURVE SMOOTH",
"-12 0 LINE",
"444 0 LINE",
"621 903 LINE SMOOTH",
"645 1032 OFFCURVE",
"760 1085 OFFCURVE",
"903 1085 CURVE SMOOTH",
"977 1085 OFFCURVE",
"1053 1071 OFFCURVE",
"1106 1036 CURVE",
"1157 1239 LINE",
"831 815 LINE",
"786 582 LINE",
"983 582 LINE SMOOTH",
"1102 582 OFFCURVE",
"1126 520 OFFCURVE",
"1112 453 CURVE SMOOTH",
"1096 365 OFFCURVE",
"1018 338 OFFCURVE",
"918 338 CURVE SMOOTH",
"866 338 OFFCURVE",
"793 346 OFFCURVE",
"729 358 CURVE SMOOTH",
"637 375 LINE",
"682 430 LINE",
"555 4 LINE",
"528 70 LINE",
"633 35 LINE SMOOTH",
"737 0 OFFCURVE",
"848 -18 OFFCURVE",
"997 -18 CURVE SMOOTH"
);
}
);
width = 1585;
}
);
unicode = 1E9E;
},
{
glyphname = Schwa;
lastChange = "2020-12-22 23:58:30 +0000";
layers = (
{
background = {
paths = (
{
closed = 1;
nodes = (
"1038 -20 OFFCURVE",
"1391 317 OFFCURVE",
"1468 719 CURVE SMOOTH",
"1556 1176 OFFCURVE",
"1323 1454 OFFCURVE",
"879 1454 CURVE SMOOTH",
"727 1454 OFFCURVE",
"580 1425 OFFCURVE",
"449 1384 CURVE SMOOTH",
"309 1341 LINE",
"352 1423 LINE",
"369 1260 LINE",
"332 1288 LINE",
"455 1325 LINE SMOOTH",
"596 1368 OFFCURVE",
"723 1380 OFFCURVE",
"856 1380 CURVE SMOOTH",
"1243 1380 OFFCURVE",
"1468 1135 OFFCURVE",
"1386 717 CURVE SMOOTH",
"1309 315 OFFCURVE",
"985 53 OFFCURVE",
"657 53 CURVE SMOOTH",
"305 53 OFFCURVE",
"164 305 OFFCURVE",
"236 676 CURVE",
"184 635 LINE",
"1415 635 LINE",
"1430 709 LINE",
"164 709 LINE",
"156 662 LINE SMOOTH",
"92 297 OFFCURVE",
"217 -20 OFFCURVE",
"643 -20 CURVE SMOOTH"
);
}
);
};
layerId = "13A5184A-77A5-4E03-80A5-A9198A2CA35F";
paths = (
{
closed = 1;
nodes = (
"1065 -20 OFFCURVE",
"1391 301 OFFCURVE",
"1466 694 CURVE SMOOTH",
"1561 1186 OFFCURVE",
"1305 1454 OFFCURVE",
"885 1454 CURVE SMOOTH",
"766 1454 OFFCURVE",
"627 1436 OFFCURVE",
"483 1391 CURVE SMOOTH",
"311 1337 LINE",
"336 1423 LINE",
"387 1260 LINE",
"334 1290 LINE",
"498 1333 LINE SMOOTH",
"625 1366 OFFCURVE",
"743 1380 OFFCURVE",
"854 1380 CURVE SMOOTH",
"1233 1380 OFFCURVE",
"1477 1155 OFFCURVE",
"1391 717 CURVE SMOOTH",
"1313 315 OFFCURVE",
"987 53 OFFCURVE",
"659 53 CURVE SMOOTH",
"299 53 OFFCURVE",
"168 295 OFFCURVE",
"242 676 CURVE",
"186 635 LINE",
"1417 635 LINE",
"1432 709 LINE",
"164 709 LINE",
"156 662 LINE SMOOTH",
"92 297 OFFCURVE",
"219 -20 OFFCURVE",
"645 -20 CURVE SMOOTH"
);
}
);
width = 1562;
},
{
background = {
components = (
{
name = O;
transform = "{1, 0, 0, 1, -9, 0}";
}
);
};
layerId = "74CCE9C5-5564-42E0-9214-3BF0725DF94D";
paths = (
{
closed = 1;
nodes = (
"1133 -20 OFFCURVE",
"1427 229 OFFCURVE",
"1513 674 CURVE SMOOTH",
"1606 1155 OFFCURVE",
"1350 1454 OFFCURVE",
"924 1454 CURVE SMOOTH",
"758 1454 OFFCURVE",
"602 1432 OFFCURVE",
"453 1380 CURVE SMOOTH",
"289 1325 LINE",
"295 1421 LINE",
"381 1044 LINE",
"311 1130 LINE",
"479 1165 LINE SMOOTH",
"612 1192 OFFCURVE",
"729 1206 OFFCURVE",
"840 1206 CURVE SMOOTH",
"1165 1206 OFFCURVE",
"1313 1051 OFFCURVE",
"1243 686 CURVE SMOOTH",
"1186 379 OFFCURVE",
"977 227 OFFCURVE",
"731 227 CURVE SMOOTH",
"479 227 OFFCURVE",
"354 381 OFFCURVE",
"410 668 CURVE",
"319 584 LINE",
"1280 584 LINE",
"1323 799 LINE",
"158 799 LINE",
"143 727 LINE SMOOTH",
"57 317 OFFCURVE",
"258 -20 OFFCURVE",
"700 -20 CURVE SMOOTH"
);
}
);
width = 1586;
},
{
background = {
paths = (
{
closed = 1;
nodes = (
"1087 -18 OFFCURVE",
"1442 143 OFFCURVE",
"1544 662 CURVE SMOOTH",
"1642 1157 OFFCURVE",
"1356 1452 OFFCURVE",
"915 1452 CURVE SMOOTH",
"711 1452 OFFCURVE",
"541 1423 OFFCURVE",
"326 1354 CURVE SMOOTH",
"139 1292 LINE",
"209 1419 LINE",
"311 827 LINE",
"229 989 LINE",
"440 1020 LINE SMOOTH",
"596 1042 OFFCURVE",
"700 1053 OFFCURVE",
"795 1053 CURVE SMOOTH",
"1032 1053 OFFCURVE",
"1151 956 OFFCURVE",
"1104 713 CURVE SMOOTH",
"1051 442 OFFCURVE",
"942 369 OFFCURVE",
"780 369 CURVE SMOOTH",
"606 369 OFFCURVE",
"551 457 OFFCURVE",
"578 659 CURVE",
"440 559 LINE",
"1130 559 LINE",
"1190 860 LINE",
"125 860 LINE",
"106 766 LINE SMOOTH",
"16 299 OFFCURVE",
"266 -18 OFFCURVE",
"735 -18 CURVE SMOOTH"
);
}
);
};
guideLines = (
{
angle = 79;
position = "{364, 103}";
}
);
layerId = "6D60D92C-1450-4586-BB49-599D0D4C1213";
paths = (
{
closed = 1;
nodes = (
"1102 -18 OFFCURVE",
"1442 143 OFFCURVE",
"1544 662 CURVE SMOOTH",
"1642 1157 OFFCURVE",
"1356 1452 OFFCURVE",
"915 1452 CURVE SMOOTH",
"711 1452 OFFCURVE",
"541 1423 OFFCURVE",
"326 1354 CURVE SMOOTH",
"139 1292 LINE",
"209 1419 LINE",
"311 827 LINE",
"229 989 LINE",
"440 1020 LINE SMOOTH",
"596 1042 OFFCURVE",
"700 1053 OFFCURVE",
"795 1053 CURVE SMOOTH",
"1032 1053 OFFCURVE",
"1151 956 OFFCURVE",
"1104 713 CURVE SMOOTH",
"1051 442 OFFCURVE",
"942 369 OFFCURVE",
"780 369 CURVE SMOOTH",
"606 369 OFFCURVE",
"551 457 OFFCURVE",
"578 659 CURVE",
"440 559 LINE",
"1130 559 LINE",
"1190 860 LINE",
"125 860 LINE",
"111 788 LINE SMOOTH",
"20 315 OFFCURVE",
"307 -18 OFFCURVE",
"750 -18 CURVE SMOOTH"
);
}
);
width = 1591;
}
);
rightMetricsKey = O;
unicode = 018F;
},
{
color = 4;
glyphname = T;
lastChange = "2020-12-22 23:58:30 +0000";
layers = (
{
anchors = (
{
name = bottom;
position = "{547, -72}";
},
{
name = top.case;
position = "{846, 1475}";
}
);
layerId = "13A5184A-77A5-4E03-80A5-A9198A2CA35F";
paths = (
{
closed = 1;
nodes = (
"598 0 LINE",
"862 1360 LINE",
"1419 1360 LINE",
"1434 1434 LINE",
"242 1434 LINE",
"227 1360 LINE",
"782 1360 LINE",
"518 0 LINE"
);
}
);
width = 1315;
},
{
anchors = (
{
name = bottom;
position = "{588, -72}";
},
{
name = top.case;
position = "{889, 1475}";
}
);
layerId = "6D60D92C-1450-4586-BB49-599D0D4C1213";
paths = (
{
closed = 1;
nodes = (
"831 0 LINE",
"1032 1034 LINE",
"1458 1034 LINE",
"1536 1434 LINE",
"225 1434 LINE",
"147 1034 LINE",
"575 1034 LINE",
"375 0 LINE"
);
}
);
width = 1413;
},
{
anchors = (
{
name = bottom;
position = "{594, -72}";
},
{
name = top.case;
position = "{874, 1475}";
}
);
background = {
paths = (
{
closed = 1;
nodes = (
"721 0 LINE",
"950 1180 LINE",
"1421 1180 LINE",
"1470 1434 LINE",
"260 1434 LINE",
"211 1180 LINE",
"684 1180 LINE",
"455 0 LINE"
);
}
);
};
guideLines = (
{
position = "{180, 586}";
}
);
layerId = "74CCE9C5-5564-42E0-9214-3BF0725DF94D";
paths = (
{
closed = 1;
nodes = (
"723 0 LINE",
"956 1198 LINE",
"1446 1198 LINE",
"1491 1434 LINE",
"240 1434 LINE",
"195 1198 LINE",
"688 1198 LINE",
"455 0 LINE"
);
}
);
width = 1376;
}
);
leftKerningGroup = T;
rightKerningGroup = T;
unicode = 0054;
},
{
color = 3;
glyphname = Tbar;
lastChange = "2020-12-22 23:58:30 +0000";
layers = (
{
components = (
{
name = T;
}
);
layerId = "13A5184A-77A5-4E03-80A5-A9198A2CA35F";
paths = (
{
closed = 1;
nodes = (
"1075 717 LINE",
"1087 791 LINE",
"334 791 LINE",
"322 717 LINE"
);
}
);
width = 1315;
},
{
components = (
{
name = T;
}
);
layerId = "6D60D92C-1450-4586-BB49-599D0D4C1213";
paths = (
{
closed = 1;
nodes = (
"1219 512 LINE",
"1264 754 LINE",
"233 754 LINE",
"188 512 LINE"
);
}
);
width = 1413;
},
{
components = (
{
alignment = -1;
name = T;
}
);
layerId = "74CCE9C5-5564-42E0-9214-3BF0725DF94D";
paths = (
{
closed = 1;
nodes = (
"1149 602 LINE",
"1186 782 LINE",
"297 782 LINE",
"260 602 LINE"
);
}
);
width = 1376;
}
);
leftKerningGroup = T;
leftMetricsKey = T;
rightKerningGroup = T;
rightMetricsKey = T;
unicode = 0166;
},
{
glyphname = U;
lastChange = "2020-12-22 23:58:30 +0000";
layers = (
{
anchors = (
{
name = bottom;
position = "{637, -72}";
},
{
name = ogonek;
position = "{735, 20}";
},
{
name = top.case;
position = "{936, 1475}";
}
);
background = {
paths = (
{
closed = 1;
nodes = (
"1022 -20 OFFCURVE",
"1253 154 OFFCURVE",
"1331 561 CURVE SMOOTH",
"1501 1434 LINE",
"1425 1434 LINE",
"1260 584 LINE SMOOTH",
"1186 205 OFFCURVE",
"981 53 OFFCURVE",
"672 53 CURVE SMOOTH",
"369 53 OFFCURVE",
"215 205 OFFCURVE",
"289 584 CURVE SMOOTH",
"455 1434 LINE",
"375 1434 LINE",
"211 584 LINE SMOOTH",
"131 176 OFFCURVE",
"313 -20 OFFCURVE",
"670 -20 CURVE SMOOTH"
);
}
);
};
layerId = "13A5184A-77A5-4E03-80A5-A9198A2CA35F";
paths = (
{
closed = 1;
nodes = (
"1012 -20 OFFCURVE",
"1243 154 OFFCURVE",
"1321 561 CURVE SMOOTH",
"1491 1434 LINE",
"1415 1434 LINE",
"1249 584 LINE SMOOTH",
"1176 205 OFFCURVE",
"971 53 OFFCURVE",
"662 53 CURVE SMOOTH",
"356 53 OFFCURVE",
"205 201 OFFCURVE",
"283 598 CURVE SMOOTH",
"446 1434 LINE",
"365 1434 LINE",
"205 606 LINE SMOOTH",
"121 172 OFFCURVE",
"301 -20 OFFCURVE",
"659 -20 CURVE SMOOTH"
);
}
);
width = 1495;
},
{
anchors = (
{
name = bottom;
position = "{680, -72}";
},
{
name = ogonek;
position = "{854, 20}";
},
{
name = top.case;
position = "{969, 1475}";
}
);
background = {
paths = (
{
closed = 1;
nodes = (
"1085 -18 OFFCURVE",
"1413 217 OFFCURVE",
"1485 586 CURVE SMOOTH",
"1651 1434 LINE",
"1208 1434 LINE",
"1055 645 LINE SMOOTH",
"1018 457 OFFCURVE",
"922 406 OFFCURVE",
"764 406 CURVE SMOOTH",
"602 406 OFFCURVE",
"522 457 OFFCURVE",
"559 645 CURVE SMOOTH",
"713 1434 LINE",
"256 1434 LINE",
"90 586 LINE SMOOTH",
"18 217 OFFCURVE",
"231 -18 OFFCURVE",
"668 -18 CURVE SMOOTH"
);
}
);
};
layerId = "6D60D92C-1450-4586-BB49-599D0D4C1213";
paths = (
{
closed = 1;
nodes = (
"1098 -18 OFFCURVE",
"1403 174 OFFCURVE",
"1487 600 CURVE SMOOTH",
"1651 1434 LINE",
"1208 1434 LINE",
"1049 623 LINE SMOOTH",
"1016 457 OFFCURVE",
"907 408 OFFCURVE",
"770 408 CURVE SMOOTH",
"621 408 OFFCURVE",
"524 455 OFFCURVE",
"557 627 CURVE SMOOTH",
"715 1434 LINE",
"256 1434 LINE",
"98 623 LINE SMOOTH",
"8 156 OFFCURVE",
"346 -18 OFFCURVE",
"688 -18 CURVE SMOOTH"
);
}
);
width = 1559;
},
{
anchors = (
{
name = bottom;
position = "{637, -72}";
},
{
name = ogonek;
position = "{745, 20}";
},
{
name = top.case;
position = "{926, 1475}";
}
);
background = {
paths = (
{
closed = 1;
nodes = (
"1047 -20 OFFCURVE",
"1294 160 OFFCURVE",
"1376 553 CURVE SMOOTH",
"1548 1434 LINE",
"1288 1434 LINE",
"1126 604 LINE SMOOTH",
"1073 332 OFFCURVE",
"928 231 OFFCURVE",
"705 231 CURVE SMOOTH",
"477 231 OFFCURVE",
"367 328 OFFCURVE",
"420 612 CURVE SMOOTH",
"582 1434 LINE",
"311 1434 LINE",
"154 614 LINE SMOOTH",
"66 164 OFFCURVE",
"313 -20 OFFCURVE",
"672 -20 CURVE SMOOTH"
);
}
);
};
layerId = "74CCE9C5-5564-42E0-9214-3BF0725DF94D";
paths = (
{
closed = 1;
nodes = (
"1026 -20 OFFCURVE",
"1272 160 OFFCURVE",
"1352 553 CURVE SMOOTH",
"1524 1434 LINE",
"1264 1434 LINE",
"1104 616 LINE SMOOTH",
"1051 336 OFFCURVE",
"907 238 OFFCURVE",
"690 238 CURVE SMOOTH",
"475 238 OFFCURVE",
"367 336 OFFCURVE",
"420 616 CURVE SMOOTH",
"580 1434 LINE",
"311 1434 LINE",
"152 614 LINE SMOOTH",
"66 164 OFFCURVE",
"307 -20 OFFCURVE",
"657 -20 CURVE SMOOTH"
);
}
);
width = 1479;
}
);
leftKerningGroup = U;
rightKerningGroup = U;
unicode = 0055;
},
{
glyphname = Uhorn;
lastChange = "2020-12-22 23:58:30 +0000";
layers = (
{
anchors = (
{
name = bottom;
position = "{637, -72}";
},
{
name = ogonek;
position = "{735, 20}";
},
{
name = top.case;
position = "{936, 1475}";
}
);
components = (
{
name = U;
}
);
layerId = "13A5184A-77A5-4E03-80A5-A9198A2CA35F";
paths = (
{
closed = 1;
nodes = (
"1845 1327 OFFCURVE",
"1942 1397 OFFCURVE",
"1978 1579 CURVE SMOOTH",
"1993 1651 OFFCURVE",
"1980 1729 OFFCURVE",
"1950 1808 CURVE",
"2077 1772 LINE",
"1810 1718 LINE",
"1921 1798 LINE",
"1919 1712 OFFCURVE",
"1915 1634 OFFCURVE",
"1905 1577 CURVE SMOOTH",
"1878 1427 OFFCURVE",
"1798 1393 OFFCURVE",
"1702 1393 CURVE SMOOTH",
"1634 1393 OFFCURVE",
"1563 1413 OFFCURVE",
"1491 1434 CURVE",
"1464 1368 LINE",
"1546 1341 OFFCURVE",
"1628 1327 OFFCURVE",
"1704 1327 CURVE SMOOTH"
);
}
);
width = 1495;
},
{
anchors = (
{
name = bottom;
position = "{637, -72}";
},
{
name = ogonek;
position = "{745, 20}";
},
{
name = top.case;
position = "{926, 1475}";
}
);
background = {
components = (
{
name = Ohorn;
transform = "{1, 0, 0, 1, 88, 8}";
}
);
};
components = (
{
alignment = -1;
name = U;
}
);
layerId = "74CCE9C5-5564-42E0-9214-3BF0725DF94D";
paths = (
{
closed = 1;
nodes = (
"1847 1190 OFFCURVE",
"1995 1253 OFFCURVE",
"2038 1479 CURVE SMOOTH",
"2066 1622 OFFCURVE",
"2036 1774 OFFCURVE",
"1989 1896 CURVE",
"2173 1847 LINE",
"1739 1759 LINE",
"1825 1815 LINE",
"1825 1726 OFFCURVE",
"1817 1651 OFFCURVE",
"1804 1589 CURVE SMOOTH",
"1780 1466 OFFCURVE",
"1708 1417 OFFCURVE",
"1640 1417 CURVE SMOOTH",
"1602 1417 OFFCURVE",
"1569 1423 OFFCURVE",
"1524 1434 CURVE",
"1444 1227 LINE",
"1503 1202 OFFCURVE",
"1579 1190 OFFCURVE",
"1653 1190 CURVE SMOOTH"
);
}
);
width = 1622;
},
{
anchors = (
{
name = bottom;
position = "{625, -72}";
},
{
name = ogonek;
position = "{743, 20}";
},
{
name = top.case;
position = "{928, 1475}";
}
);
background = {
paths = (
{
closed = 1;
nodes = (
"2028 1145 OFFCURVE",
"2150 1241 OFFCURVE",
"2187 1429 CURVE SMOOTH",
"2217 1581 OFFCURVE",
"2194 1735 OFFCURVE",
"2099 1965 CURVE",
"2340 1882 LINE",
"1742 1764 LINE",
"1890 1837 LINE",
"1909 1723 OFFCURVE",
"1918 1614 OFFCURVE",
"1904 1544 CURVE SMOOTH",
"1885 1456 OFFCURVE",
"1828 1407 OFFCURVE",
"1713 1407 CURVE SMOOTH",
"1707 1407 OFFCURVE",
"1701 1409 OFFCURVE",
"1697 1409 CURVE",
"1582 1153 LINE",
"1627 1149 OFFCURVE",
"1668 1145 OFFCURVE",
"1709 1145 CURVE SMOOTH"
);
}
);
};
components = (
{
name = U;
}
);
layerId = "6D60D92C-1450-4586-BB49-599D0D4C1213";
paths = (
{
closed = 1;
nodes = (
"2003 1130 OFFCURVE",
"2153 1239 OFFCURVE",
"2187 1427 CURVE SMOOTH",
"2215 1577 OFFCURVE",
"2194 1724 OFFCURVE",
"2121 1927 CURVE",
"2357 1888 LINE",
"1735 1763 LINE",
"1891 1825 LINE",
"1907 1739 OFFCURVE",
"1909 1665 OFFCURVE",
"1909 1604 CURVE SMOOTH",
"1909 1489 OFFCURVE",
"1839 1421 OFFCURVE",
"1735 1421 CURVE SMOOTH",
"1708 1421 OFFCURVE",
"1679 1425 OFFCURVE",
"1651 1434 CURVE",
"1569 1153 LINE",
"1622 1147 OFFCURVE",
"1673 1145 OFFCURVE",
"1720 1143 CURVE SMOOTH"
);
}
);
width = 1843;
}
);
leftMetricsKey = U;
unicode = 01AF;
},
{
glyphname = V;
lastChange = "2020-12-22 23:58:30 +0000";
layers = (
{
background = {
paths = (
{
closed = 1;
nodes = (
"642 -10 LINE",
"1558 1434 LINE",
"1468 1434 LINE",
"609 76 LINE",
"605 76 LINE",
"278 1434 LINE",
"196 1434 LINE",
"546 -10 LINE"
);
}
);
};
guideLines = (
{
position = "{422, 23}";
}
);
layerId = "13A5184A-77A5-4E03-80A5-A9198A2CA35F";
paths = (
{
closed = 1;
nodes = (
"654 -10 LINE",
"1558 1434 LINE",
"1468 1434 LINE",
"603 47 LINE",
"599 47 LINE",
"278 1434 LINE",
"196 1434 LINE",
"534 -10 LINE"
);
}
);
width = 1392;
},
{
background = {
paths = (
{
closed = 1;
nodes = (
"1026 39 LINE",
"1778 1384 LINE",
"1276 1464 LINE",
"879 606 LINE",
"871 606 LINE",
"729 1550 LINE",
"209 1632 LINE",
"524 119 LINE"
);
}
);
};
layerId = "6D60D92C-1450-4586-BB49-599D0D4C1213";
paths = (
{
closed = 1;
nodes = (
"993 0 LINE",
"1798 1434 LINE",
"1264 1434 LINE",
"850 524 LINE",
"842 524 LINE",
"715 1434 LINE",
"209 1434 LINE",
"504 0 LINE"
);
}
);
width = 1660;
},
{
background = {
paths = (
{
closed = 1;
nodes = (
"796 68 LINE",
"1635 1399 LINE",
"1351 1446 LINE",
"745 428 LINE",
"738 428 LINE",
"482 1581 LINE",
"188 1628 LINE",
"558 106 LINE"
);
}
);
};
layerId = "74CCE9C5-5564-42E0-9214-3BF0725DF94D";
paths = (
{
closed = 1;
nodes = (
"751 -12 LINE",
"1642 1434 LINE",
"1330 1434 LINE",
"702 348 LINE",
"695 348 LINE",
"484 1434 LINE",
"204 1434 LINE",
"509 -12 LINE"
);
}
);
width = 1489;
}
);
leftMetricsKey = "=A+5";
rightMetricsKey = "=A+5";
unicode = 0056;
},
{
glyphname = W;
lastChange = "2020-12-22 23:58:30 +0000";
layers = (
{
anchors = (
{
name = top.case;
position = "{1260, 1475}";
}
);
background = {
paths = (
{
closed = 1;
nodes = (
"567 -10 LINE",
"1229 1321 LINE",
"1247 1321 LINE",
"1225 1405 LINE",
"1376 -10 LINE",
"1483 -10 LINE",
"2259 1434 LINE",
"2175 1434 LINE",
"1444 47 LINE",
"1419 47 LINE",
"1442 27 LINE",
"1292 1434 LINE",
"1204 1434 LINE",
"524 47 LINE",
"489 47 LINE",
"524 18 LINE",
"332 1434 LINE",
"252 1434 LINE",
"457 -10 LINE"
);
}
);
};
guideLines = (
{
position = "{427, 23}";
}
);
layerId = "13A5184A-77A5-4E03-80A5-A9198A2CA35F";
paths = (
{
closed = 1;
nodes = (
"567 -10 LINE",
"1241 1380 LINE",
"1276 1380 LINE",
"1241 1405 LINE",
"1376 -10 LINE",
"1483 -10 LINE",
"2259 1434 LINE",
"2175 1434 LINE",
"1444 47 LINE",
"1419 47 LINE",
"1442 27 LINE",
"1309 1434 LINE",
"1188 1434 LINE",
"524 47 LINE",
"489 47 LINE",
"524 18 LINE",
"332 1434 LINE",
"252 1434 LINE",
"457 -10 LINE"
);
}
);
width = 2150;
},
{
anchors = (
{
name = top.case;
position = "{1333, 1475}";
}
);
background = {
paths = (
{
closed = 1;
nodes = (
"836 0 LINE",
"1198 778 LINE",
"1233 786 LINE",
"1190 918 LINE",
"1294 0 LINE",
"1749 0 LINE",
"2462 1434 LINE",
"1966 1434 LINE",
"1587 627 LINE",
"1544 627 LINE",
"1587 547 LINE",
"1513 1434 LINE",
"1151 1434 LINE",
"768 606 LINE",
"739 606 LINE",
"764 528 LINE",
"698 1434 LINE",
"236 1434 LINE",
"395 0 LINE"
);
}
);
};
guideLines = (
{
position = "{72, 271}";
},
{
position = "{72, 390}";
}
);
layerId = "6D60D92C-1450-4586-BB49-599D0D4C1213";
paths = (
{
closed = 1;
nodes = (
"836 0 LINE",
"1194 803 LINE",
"1233 803 LINE",
"1190 918 LINE",
"1294 0 LINE",
"1749 0 LINE",
"2462 1434 LINE",
"1966 1434 LINE",
"1579 555 LINE",
"1536 555 LINE",
"1581 508 LINE",
"1513 1434 LINE",
"1151 1434 LINE",
"756 555 LINE",
"727 555 LINE",
"758 528 LINE",
"698 1434 LINE",
"236 1434 LINE",
"395 0 LINE"
);
}
);
width = 2349;
},
{
anchors = (
{
name = top.case;
position = "{1298, 1475}";
}
);
background = {
paths = (
{
closed = 1;
nodes = (
"682 74 LINE",
"1184 1044 LINE",
"1223 1036 LINE",
"1176 1159 LINE",
"1290 -45 LINE",
"1573 -100 LINE",
"2306 1231 LINE",
"2042 1282 LINE",
"1513 299 LINE",
"1470 309 LINE",
"1518 217 LINE",
"1393 1417 LINE",
"1128 1468 LINE",
"610 459 LINE",
"573 467 LINE",
"614 391 LINE",
"496 1583 LINE",
"213 1638 LINE",
"403 127 LINE"
);
}
);
};
guideLines = (
{
position = "{85, 164}";
},
{
position = "{149, 508}";
}
);
layerId = "74CCE9C5-5564-42E0-9214-3BF0725DF94D";
paths = (
{
closed = 1;
nodes = (
"690 -12 LINE",
"1190 1030 LINE",
"1231 1030 LINE",
"1180 1155 LINE",
"1290 -12 LINE",
"1565 -12 LINE",
"2290 1434 LINE",
"2001 1434 LINE",
"1501 336 LINE",
"1450 336 LINE",
"1507 289 LINE",
"1384 1442 LINE",
"1130 1442 LINE",
"618 336 LINE",
"580 336 LINE",
"618 285 LINE",
"526 1434 LINE",
"240 1434 LINE",
"414 -12 LINE"
);
}
);
width = 2173;
}
);
leftKerningGroup = W;
rightKerningGroup = W;
unicode = 0057;
},
{
glyphname = X;
lastChange = "2020-12-22 23:58:30 +0000";
layers = (
{
background = {
paths = (
{
closed = 1;
nodes = (
"1321 27 LINE",
"842 825 LINE",
"817 846 LINE",
"381 1573 LINE",
"287 1587 LINE",
"756 803 LINE",
"776 784 LINE",
"1231 35 LINE"
);
},
{
closed = 1;
nodes = (
"203 152 LINE",
"795 766 LINE",
"760 831 LINE",
"104 162 LINE"
);
},
{
closed = 1;
nodes = (
"1462 1452 LINE",
"1370 1460 LINE",
"778 827 LINE",
"815 762 LINE"
);
}
);
};
layerId = "13A5184A-77A5-4E03-80A5-A9198A2CA35F";
paths = (
{
closed = 1;
nodes = (
"1171 0 LINE",
"752 739 LINE",
"735 760 LINE",
"354 1434 LINE",
"268 1434 LINE",
"676 711 LINE",
"692 692 LINE",
"1087 0 LINE"
);
},
{
closed = 1;
nodes = (
"61 0 LINE",
"705 680 LINE",
"668 741 LINE",
"-47 0 LINE"
);
},
{
closed = 1;
nodes = (
"1436 1434 LINE",
"1335 1434 LINE",
"686 739 LINE",
"727 678 LINE"
);
}
);
width = 1321;
},
{
background = {
paths = (
{
closed = 1;
nodes = (
"1438 -86 LINE",
"1028 852 LINE",
"954 911 LINE",
"733 1477 LINE",
"203 1561 LINE",
"631 578 LINE",
"698 535 LINE",
"946 -8 LINE"
);
},
{
closed = 1;
nodes = (
"451 72 LINE",
"797 457 LINE",
"586 866 LINE",
"-35 147 LINE"
);
},
{
closed = 1;
nodes = (
"1655 1331 LINE",
"1161 1409 LINE",
"854 1077 LINE",
"1049 670 LINE"
);
}
);
};
layerId = "6D60D92C-1450-4586-BB49-599D0D4C1213";
paths = (
{
closed = 1;
nodes = (
"1407 0 LINE",
"1014 860 LINE",
"946 909 LINE",
"711 1434 LINE",
"205 1434 LINE",
"647 530 LINE",
"715 496 LINE",
"936 0 LINE"
);
},
{
closed = 1;
nodes = (
"430 0 LINE",
"772 442 LINE",
"555 803 LINE",
"-84 0 LINE"
);
},
{
closed = 1;
nodes = (
"1675 1434 LINE",
"1149 1434 LINE",
"840 1044 LINE",
"1036 684 LINE"
);
}
);
width = 1532;
},
{
background = {
paths = (
{
closed = 0;
nodes = (
"647 633 LINE",
"240 1434 LINE",
"522 1434 LINE",
"827 840 LINE"
);
}
);
};
layerId = "74CCE9C5-5564-42E0-9214-3BF0725DF94D";
paths = (
{
closed = 1;
nodes = (
"1276 0 LINE",
"868 801 LINE",
"829 836 LINE",
"522 1434 LINE",
"242 1434 LINE",
"653 621 LINE",
"688 594 LINE",
"993 0 LINE"
);
},
{
closed = 1;
nodes = (
"262 0 LINE",
"750 557 LINE",
"606 772 LINE",
"-59 0 LINE"
);
},
{
closed = 1;
nodes = (
"1548 1434 LINE",
"1235 1434 LINE",
"756 897 LINE",
"887 680 LINE"
);
}
);
width = 1423;
}
);
unicode = 0058;
},
{
glyphname = Y;
lastChange = "2020-12-22 23:58:30 +0000";
layers = (
{
anchors = (
{
name = bottom;
position = "{557, -72}";
},
{
name = top.case;
position = "{858, 1475}";
}
);
background = {
paths = (
{
closed = 1;
nodes = (
"608 0 LINE",
"731 641 LINE",
"1468 1434 LINE",
"1360 1434 LINE",
"700 711 LINE",
"326 1434 LINE",
"231 1434 LINE",
"653 647 LINE",
"528 0 LINE"
);
}
);
};
layerId = "13A5184A-77A5-4E03-80A5-A9198A2CA35F";
paths = (
{
closed = 1;
nodes = (
"608 0 LINE",
"731 641 LINE",
"1468 1434 LINE",
"1360 1434 LINE",
"702 711 LINE",
"698 711 LINE",
"326 1434 LINE",
"231 1434 LINE",
"653 647 LINE",
"528 0 LINE"
);
}
);
width = 1339;
},
{
anchors = (
{
name = bottom;
position = "{700, -72}";
},
{
name = top.case;
position = "{1024, 1475}";
}
);
background = {
paths = (
{
closed = 1;
nodes = (
"961 0 LINE",
"1044 430 LINE",
"1806 1434 LINE",
"1307 1434 LINE",
"903 840 LINE",
"895 840 LINE",
"723 1434 LINE",
"203 1434 LINE",
"584 414 LINE",
"504 0 LINE"
);
}
);
};
guideLines = (
{
position = "{375, 262}";
}
);
layerId = "6D60D92C-1450-4586-BB49-599D0D4C1213";
paths = (
{
closed = 1;
nodes = (
"963 0 LINE",
"1044 430 LINE",
"1796 1434 LINE",
"1262 1434 LINE",
"899 840 LINE",
"895 840 LINE",
"705 1434 LINE",
"225 1434 LINE",
"602 481 LINE",
"506 0 LINE"
);
}
);
width = 1673;
},
{
anchors = (
{
name = bottom;
position = "{621, -72}";
},
{
name = top.case;
position = "{932, 1475}";
}
);
background = {
paths = (
{
closed = 1;
nodes = (
"823 18 LINE",
"893 514 LINE",
"1591 1358 LINE",
"1272 1403 LINE",
"805 793 LINE",
"797 795 LINE",
"516 1509 LINE",
"188 1556 LINE",
"629 551 LINE",
"559 55 LINE"
);
}
);
};
layerId = "74CCE9C5-5564-42E0-9214-3BF0725DF94D";
paths = (
{
closed = 1;
nodes = (
"776 0 LINE",
"870 489 LINE",
"1649 1434 LINE",
"1288 1434 LINE",
"791 756 LINE",
"782 756 LINE",
"526 1434 LINE",
"227 1434 LINE",
"608 512 LINE",
"508 0 LINE"
);
}
);
width = 1520;
}
);
leftKerningGroup = Y;
rightKerningGroup = Y;
unicode = 0059;
},
{
glyphname = Z;
lastChange = "2020-12-22 23:58:30 +0000";
layers = (
{
anchors = (
{
name = top.case;
position = "{797, 1475}";
}
);
background = {
anchors = (
{
name = top.case;
position = "{737, 1473}";
}
);
paths = (
{
closed = 1;
nodes = (
"1139 -53 LINE",
"1147 20 LINE",
"170 123 LINE",
"1266 1317 LINE",
"1272 1374 LINE",
"229 1483 LINE",
"221 1409 LINE",
"1161 1311 LINE",
"66 119 LINE",
"59 59 LINE"
);
}
);
};
layerId = "13A5184A-77A5-4E03-80A5-A9198A2CA35F";
paths = (
{
closed = 1;
nodes = (
"1069 0 LINE",
"1083 74 LINE",
"23 74 LINE",
"51 6 LINE",
"1321 1376 LINE",
"1331 1434 LINE",
"283 1434 LINE",
"268 1360 LINE",
"1288 1360 LINE",
"1260 1427 LINE",
"-4 59 LINE",
"-16 0 LINE"
);
}
);
width = 1249;
},
{
anchors = (
{
name = top.case;
position = "{887, 1475}";
}
);
background = {
paths = (
{
closed = 1;
nodes = (
"1227 0 LINE",
"1305 399 LINE",
"625 399 LINE",
"647 350 LINE",
"1423 1090 LINE",
"1491 1434 LINE",
"258 1434 LINE",
"180 1034 LINE",
"872 1034 LINE",
"852 1083 LINE",
"33 328 LINE",
"-31 0 LINE"
);
}
);
};
layerId = "6D60D92C-1450-4586-BB49-599D0D4C1213";
paths = (
{
closed = 1;
nodes = (
"1225 0 LINE",
"1305 399 LINE",
"625 399 LINE",
"651 336 LINE",
"1421 1090 LINE",
"1489 1434 LINE",
"256 1434 LINE",
"180 1034 LINE",
"874 1034 LINE",
"850 1098 LINE",
"31 328 LINE",
"-33 0 LINE"
);
}
);
width = 1401;
},
{
anchors = (
{
name = top.case;
position = "{825, 1475}";
}
);
background = {
paths = (
{
closed = 1;
nodes = (
"1108 0 LINE",
"1157 254 LINE",
"408 254 LINE",
"1335 1243 LINE",
"1372 1434 LINE",
"276 1434 LINE",
"227 1180 LINE",
"944 1180 LINE",
"16 182 LINE",
"-18 0 LINE"
);
}
);
};
layerId = "74CCE9C5-5564-42E0-9214-3BF0725DF94D";
paths = (
{
closed = 1;
nodes = (
"1108 0 LINE",
"1153 236 LINE",
"295 236 LINE",
"324 168 LINE",
"1335 1243 LINE",
"1372 1434 LINE",
"276 1434 LINE",
"229 1198 LINE",
"1055 1198 LINE",
"1026 1266 LINE",
"16 182 LINE",
"-18 0 LINE"
);
}
);
width = 1290;
}
);
leftKerningGroup = Z;
rightKerningGroup = Z;
unicode = 005A;
},
{
color = 4;
glyphname = a;
lastChange = "2020-12-22 23:58:30 +0000";
layers = (
{
anchors = (
{
name = bottom;
position = "{459, -72}";
},
{
name = ogonek;
position = "{801, 20}";
},
{
name = top;
position = "{643, 1126}";
}
);
background = {
paths = (
{
closed = 1;
nodes = (
"979 80 LINE",
"1008 41 LINE",
"815 43 OFFCURVE",
"784 68 OFFCURVE",
"805 174 CURVE SMOOTH",
"901 666 LINE SMOOTH",
"948 907 OFFCURVE",
"836 1016 OFFCURVE",
"618 1016 CURVE SMOOTH",
"502 1016 OFFCURVE",
"387 989 OFFCURVE",
"291 950 CURVE SMOOTH",
"174 905 LINE",
"213 965 LINE",
"250 850 LINE",
"213 870 LINE",
"299 897 LINE SMOOTH",
"373 920 OFFCURVE",
"479 950 OFFCURVE",
"600 950 CURVE SMOOTH",
"786 950 OFFCURVE",
"866 866 OFFCURVE",
"829 678 CURVE SMOOTH",
"733 180 LINE",
"731 164 LINE",
"711 57 OFFCURVE",
"766 -12 OFFCURVE",
"903 -12 CURVE SMOOTH",
"936 -12 OFFCURVE",
"965 -10 OFFCURVE",
"995 -2 CURVE",
"950 -51 LINE"
);
},
{
closed = 1;
nodes = (
"438 -12 OFFCURVE",
"569 27 OFFCURVE",
"680 109 CURVE SMOOTH",
"786 188 LINE",
"791 246 LINE",
"657 160 LINE SMOOTH",
"553 92 OFFCURVE",
"453 57 OFFCURVE",
"373 57 CURVE SMOOTH",
"207 57 OFFCURVE",
"109 131 OFFCURVE",
"135 281 CURVE SMOOTH",
"156 385 OFFCURVE",
"199 432 OFFCURVE",
"387 477 CURVE SMOOTH",
"862 594 LINE",
"874 657 LINE",
"362 532 LINE SMOOTH",
"172 485 OFFCURVE",
"88 422 OFFCURVE",
"61 291 CURVE SMOOTH",
"25 98 OFFCURVE",
"166 -12 OFFCURVE",
"338 -12 CURVE SMOOTH"
);
}
);
};
guideLines = (
{
angle = 79;
position = "{51, 274}";
},
{
angle = 79;
position = "{89, 282}";
},
{
angle = 77.8594;
position = "{419, 622}";
}
);
layerId = "13A5184A-77A5-4E03-80A5-A9198A2CA35F";
paths = (
{
closed = 1;
nodes = (
"979 80 LINE",
"1008 41 LINE",
"815 43 OFFCURVE",
"784 68 OFFCURVE",
"805 174 CURVE SMOOTH",
"901 666 LINE SMOOTH",
"948 907 OFFCURVE",
"836 1016 OFFCURVE",
"618 1016 CURVE SMOOTH",
"502 1016 OFFCURVE",
"387 989 OFFCURVE",
"291 950 CURVE SMOOTH",
"174 905 LINE",
"213 965 LINE",
"250 850 LINE",
"213 870 LINE",
"299 897 LINE SMOOTH",
"373 920 OFFCURVE",
"479 950 OFFCURVE",
"600 950 CURVE SMOOTH",
"786 950 OFFCURVE",
"866 866 OFFCURVE",
"829 678 CURVE SMOOTH",
"733 180 LINE",
"731 164 LINE",
"711 57 OFFCURVE",
"766 -12 OFFCURVE",
"903 -12 CURVE SMOOTH",
"936 -12 OFFCURVE",
"965 -10 OFFCURVE",
"995 -2 CURVE",
"950 -51 LINE"
);
},
{
closed = 1;
nodes = (
"438 -12 OFFCURVE",
"569 27 OFFCURVE",
"680 109 CURVE SMOOTH",
"786 188 LINE",
"791 246 LINE",
"657 160 LINE SMOOTH",
"553 92 OFFCURVE",
"453 57 OFFCURVE",
"373 57 CURVE SMOOTH",
"207 57 OFFCURVE",
"109 131 OFFCURVE",
"135 281 CURVE SMOOTH",
"156 385 OFFCURVE",
"199 432 OFFCURVE",
"387 477 CURVE SMOOTH",
"862 594 LINE",
"874 657 LINE",
"362 532 LINE SMOOTH",
"162 483 OFFCURVE",
"88 428 OFFCURVE",
"63 297 CURVE SMOOTH",
"25 98 OFFCURVE",
"166 -12 OFFCURVE",
"338 -12 CURVE SMOOTH"
);
}
);
width = 1071;
},
{
anchors = (
{
name = bottom;
position = "{514, -72}";
},
{
name = ogonek;
position = "{850, 20}";
},
{
name = top;
position = "{705, 1126}";
}
);
background = {
paths = (
{
closed = 1;
nodes = (
"1196 389 LINE",
"1221 266 LINE",
"1094 285 OFFCURVE",
"1053 301 OFFCURVE",
"1067 369 CURVE SMOOTH",
"1122 655 LINE SMOOTH",
"1178 938 OFFCURVE",
"1008 1096 OFFCURVE",
"696 1096 CURVE SMOOTH",
"559 1096 OFFCURVE",
"414 1063 OFFCURVE",
"272 1016 CURVE SMOOTH",
"-104 891 LINE",
"184 1096 LINE",
"199 633 LINE",
"88 705 LINE",
"260 735 LINE SMOOTH",
"354 752 OFFCURVE",
"446 760 OFFCURVE",
"530 760 CURVE SMOOTH",
"639 760 OFFCURVE",
"698 739 OFFCURVE",
"682 657 CURVE SMOOTH",
"621 336 LINE SMOOTH",
"614 311 OFFCURVE",
"614 289 OFFCURVE",
"614 266 CURVE",
"631 246 LINE",
"633 94 OFFCURVE",
"719 -18 OFFCURVE",
"948 -18 CURVE SMOOTH",
"999 -18 OFFCURVE",
"1114 12 OFFCURVE",
"1165 35 CURVE",
"1049 -92 LINE"
);
},
{
closed = 1;
nodes = (
"403 -18 OFFCURVE",
"547 55 OFFCURVE",
"668 150 CURVE",
"633 322 LINE",
"555 289 OFFCURVE",
"500 272 OFFCURVE",
"455 272 CURVE SMOOTH",
"410 272 OFFCURVE",
"381 297 OFFCURVE",
"391 346 CURVE SMOOTH",
"397 383 OFFCURVE",
"418 414 OFFCURVE",
"492 430 CURVE SMOOTH",
"655 469 LINE",
"698 672 LINE",
"383 602 LINE SMOOTH",
"121 545 OFFCURVE",
"2 465 OFFCURVE",
"-33 283 CURVE SMOOTH",
"-76 70 OFFCURVE",
"82 -18 OFFCURVE",
"258 -18 CURVE SMOOTH"
);
}
);
};
guideLines = (
{
angle = 79;
position = "{-52, -45}";
}
);
layerId = "6D60D92C-1450-4586-BB49-599D0D4C1213";
paths = (
{
closed = 1;
nodes = (
"1196 389 LINE",
"1221 266 LINE",
"1094 285 OFFCURVE",
"1053 301 OFFCURVE",
"1067 369 CURVE SMOOTH",
"1122 647 LINE SMOOTH",
"1184 961 OFFCURVE",
"950 1096 OFFCURVE",
"713 1096 CURVE SMOOTH",
"578 1096 OFFCURVE",
"422 1069 OFFCURVE",
"268 1022 CURVE SMOOTH",
"-104 909 LINE",
"178 1096 LINE",
"223 633 LINE",
"88 705 LINE",
"260 735 LINE SMOOTH",
"354 752 OFFCURVE",
"446 760 OFFCURVE",
"530 760 CURVE SMOOTH",
"662 760 OFFCURVE",
"696 727 OFFCURVE",
"678 633 CURVE SMOOTH",
"616 309 LINE",
"631 258 LINE",
"627 106 OFFCURVE",
"719 -18 OFFCURVE",
"948 -18 CURVE SMOOTH",
"999 -18 OFFCURVE",
"1114 6 OFFCURVE",
"1165 23 CURVE",
"1049 -92 LINE"
);
},
{
closed = 1;
nodes = (
"362 -18 OFFCURVE",
"492 25 OFFCURVE",
"600 104 CURVE SMOOTH",
"709 184 LINE",
"639 326 LINE",
"584 301 LINE SMOOTH",
"537 281 OFFCURVE",
"494 272 OFFCURVE",
"461 272 CURVE SMOOTH",
"416 272 OFFCURVE",
"383 305 OFFCURVE",
"393 354 CURVE SMOOTH",
"401 393 OFFCURVE",
"420 418 OFFCURVE",
"498 434 CURVE SMOOTH",
"655 469 LINE",
"698 668 LINE",
"408 610 LINE SMOOTH",
"111 553 OFFCURVE",
"2 469 OFFCURVE",
"-31 299 CURVE SMOOTH",
"-78 68 OFFCURVE",
"104 -18 OFFCURVE",
"262 -18 CURVE SMOOTH"
);
}
);
width = 1233;
},
{
anchors = (
{
name = bottom;
position = "{453, -72}";
},
{
name = ogonek;
position = "{840, 20}";
},
{
name = top;
position = "{655, 1126}";
}
);
background = {
paths = (
{
closed = 1;
nodes = (
"1063 221 LINE",
"1085 156 LINE",
"936 172 OFFCURVE",
"897 180 OFFCURVE",
"915 281 CURVE SMOOTH",
"991 690 LINE SMOOTH",
"1032 907 OFFCURVE",
"901 1057 OFFCURVE",
"643 1057 CURVE SMOOTH",
"510 1057 OFFCURVE",
"385 1024 OFFCURVE",
"264 985 CURVE SMOOTH",
"16 905 LINE",
"201 1030 LINE",
"242 741 LINE",
"156 774 LINE",
"272 797 LINE SMOOTH",
"354 813 OFFCURVE",
"451 825 OFFCURVE",
"561 825 CURVE SMOOTH",
"705 825 OFFCURVE",
"754 762 OFFCURVE",
"737 674 CURVE SMOOTH",
"655 258 LINE",
"666 211 LINE",
"672 88 OFFCURVE",
"729 -16 OFFCURVE",
"903 -16 CURVE SMOOTH",
"948 -16 OFFCURVE",
"1028 -2 OFFCURVE",
"1077 16 CURVE",
"981 -72 LINE"
);
},
{
closed = 1;
nodes = (
"408 -16 OFFCURVE",
"524 25 OFFCURVE",
"627 106 CURVE SMOOTH",
"727 186 LINE",
"705 319 LINE",
"608 264 LINE SMOOTH",
"530 221 OFFCURVE",
"455 199 OFFCURVE",
"399 199 CURVE SMOOTH",
"322 199 OFFCURVE",
"268 233 OFFCURVE",
"283 317 CURVE SMOOTH",
"293 371 OFFCURVE",
"326 406 OFFCURVE",
"397 424 CURVE SMOOTH",
"743 516 LINE",
"774 664 LINE",
"373 596 LINE SMOOTH",
"143 557 OFFCURVE",
"68 483 OFFCURVE",
"33 317 CURVE SMOOTH",
"-8 109 OFFCURVE",
"145 -16 OFFCURVE",
"315 -16 CURVE SMOOTH"
);
}
);
};
guideLines = (
{
angle = 79;
position = "{39, 274}";
},
{
angle = 79;
position = "{264, 350}";
}
);
layerId = "74CCE9C5-5564-42E0-9214-3BF0725DF94D";
paths = (
{
closed = 1;
nodes = (
"1063 221 LINE",
"1085 156 LINE",
"936 172 OFFCURVE",
"897 180 OFFCURVE",
"915 281 CURVE SMOOTH",
"991 690 LINE SMOOTH",
"1032 907 OFFCURVE",
"901 1057 OFFCURVE",
"643 1057 CURVE SMOOTH",
"510 1057 OFFCURVE",
"385 1024 OFFCURVE",
"264 985 CURVE SMOOTH",
"16 905 LINE",
"201 1030 LINE",
"242 741 LINE",
"182 774 LINE",
"291 797 LINE SMOOTH",
"369 813 OFFCURVE",
"459 825 OFFCURVE",
"561 825 CURVE SMOOTH",
"705 825 OFFCURVE",
"754 762 OFFCURVE",
"737 674 CURVE SMOOTH",
"655 258 LINE",
"666 211 LINE",
"672 88 OFFCURVE",
"729 -16 OFFCURVE",
"903 -16 CURVE SMOOTH",
"948 -16 OFFCURVE",
"1028 -2 OFFCURVE",
"1077 16 CURVE",
"981 -72 LINE"
);
},
{
closed = 1;
nodes = (
"418 -16 OFFCURVE",
"516 18 OFFCURVE",
"606 90 CURVE SMOOTH",
"727 186 LINE",
"705 319 LINE",
"608 264 LINE SMOOTH",
"530 221 OFFCURVE",
"455 199 OFFCURVE",
"399 199 CURVE SMOOTH",
"322 199 OFFCURVE",
"268 233 OFFCURVE",
"283 317 CURVE SMOOTH",
"293 371 OFFCURVE",
"326 406 OFFCURVE",
"397 424 CURVE SMOOTH",
"743 516 LINE",
"774 664 LINE",
"408 602 LINE SMOOTH",
"150 559 OFFCURVE",
"63 465 OFFCURVE",
"33 317 CURVE SMOOTH",
"-8 113 OFFCURVE",
"150 -16 OFFCURVE",
"324 -16 CURVE SMOOTH"
);
}
);
width = 1137;
}
);
leftKerningGroup = a;
rightKerningGroup = a;
unicode = 0061;
},
{
color = 3;
glyphname = ae;
lastChange = "2020-12-22 23:58:30 +0000";
layers = (
{
anchors = (
{
name = top;
position = "{1048, 1126}";
}
);
background = {
anchors = (
{
name = top;
position = "{1048, 1126}";
}
);
components = (
{
name = a;
transform = "{1, 0, 0, 1, 1, 0}";
}
);
};
layerId = "13A5184A-77A5-4E03-80A5-A9198A2CA35F";
paths = (
{
closed = 1;
nodes = (
"439 -12 OFFCURVE",
"574 29 OFFCURVE",
"693 115 CURVE SMOOTH",
"837 217 LINE",
"810 258 LINE",
"658 158 LINE SMOOTH",
"554 90 OFFCURVE",
"454 57 OFFCURVE",
"374 57 CURVE SMOOTH",
"208 57 OFFCURVE",
"110 131 OFFCURVE",
"136 281 CURVE SMOOTH",
"157 385 OFFCURVE",
"200 432 OFFCURVE",
"388 477 CURVE SMOOTH",
"863 594 LINE",
"875 657 LINE",
"363 532 LINE SMOOTH",
"173 485 OFFCURVE",
"89 422 OFFCURVE",
"62 291 CURVE SMOOTH",
"26 98 OFFCURVE",
"167 -12 OFFCURVE",
"339 -12 CURVE SMOOTH"
);
},
{
closed = 1;
nodes = (
"902 666 LINE",
"904 678 LINE SMOOTH",
"949 907 OFFCURVE",
"837 1016 OFFCURVE",
"613 1016 CURVE SMOOTH",
"503 1016 OFFCURVE",
"388 989 OFFCURVE",
"292 950 CURVE SMOOTH",
"175 905 LINE",
"214 965 LINE",
"251 850 LINE",
"214 870 LINE",
"300 897 LINE SMOOTH",
"374 920 OFFCURVE",
"480 950 OFFCURVE",
"581 950 CURVE SMOOTH",
"777 950 OFFCURVE",
"869 864 OFFCURVE",
"832 678 CURVE SMOOTH",
"828 657 LINE"
);
},
{
closed = 1;
nodes = (
"1293 -12 OFFCURVE",
"1406 16 OFFCURVE",
"1500 55 CURVE SMOOTH",
"1605 98 LINE",
"1574 37 LINE",
"1531 166 LINE",
"1590 147 LINE",
"1482 109 LINE SMOOTH",
"1390 76 OFFCURVE",
"1299 55 OFFCURVE",
"1207 55 CURVE SMOOTH",
"959 55 OFFCURVE",
"800 223 OFFCURVE",
"859 530 CURVE SMOOTH",
"912 801 OFFCURVE",
"1115 948 OFFCURVE",
"1340 948 CURVE SMOOTH",
"1576 948 OFFCURVE",
"1670 778 OFFCURVE",
"1621 528 CURVE",
"1674 573 LINE",
"816 573 LINE",
"804 508 LINE",
"1687 508 LINE",
"1695 551 LINE SMOOTH",
"1742 791 OFFCURVE",
"1633 1016 OFFCURVE",
"1344 1016 CURVE SMOOTH",
"1052 1016 OFFCURVE",
"837 811 OFFCURVE",
"783 526 CURVE SMOOTH",
"718 190 OFFCURVE",
"923 -12 OFFCURVE",
"1197 -12 CURVE SMOOTH"
);
}
);
width = 1787;
},
{
anchors = (
{
name = top;
position = "{1116, 1126}";
}
);
background = {
paths = (
{
closed = 1;
nodes = (
"358 -18 OFFCURVE",
"487 23 OFFCURVE",
"598 104 CURVE SMOOTH",
"705 184 LINE",
"649 332 LINE",
"578 301 LINE SMOOTH",
"532 281 OFFCURVE",
"487 272 OFFCURVE",
"455 272 CURVE SMOOTH",
"410 272 OFFCURVE",
"381 297 OFFCURVE",
"391 346 CURVE SMOOTH",
"397 383 OFFCURVE",
"418 414 OFFCURVE",
"492 430 CURVE SMOOTH",
"655 469 LINE",
"698 672 LINE",
"383 602 LINE SMOOTH",
"121 545 OFFCURVE",
"2 465 OFFCURVE",
"-33 283 CURVE SMOOTH",
"-76 70 OFFCURVE",
"82 -18 OFFCURVE",
"258 -18 CURVE SMOOTH"
);
},
{
closed = 1;
nodes = (
"1030 428 LINE",
"1114 870 LINE",
"1065 1016 OFFCURVE",
"918 1096 OFFCURVE",
"696 1096 CURVE SMOOTH",
"559 1096 OFFCURVE",
"414 1063 OFFCURVE",
"272 1016 CURVE SMOOTH",
"-104 891 LINE",
"184 1096 LINE",
"199 633 LINE",
"88 705 LINE",
"260 735 LINE SMOOTH",
"354 752 OFFCURVE",
"446 760 OFFCURVE",
"530 760 CURVE SMOOTH",
"639 760 OFFCURVE",
"698 739 OFFCURVE",
"682 657 CURVE SMOOTH",
"633 397 LINE"
);
},
{
closed = 1;
nodes = (
"1290 -18 OFFCURVE",
"1434 8 OFFCURVE",
"1581 66 CURVE SMOOTH",
"1749 131 LINE",
"1686 57 LINE",
"1602 455 LINE",
"1704 371 LINE",
"1536 338 LINE SMOOTH",
"1444 319 OFFCURVE",
"1362 309 OFFCURVE",
"1294 309 CURVE SMOOTH",
"1122 309 OFFCURVE",
"1042 360 OFFCURVE",
"1079 553 CURVE SMOOTH",
"1118 750 OFFCURVE",
"1198 803 OFFCURVE",
"1315 803 CURVE SMOOTH",
"1436 803 OFFCURVE",
"1462 739 OFFCURVE",
"1434 592 CURVE",
"1526 657 LINE",
"1012 657 LINE",
"969 430 LINE",
"1800 430 LINE",
"1817 522 LINE SMOOTH",
"1886 877 OFFCURVE",
"1716 1096 OFFCURVE",
"1372 1096 CURVE SMOOTH",
"1053 1096 OFFCURVE",
"717 909 OFFCURVE",
"645 537 CURVE SMOOTH",
"575 178 OFFCURVE",
"815 -18 OFFCURVE",
"1161 -18 CURVE SMOOTH"
);
}
);
};
layerId = "6D60D92C-1450-4586-BB49-599D0D4C1213";
paths = (
{
closed = 1;
nodes = (
"362 -18 OFFCURVE",
"492 25 OFFCURVE",
"600 104 CURVE SMOOTH",
"750 213 LINE",
"682 346 LINE",
"584 301 LINE SMOOTH",
"537 281 OFFCURVE",
"494 272 OFFCURVE",
"461 272 CURVE SMOOTH",
"416 272 OFFCURVE",
"383 305 OFFCURVE",
"393 354 CURVE SMOOTH",
"401 393 OFFCURVE",
"420 418 OFFCURVE",
"498 434 CURVE SMOOTH",
"655 469 LINE",
"698 668 LINE",
"408 610 LINE SMOOTH",
"111 553 OFFCURVE",
"2 469 OFFCURVE",
"-31 299 CURVE SMOOTH",
"-78 68 OFFCURVE",
"104 -18 OFFCURVE",
"262 -18 CURVE SMOOTH"
);
},
{
closed = 1;
nodes = (
"1077 520 LINE",
"1102 647 LINE SMOOTH",
"1163 961 OFFCURVE",
"950 1096 OFFCURVE",
"713 1096 CURVE SMOOTH",
"578 1096 OFFCURVE",
"422 1069 OFFCURVE",
"268 1022 CURVE SMOOTH",
"-104 909 LINE",
"178 1096 LINE",
"223 633 LINE",
"88 705 LINE",
"260 735 LINE SMOOTH",
"354 752 OFFCURVE",
"446 760 OFFCURVE",
"530 760 CURVE SMOOTH",
"662 760 OFFCURVE",
"696 727 OFFCURVE",
"678 633 CURVE SMOOTH",
"651 492 LINE"
);
},
{
closed = 1;
nodes = (
"1294 -18 OFFCURVE",
"1438 8 OFFCURVE",
"1585 66 CURVE SMOOTH",
"1753 131 LINE",
"1690 57 LINE",
"1606 455 LINE",
"1708 371 LINE",
"1540 338 LINE SMOOTH",
"1448 319 OFFCURVE",
"1366 309 OFFCURVE",
"1298 309 CURVE SMOOTH",
"1104 309 OFFCURVE",
"1049 371 OFFCURVE",
"1087 571 CURVE SMOOTH",
"1122 754 OFFCURVE",
"1184 803 OFFCURVE",
"1317 803 CURVE SMOOTH",
"1421 803 OFFCURVE",
"1466 739 OFFCURVE",
"1438 596 CURVE",
"1530 657 LINE",
"1016 657 LINE",
"973 430 LINE",
"1804 430 LINE",
"1821 522 LINE SMOOTH",
"1890 877 OFFCURVE",
"1712 1096 OFFCURVE",
"1368 1096 CURVE SMOOTH",
"1049 1096 OFFCURVE",
"727 938 OFFCURVE",
"655 565 CURVE SMOOTH",
"586 207 OFFCURVE",
"819 -18 OFFCURVE",
"1165 -18 CURVE SMOOTH"
);
}
);
width = 1855;
},
{
anchors = (
{
name = top;
position = "{1034, 1126}";
}
);
background = {
anchors = (
{
name = top;
position = "{1096, 1126}";
}
);
paths = (
{
closed = 1;
nodes = (
"391 -16 OFFCURVE",
"512 25 OFFCURVE",
"618 106 CURVE SMOOTH",
"768 221 LINE",
"705 319 LINE",
"612 264 LINE SMOOTH",
"541 221 OFFCURVE",
"469 199 OFFCURVE",
"416 199 CURVE SMOOTH",
"315 199 OFFCURVE",
"266 238 OFFCURVE",
"281 309 CURVE SMOOTH",
"291 365 OFFCURVE",
"328 406 OFFCURVE",
"412 428 CURVE SMOOTH",
"743 516 LINE",
"774 674 LINE",
"410 602 LINE SMOOTH",
"197 561 OFFCURVE",
"59 457 OFFCURVE",
"25 281 CURVE SMOOTH",
"-14 80 OFFCURVE",
"129 -16 OFFCURVE",
"297 -16 CURVE SMOOTH"
);
},
{
closed = 1;
nodes = (
"975 580 LINE",
"989 662 LINE SMOOTH",
"1040 926 OFFCURVE",
"899 1057 OFFCURVE",
"653 1057 CURVE SMOOTH",
"537 1057 OFFCURVE",
"418 1032 OFFCURVE",
"270 983 CURVE SMOOTH",
"66 913 LINE",
"211 1030 LINE",
"229 741 LINE",
"160 784 LINE",
"274 807 LINE SMOOTH",
"358 823 OFFCURVE",
"455 836 OFFCURVE",
"543 836 CURVE SMOOTH",
"690 836 OFFCURVE",
"756 778 OFFCURVE",
"731 647 CURVE SMOOTH",
"692 446 LINE"
);
},
{
closed = 1;
nodes = (
"1253 -16 OFFCURVE",
"1374 8 OFFCURVE",
"1495 61 CURVE SMOOTH",
"1626 119 LINE",
"1589 47 LINE",
"1530 311 LINE",
"1581 279 LINE",
"1450 244 LINE SMOOTH",
"1368 221 OFFCURVE",
"1286 209 OFFCURVE",
"1217 209 CURVE SMOOTH",
"1026 209 OFFCURVE",
"911 305 OFFCURVE",
"952 524 CURVE SMOOTH",
"989 711 OFFCURVE",
"1112 838 OFFCURVE",
"1280 838 CURVE SMOOTH",
"1440 838 OFFCURVE",
"1497 733 OFFCURVE",
"1464 559 CURVE",
"1550 639 LINE",
"891 639 LINE",
"854 451 LINE",
"1681 451 LINE",
"1698 532 LINE SMOOTH",
"1757 836 OFFCURVE",
"1634 1057 OFFCURVE",
"1323 1057 CURVE SMOOTH",
"1034 1057 OFFCURVE",
"754 846 OFFCURVE",
"690 518 CURVE SMOOTH",
"623 172 OFFCURVE",
"842 -16 OFFCURVE",
"1145 -16 CURVE SMOOTH"
);
}
);
};
layerId = "74CCE9C5-5564-42E0-9214-3BF0725DF94D";
paths = (
{
closed = 1;
nodes = (
"408 -16 OFFCURVE",
"524 23 OFFCURVE",
"627 98 CURVE SMOOTH",
"780 209 LINE",
"727 332 LINE",
"608 264 LINE SMOOTH",
"530 221 OFFCURVE",
"455 199 OFFCURVE",
"399 199 CURVE SMOOTH",
"319 199 OFFCURVE",
"266 238 OFFCURVE",
"283 311 CURVE SMOOTH",
"291 367 OFFCURVE",
"326 406 OFFCURVE",
"389 422 CURVE SMOOTH",
"743 516 LINE",
"774 664 LINE",
"360 594 LINE SMOOTH",
"158 559 OFFCURVE",
"66 475 OFFCURVE",
"33 317 CURVE SMOOTH",
"-8 109 OFFCURVE",
"145 -16 OFFCURVE",
"315 -16 CURVE SMOOTH"
);
},
{
closed = 1;
nodes = (
"952 485 LINE",
"991 690 LINE SMOOTH",
"1032 907 OFFCURVE",
"901 1057 OFFCURVE",
"643 1057 CURVE SMOOTH",
"510 1057 OFFCURVE",
"385 1024 OFFCURVE",
"264 985 CURVE SMOOTH",
"16 905 LINE",
"201 1030 LINE",
"242 741 LINE",
"158 784 LINE",
"274 807 LINE SMOOTH",
"356 823 OFFCURVE",
"453 836 OFFCURVE",
"563 836 CURVE SMOOTH",
"698 836 OFFCURVE",
"756 774 OFFCURVE",
"735 670 CURVE SMOOTH",
"698 485 LINE"
);
},
{
closed = 1;
nodes = (
"1260 -16 OFFCURVE",
"1380 8 OFFCURVE",
"1505 61 CURVE SMOOTH",
"1636 119 LINE",
"1591 47 LINE",
"1524 311 LINE",
"1581 279 LINE",
"1450 244 LINE SMOOTH",
"1368 221 OFFCURVE",
"1284 209 OFFCURVE",
"1214 209 CURVE SMOOTH",
"1010 209 OFFCURVE",
"911 305 OFFCURVE",
"958 555 CURVE SMOOTH",
"993 741 OFFCURVE",
"1100 838 OFFCURVE",
"1262 838 CURVE SMOOTH",
"1421 838 OFFCURVE",
"1495 721 OFFCURVE",
"1464 559 CURVE",
"1550 639 LINE",
"891 639 LINE",
"854 451 LINE",
"1681 451 LINE",
"1698 535 LINE SMOOTH",
"1753 813 OFFCURVE",
"1610 1057 OFFCURVE",
"1307 1057 CURVE SMOOTH",
"1016 1057 OFFCURVE",
"770 889 OFFCURVE",
"707 553 CURVE SMOOTH",
"639 207 OFFCURVE",
"850 -16 OFFCURVE",
"1151 -16 CURVE SMOOTH"
);
}
);
width = 1767;
}
);
leftKerningGroup = a;
leftMetricsKey = a;
rightKerningGroup = e;
rightMetricsKey = e;
unicode = 00E6;
},
{
color = 4;
glyphname = b;
lastChange = "2020-12-22 23:58:30 +0000";
layers = (
{
background = {
components = (
{
name = q;
transform = "{-1, 0, 0, -1, 593, 490}";
}
);
};
guideLines = (
{
angle = 79;
position = "{498, 66}";
},
{
angle = 79;
position = "{457, 42}";
}
);
layerId = "13A5184A-77A5-4E03-80A5-A9198A2CA35F";
paths = (
{
closed = 1;
nodes = (
"823 -12 OFFCURVE",
"1040 182 OFFCURVE",
"1094 467 CURVE SMOOTH",
"1157 795 OFFCURVE",
"985 1016 OFFCURVE",
"707 1016 CURVE SMOOTH",
"633 1016 OFFCURVE",
"555 999 OFFCURVE",
"430 954 CURVE SMOOTH",
"324 915 LINE",
"330 879 LINE",
"465 1577 LINE",
"381 1511 LINE",
"88 0 LINE",
"154 0 LINE",
"186 143 LINE",
"190 158 LINE",
"326 858 LINE",
"440 899 LINE SMOOTH",
"530 932 OFFCURVE",
"618 948 OFFCURVE",
"694 948 CURVE SMOOTH",
"936 948 OFFCURVE",
"1077 770 OFFCURVE",
"1022 471 CURVE SMOOTH",
"973 225 OFFCURVE",
"793 55 OFFCURVE",
"530 55 CURVE SMOOTH",
"457 55 OFFCURVE",
"389 78 OFFCURVE",
"297 125 CURVE SMOOTH",
"174 195 LINE",
"162 139 LINE",
"260 74 LINE SMOOTH",
"346 18 OFFCURVE",
"438 -12 OFFCURVE",
"539 -12 CURVE SMOOTH"
);
}
);
width = 1214;
},
{
background = {
paths = (
{
closed = 1;
nodes = (
"983 -18 OFFCURVE",
"1223 207 OFFCURVE",
"1286 539 CURVE SMOOTH",
"1350 868 OFFCURVE",
"1202 1096 OFFCURVE",
"924 1096 CURVE SMOOTH",
"840 1096 OFFCURVE",
"733 1073 OFFCURVE",
"659 1040 CURVE SMOOTH",
"494 967 LINE",
"596 870 LINE",
"733 1577 LINE",
"274 1511 LINE",
"-18 0 LINE",
"305 0 LINE",
"401 205 LINE",
"479 279 LINE",
"563 707 LINE",
"610 719 LINE SMOOTH",
"641 727 OFFCURVE",
"674 731 OFFCURVE",
"713 731 CURVE SMOOTH",
"829 731 OFFCURVE",
"866 674 OFFCURVE",
"840 539 CURVE SMOOTH",
"813 399 OFFCURVE",
"758 344 OFFCURVE",
"639 344 CURVE SMOOTH",
"602 344 OFFCURVE",
"561 354 OFFCURVE",
"528 371 CURVE SMOOTH",
"492 389 LINE",
"326 143 LINE",
"408 84 LINE SMOOTH",
"502 14 OFFCURVE",
"598 -18 OFFCURVE",
"696 -18 CURVE SMOOTH"
);
}
);
};
guideLines = (
{
angle = 79;
position = "{676, 494}";
},
{
angle = 79;
position = "{487, 641}";
}
);
layerId = "6D60D92C-1450-4586-BB49-599D0D4C1213";
paths = (
{
closed = 1;
nodes = (
"1051 -18 OFFCURVE",
"1235 242 OFFCURVE",
"1286 502 CURVE SMOOTH",
"1339 770 OFFCURVE",
"1274 1096 OFFCURVE",
"930 1096 CURVE SMOOTH",
"856 1096 OFFCURVE",
"748 1077 OFFCURVE",
"666 1040 CURVE SMOOTH",
"500 967 LINE",
"602 870 LINE",
"739 1577 LINE",
"281 1511 LINE",
"-12 0 LINE",
"311 0 LINE",
"408 205 LINE",
"485 279 LINE",
"569 707 LINE",
"616 719 LINE SMOOTH",
"647 727 OFFCURVE",
"680 731 OFFCURVE",
"719 731 CURVE SMOOTH",
"823 731 OFFCURVE",
"872 678 OFFCURVE",
"844 528 CURVE SMOOTH",
"815 377 OFFCURVE",
"754 344 OFFCURVE",
"645 344 CURVE SMOOTH",
"612 344 OFFCURVE",
"569 352 OFFCURVE",
"535 371 CURVE SMOOTH",
"498 389 LINE",
"332 143 LINE",
"414 84 LINE SMOOTH",
"502 20 OFFCURVE",
"608 -18 OFFCURVE",
"713 -18 CURVE SMOOTH"
);
}
);
width = 1345;
},
{
background = {
paths = (
{
closed = 1;
nodes = (
"904 -16 OFFCURVE",
"1097 182 OFFCURVE",
"1154 473 CURVE SMOOTH",
"1213 770 OFFCURVE",
"1060 1057 OFFCURVE",
"714 1057 CURVE SMOOTH",
"372 1057 OFFCURVE",
"179 854 OFFCURVE",
"124 567 CURVE SMOOTH",
"62 244 OFFCURVE",
"249 -16 OFFCURVE",
"566 -16 CURVE SMOOTH"
);
},
{
closed = 1;
nodes = (
"447 219 OFFCURVE",
"339 326 OFFCURVE",
"382 549 CURVE SMOOTH",
"415 717 OFFCURVE",
"505 821 OFFCURVE",
"683 821 CURVE SMOOTH",
"863 821 OFFCURVE",
"929 668 OFFCURVE",
"894 492 CURVE SMOOTH",
"857 307 OFFCURVE",
"753 219 OFFCURVE",
"587 219 CURVE SMOOTH"
);
}
);
};
guideLines = (
{
angle = 79;
position = "{606, 449}";
},
{
angle = 79;
position = "{472, 415}";
}
);
layerId = "74CCE9C5-5564-42E0-9214-3BF0725DF94D";
paths = (
{
closed = 1;
nodes = (
"875 -16 OFFCURVE",
"1093 180 OFFCURVE",
"1154 483 CURVE SMOOTH",
"1222 815 OFFCURVE",
"1070 1057 OFFCURVE",
"798 1057 CURVE SMOOTH",
"718 1057 OFFCURVE",
"619 1034 OFFCURVE",
"540 997 CURVE SMOOTH",
"386 928 LINE",
"472 874 LINE",
"609 1577 LINE",
"337 1511 LINE",
"44 0 LINE",
"239 0 LINE",
"308 190 LINE",
"347 233 LINE",
"452 768 LINE",
"525 793 LINE SMOOTH",
"591 813 OFFCURVE",
"642 823 OFFCURVE",
"689 823 CURVE SMOOTH",
"855 823 OFFCURVE",
"939 707 OFFCURVE",
"898 504 CURVE SMOOTH",
"859 311 OFFCURVE",
"755 219 OFFCURVE",
"591 219 CURVE SMOOTH",
"527 219 OFFCURVE",
"474 236 OFFCURVE",
"425 270 CURVE SMOOTH",
"351 319 LINE",
"265 141 LINE",
"349 76 LINE SMOOTH",
"423 18 OFFCURVE",
"513 -16 OFFCURVE",
"617 -16 CURVE SMOOTH"
);
}
);
width = 1251;
}
);
leftKerningGroup = h;
leftMetricsKey = n;
rightKerningGroup = o;
rightMetricsKey = o;
unicode = 0062;
},
{
color = 4;
glyphname = c;
lastChange = "2020-12-22 23:58:30 +0000";
layers = (
{
anchors = (
{
name = bottom;
position = "{512, -72}";
},
{
name = top;
position = "{754, 1126}";
}
);
background = {
paths = (
{
closed = 1;
nodes = (
"606 -12 OFFCURVE",
"698 6 OFFCURVE",
"797 41 CURVE SMOOTH",
"909 82 LINE",
"876 31 LINE",
"844 141 LINE",
"895 133 LINE",
"776 96 LINE SMOOTH",
"688 70 OFFCURVE",
"608 55 OFFCURVE",
"534 55 CURVE SMOOTH",
"262 55 OFFCURVE",
"139 233 OFFCURVE",
"192 522 CURVE SMOOTH",
"248 805 OFFCURVE",
"459 948 OFFCURVE",
"719 948 CURVE SMOOTH",
"788 948 OFFCURVE",
"864 938 OFFCURVE",
"958 909 CURVE SMOOTH",
"1065 877 LINE",
"985 870 LINE",
"1032 973 LINE",
"1069 934 LINE",
"985 967 LINE SMOOTH",
"905 997 OFFCURVE",
"809 1016 OFFCURVE",
"723 1016 CURVE SMOOTH",
"434 1016 OFFCURVE",
"184 856 OFFCURVE",
"121 537 CURVE SMOOTH",
"57 219 OFFCURVE",
"207 -12 OFFCURVE",
"522 -12 CURVE SMOOTH"
);
}
);
};
guideLines = (
{
angle = 79;
position = "{95, 469}";
},
{
angle = 79;
position = "{133, 478}";
},
{
position = "{220, 463}";
}
);
layerId = "13A5184A-77A5-4E03-80A5-A9198A2CA35F";
paths = (
{
closed = 1;
nodes = (
"606 -12 OFFCURVE",
"698 6 OFFCURVE",
"797 41 CURVE SMOOTH",
"909 82 LINE",
"876 31 LINE",
"840 141 LINE",
"895 133 LINE",
"776 96 LINE SMOOTH",
"688 70 OFFCURVE",
"608 55 OFFCURVE",
"534 55 CURVE SMOOTH",
"262 55 OFFCURVE",
"139 233 OFFCURVE",
"192 522 CURVE SMOOTH",
"248 805 OFFCURVE",
"459 948 OFFCURVE",
"719 948 CURVE SMOOTH",
"788 948 OFFCURVE",
"864 938 OFFCURVE",
"958 909 CURVE SMOOTH",
"1065 877 LINE",
"985 870 LINE",
"1032 973 LINE",
"1069 934 LINE",
"985 967 LINE SMOOTH",
"905 997 OFFCURVE",
"809 1016 OFFCURVE",
"723 1016 CURVE SMOOTH",
"434 1016 OFFCURVE",
"184 856 OFFCURVE",
"121 537 CURVE SMOOTH",
"57 219 OFFCURVE",
"207 -12 OFFCURVE",
"522 -12 CURVE SMOOTH"
);
}
);
width = 1030;
},
{
anchors = (
{
name = bottom;
position = "{442, -72}";
},
{
name = top;
position = "{758, 1126}";
}
);
background = {
paths = (
{
closed = 1;
nodes = (
"635 -18 OFFCURVE",
"741 2 OFFCURVE",
"852 39 CURVE SMOOTH",
"1026 98 LINE",
"920 20 LINE",
"897 455 LINE",
"967 391 LINE",
"842 377 LINE SMOOTH",
"754 367 OFFCURVE",
"707 362 OFFCURVE",
"664 362 CURVE SMOOTH",
"543 362 OFFCURVE",
"473 424 OFFCURVE",
"500 561 CURVE SMOOTH",
"522 684 OFFCURVE",
"590 731 OFFCURVE",
"733 731 CURVE SMOOTH",
"797 731 OFFCURVE",
"852 723 OFFCURVE",
"901 715 CURVE SMOOTH",
"1040 692 LINE",
"916 623 LINE",
"1106 1057 LINE",
"1200 987 LINE",
"1045 1044 LINE SMOOTH",
"952 1077 OFFCURVE",
"856 1096 OFFCURVE",
"762 1096 CURVE SMOOTH",
"412 1096 OFFCURVE",
"127 934 OFFCURVE",
"57 575 CURVE SMOOTH",
"-12 213 OFFCURVE",
"201 -18 OFFCURVE",
"539 -18 CURVE SMOOTH"
);
}
);
};
guideLines = (
{
angle = 79;
position = "{69, 496}";
},
{
angle = 79;
position = "{309, 615}";
}
);
layerId = "6D60D92C-1450-4586-BB49-599D0D4C1213";
paths = (
{
closed = 1;
nodes = (
"635 -18 OFFCURVE",
"741 2 OFFCURVE",
"852 39 CURVE SMOOTH",
"1026 98 LINE",
"920 20 LINE",
"897 455 LINE",
"967 391 LINE",
"842 377 LINE SMOOTH",
"754 367 OFFCURVE",
"707 362 OFFCURVE",
"664 362 CURVE SMOOTH",
"543 362 OFFCURVE",
"473 424 OFFCURVE",
"500 561 CURVE SMOOTH",
"522 684 OFFCURVE",
"590 731 OFFCURVE",
"733 731 CURVE SMOOTH",
"797 731 OFFCURVE",
"852 723 OFFCURVE",
"901 715 CURVE SMOOTH",
"1040 692 LINE",
"916 623 LINE",
"1106 1057 LINE",
"1200 977 LINE",
"1028 1044 LINE SMOOTH",
"952 1075 OFFCURVE",
"848 1096 OFFCURVE",
"754 1096 CURVE SMOOTH",
"395 1096 OFFCURVE",
"125 928 OFFCURVE",
"57 575 CURVE SMOOTH",
"-12 213 OFFCURVE",
"201 -18 OFFCURVE",
"539 -18 CURVE SMOOTH"
);
}
);
width = 1014;
},
{
anchors = (
{
name = bottom;
position = "{448, -72}";
},
{
name = top;
position = "{710, 1126}";
}
);
background = {
paths = (
{
closed = 1;
nodes = (
"638 -16 OFFCURVE",
"720 0 OFFCURVE",
"833 35 CURVE SMOOTH",
"970 80 LINE",
"876 25 LINE",
"833 297 LINE",
"898 254 LINE",
"792 236 LINE SMOOTH",
"722 225 OFFCURVE",
"652 219 OFFCURVE",
"597 219 CURVE SMOOTH",
"421 219 OFFCURVE",
"314 317 OFFCURVE",
"357 543 CURVE SMOOTH",
"394 721 OFFCURVE",
"507 819 OFFCURVE",
"708 819 CURVE SMOOTH",
"765 819 OFFCURVE",
"826 811 OFFCURVE",
"892 799 CURVE SMOOTH",
"1013 774 LINE",
"933 741 LINE",
"1033 1018 LINE",
"1078 967 LINE",
"990 997 LINE SMOOTH",
"876 1038 OFFCURVE",
"787 1057 OFFCURVE",
"687 1057 CURVE SMOOTH",
"390 1057 OFFCURVE",
"159 887 OFFCURVE",
"97 553 CURVE SMOOTH",
"32 223 OFFCURVE",
"235 -16 OFFCURVE",
"548 -16 CURVE SMOOTH"
);
}
);
};
guideLines = (
{
angle = 79;
position = "{88, 482}";
},
{
angle = 79;
position = "{199, 393}";
},
{
position = "{208, 107}";
},
{
position = "{192, 406}";
},
{
position = "{192, 389}";
}
);
layerId = "74CCE9C5-5564-42E0-9214-3BF0725DF94D";
paths = (
{
closed = 1;
nodes = (
"638 -16 OFFCURVE",
"720 0 OFFCURVE",
"833 35 CURVE SMOOTH",
"970 80 LINE",
"876 25 LINE",
"833 297 LINE",
"898 254 LINE",
"792 236 LINE SMOOTH",
"722 225 OFFCURVE",
"652 219 OFFCURVE",
"597 219 CURVE SMOOTH",
"421 219 OFFCURVE",
"314 317 OFFCURVE",
"357 543 CURVE SMOOTH",
"392 721 OFFCURVE",
"511 831 OFFCURVE",
"706 831 CURVE SMOOTH",
"761 831 OFFCURVE",
"820 823 OFFCURVE",
"884 811 CURVE SMOOTH",
"1003 786 LINE",
"933 741 LINE",
"1033 1018 LINE",
"1078 969 LINE",
"990 999 LINE SMOOTH",
"876 1038 OFFCURVE",
"787 1057 OFFCURVE",
"687 1057 CURVE SMOOTH",
"390 1057 OFFCURVE",
"159 887 OFFCURVE",
"97 553 CURVE SMOOTH",
"32 223 OFFCURVE",
"235 -16 OFFCURVE",
"548 -16 CURVE SMOOTH"
);
}
);
width = 1005;
}
);
leftKerningGroup = o;
leftMetricsKey = o;
rightKerningGroup = c;
unicode = 0063;
},
{
color = 4;
glyphname = d;
lastChange = "2021-09-15 22:17:28 +0000";
layers = (
{
anchors = (
{
name = caron;
position = "{1690, 840}";
}
);
background = {
paths = (
{
closed = 1;
nodes = (
"533 -18 OFFCURVE",
"639 20 OFFCURVE",
"748 84 CURVE SMOOTH",
"850 143 LINE",
"778 389 LINE",
"737 371 LINE SMOOTH",
"698 352 OFFCURVE",
"660 344 OFFCURVE",
"629 344 CURVE SMOOTH",
"520 344 OFFCURVE",
"471 401 OFFCURVE",
"500 555 CURVE SMOOTH",
"528 705 OFFCURVE",
"592 731 OFFCURVE",
"696 731 CURVE SMOOTH",
"735 731 OFFCURVE",
"768 727 OFFCURVE",
"795 719 CURVE SMOOTH",
"838 707 LINE",
"754 279 LINE",
"803 205 LINE",
"821 0 LINE",
"1145 0 LINE",
"1452 1577 LINE",
"993 1511 LINE",
"870 870 LINE",
"1010 967 LINE",
"860 1040 LINE SMOOTH",
"784 1077 OFFCURVE",
"672 1096 OFFCURVE",
"594 1096 CURVE SMOOTH",
"459 1096 OFFCURVE",
"330 1044 OFFCURVE",
"225 936 CURVE SMOOTH",
"133 842 OFFCURVE",
"86 721 OFFCURVE",
"61 596 CURVE SMOOTH",
"8 328 OFFCURVE",
"92 -18 OFFCURVE",
"430 -18 CURVE SMOOTH"
);
}
);
};
guideLines = (
{
angle = 79;
position = "{62, 464}";
}
);
layerId = "6D60D92C-1450-4586-BB49-599D0D4C1213";
paths = (
{
closed = 1;
nodes = (
"533 -18 OFFCURVE",
"639 20 OFFCURVE",
"748 84 CURVE SMOOTH",
"850 143 LINE",
"778 389 LINE",
"737 371 LINE SMOOTH",
"698 352 OFFCURVE",
"660 344 OFFCURVE",
"629 344 CURVE SMOOTH",
"520 344 OFFCURVE",
"471 401 OFFCURVE",
"500 555 CURVE SMOOTH",
"528 705 OFFCURVE",
"592 731 OFFCURVE",
"696 731 CURVE SMOOTH",
"735 731 OFFCURVE",
"768 727 OFFCURVE",
"795 719 CURVE SMOOTH",
"838 707 LINE",
"754 279 LINE",
"803 205 LINE",
"821 0 LINE",
"1145 0 LINE",
"1452 1577 LINE",
"993 1511 LINE",
"870 870 LINE",
"1010 967 LINE",
"860 1040 LINE SMOOTH",
"784 1077 OFFCURVE",
"672 1096 OFFCURVE",
"594 1096 CURVE SMOOTH",
"320 1096 OFFCURVE",
"121 893 OFFCURVE",
"61 596 CURVE SMOOTH",
"8 328 OFFCURVE",
"92 -18 OFFCURVE",
"430 -18 CURVE SMOOTH"
);
}
);
width = 1342;
},
{
anchors = (
{
name = caron;
position = "{1371, 846}";
}
);
background = {
paths = (
{
closed = 1;
nodes = (
"599 -12 OFFCURVE",
"697 18 OFFCURVE",
"806 74 CURVE SMOOTH",
"904 125 LINE",
"896 172 LINE",
"785 125 LINE SMOOTH",
"673 78 OFFCURVE",
"595 55 OFFCURVE",
"519 55 CURVE SMOOTH",
"271 55 OFFCURVE",
"134 248 OFFCURVE",
"191 532 CURVE SMOOTH",
"239 774 OFFCURVE",
"417 948 OFFCURVE",
"693 948 CURVE SMOOTH",
"769 948 OFFCURVE",
"841 928 OFFCURVE",
"935 883 CURVE SMOOTH",
"1025 840 LINE",
"894 166 LINE",
"892 137 LINE",
"882 0 LINE",
"935 0 LINE",
"1240 1577 LINE",
"1156 1511 LINE",
"1031 877 LINE",
"1050 887 LINE",
"972 932 LINE SMOOTH",
"884 983 OFFCURVE",
"796 1016 OFFCURVE",
"695 1016 CURVE SMOOTH",
"531 1016 OFFCURVE",
"388 954 OFFCURVE",
"286 854 CURVE SMOOTH",
"206 776 OFFCURVE",
"146 672 OFFCURVE",
"122 545 CURVE SMOOTH",
"60 229 OFFCURVE",
"206 -12 OFFCURVE",
"499 -12 CURVE SMOOTH"
);
}
);
};
guideLines = (
{
angle = 79;
position = "{93, 461}";
},
{
angle = 79;
position = "{140, 446}";
}
);
layerId = "13A5184A-77A5-4E03-80A5-A9198A2CA35F";
paths = (
{
closed = 1;
nodes = (
"599 -12 OFFCURVE",
"697 18 OFFCURVE",
"806 74 CURVE SMOOTH",
"904 125 LINE",
"896 172 LINE",
"785 125 LINE SMOOTH",
"673 78 OFFCURVE",
"595 55 OFFCURVE",
"519 55 CURVE SMOOTH",
"271 55 OFFCURVE",
"134 248 OFFCURVE",
"191 532 CURVE SMOOTH",
"239 774 OFFCURVE",
"417 948 OFFCURVE",
"693 948 CURVE SMOOTH",
"769 948 OFFCURVE",
"841 928 OFFCURVE",
"935 883 CURVE SMOOTH",
"1025 840 LINE",
"894 166 LINE",
"892 137 LINE",
"882 0 LINE",
"935 0 LINE",
"1240 1577 LINE",
"1156 1511 LINE",
"1031 877 LINE",
"1050 887 LINE",
"972 932 LINE SMOOTH",
"884 983 OFFCURVE",
"796 1016 OFFCURVE",
"695 1016 CURVE SMOOTH",
"409 1016 OFFCURVE",
"177 827 OFFCURVE",
"122 545 CURVE SMOOTH",
"60 229 OFFCURVE",
"206 -12 OFFCURVE",
"499 -12 CURVE SMOOTH"
);
}
);
width = 1218;
},
{
anchors = (
{
name = caron;
position = "{1490, 846}";
}
);
background = {
paths = (
{
closed = 1;
nodes = (
"548 -16 OFFCURVE",
"658 23 OFFCURVE",
"755 84 CURVE SMOOTH",
"843 141 LINE",
"826 319 LINE",
"730 268 LINE SMOOTH",
"673 238 OFFCURVE",
"615 219 OFFCURVE",
"558 219 CURVE SMOOTH",
"392 219 OFFCURVE",
"314 324 OFFCURVE",
"357 539 CURVE SMOOTH",
"394 737 OFFCURVE",
"507 821 OFFCURVE",
"648 821 CURVE SMOOTH",
"708 821 OFFCURVE",
"773 799 OFFCURVE",
"818 782 CURVE SMOOTH",
"898 752 LINE",
"796 233 LINE",
"820 190 LINE",
"814 0 LINE",
"1009 0 LINE",
"1316 1577 LINE",
"1043 1511 LINE",
"921 874 LINE",
"1000 932 LINE",
"892 985 LINE SMOOTH",
"787 1036 OFFCURVE",
"697 1057 OFFCURVE",
"611 1057 CURVE SMOOTH",
"484 1057 OFFCURVE",
"353 999 OFFCURVE",
"255 891 CURVE SMOOTH",
"169 797 OFFCURVE",
"122 682 OFFCURVE",
"99 561 CURVE SMOOTH",
"44 281 OFFCURVE",
"140 -16 OFFCURVE",
"460 -16 CURVE SMOOTH"
);
}
);
};
guideLines = (
{
angle = 79;
position = "{82, 451}";
},
{
angle = 79;
position = "{205, 420}";
}
);
layerId = "74CCE9C5-5564-42E0-9214-3BF0725DF94D";
paths = (
{
closed = 1;
nodes = (
"548 -16 OFFCURVE",
"658 23 OFFCURVE",
"755 84 CURVE SMOOTH",
"843 141 LINE",
"826 319 LINE",
"730 268 LINE SMOOTH",
"673 238 OFFCURVE",
"615 219 OFFCURVE",
"558 219 CURVE SMOOTH",
"392 219 OFFCURVE",
"314 324 OFFCURVE",
"357 539 CURVE SMOOTH",
"394 737 OFFCURVE",
"507 821 OFFCURVE",
"648 821 CURVE SMOOTH",
"708 821 OFFCURVE",
"773 799 OFFCURVE",
"818 782 CURVE SMOOTH",
"898 752 LINE",
"796 233 LINE",
"820 190 LINE",
"814 0 LINE",
"1009 0 LINE",
"1316 1577 LINE",
"1043 1511 LINE",
"921 874 LINE",
"1000 932 LINE",
"892 985 LINE SMOOTH",
"787 1036 OFFCURVE",
"697 1057 OFFCURVE",
"611 1057 CURVE SMOOTH",
"353 1057 OFFCURVE",
"153 844 OFFCURVE",
"99 561 CURVE SMOOTH",
"44 281 OFFCURVE",
"140 -16 OFFCURVE",
"460 -16 CURVE SMOOTH"
);
}
);
width = 1255;
}
);
leftKerningGroup = o;
leftMetricsKey = o;
rightKerningGroup = d;
rightMetricsKey = "=|n";
unicode = 0064;
},
{
color = 0;
glyphname = eth;
lastChange = "2020-12-22 23:58:30 +0000";
layers = (
{
background = {
paths = (
{
closed = 1;
nodes = (
"1214 1516 LINE",
"1182 1565 LINE",
"588 1122 LINE",
"621 1073 LINE"
);
},
{
closed = 1;
nodes = (
"659 -12 OFFCURVE",
"946 133 OFFCURVE",
"1034 586 CURVE SMOOTH",
"1124 1051 OFFCURVE",
"1114 1264 OFFCURVE",
"758 1509 CURVE SMOOTH",
"676 1567 LINE",
"629 1511 LINE",
"709 1452 LINE SMOOTH",
"1034 1210 OFFCURVE",
"1049 1053 OFFCURVE",
"958 586 CURVE SMOOTH",
"881 182 OFFCURVE",
"641 51 OFFCURVE",
"420 51 CURVE SMOOTH",
"236 51 OFFCURVE",
"106 205 OFFCURVE",
"154 449 CURVE SMOOTH",
"197 676 OFFCURVE",
"385 879 OFFCURVE",
"643 879 CURVE SMOOTH",
"717 879 OFFCURVE",
"782 856 OFFCURVE",
"872 809 CURVE SMOOTH",
"999 743 LINE",
"1028 793 LINE",
"915 862 LINE SMOOTH",
"831 913 OFFCURVE",
"741 946 OFFCURVE",
"643 946 CURVE SMOOTH",
"365 946 OFFCURVE",
"135 733 OFFCURVE",
"80 453 CURVE SMOOTH",
"29 188 OFFCURVE",
"166 -12 OFFCURVE",
"414 -12 CURVE SMOOTH"
);
}
);
};
components = (
{
name = partialdiff;
}
);
layerId = "13A5184A-77A5-4E03-80A5-A9198A2CA35F";
paths = (
{
closed = 1;
nodes = (
"1221 1511 LINE",
"1182 1565 LINE",
"588 1122 LINE",
"627 1069 LINE"
);
}
);
width = 1159;
},
{
background = {
paths = (
{
closed = 1;
nodes = (
"778 1188 LINE",
"963 1008 LINE",
"1360 1397 LINE",
"1174 1577 LINE"
);
},
{
closed = 1;
nodes = (
"700 594 OFFCURVE",
"743 588 OFFCURVE",
"778 578 CURVE SMOOTH",
"883 545 LINE",
"842 641 LINE",
"801 434 OFFCURVE",
"725 338 OFFCURVE",
"596 338 CURVE SMOOTH",
"500 338 OFFCURVE",
"455 365 OFFCURVE",
"473 463 CURVE SMOOTH",
"494 567 OFFCURVE",
"553 594 OFFCURVE",
"653 594 CURVE SMOOTH"
);
},
{
closed = 1;
nodes = (
"313 950 OFFCURVE",
"86 762 OFFCURVE",
"31 469 CURVE SMOOTH",
"-25 172 OFFCURVE",
"143 -18 OFFCURVE",
"498 -18 CURVE SMOOTH",
"815 -18 OFFCURVE",
"1165 156 OFFCURVE",
"1260 641 CURVE SMOOTH",
"1346 1079 OFFCURVE",
"1257 1268 OFFCURVE",
"754 1503 CURVE SMOOTH",
"618 1567 LINE",
"389 1274 LINE",
"528 1186 LINE SMOOTH",
"772 1032 OFFCURVE",
"862 928 OFFCURVE",
"868 809 CURVE",
"895 850 LINE",
"805 899 LINE SMOOTH",
"745 932 OFFCURVE",
"676 950 OFFCURVE",
"604 950 CURVE SMOOTH"
);
}
);
};
components = (
{
name = partialdiff;
}
);
layerId = "6D60D92C-1450-4586-BB49-599D0D4C1213";
paths = (
{
closed = 1;
nodes = (
"1343 1364 LINE",
"1143 1567 LINE",
"567 967 LINE",
"766 764 LINE"
);
}
);
width = 1303;
},
{
background = {
paths = (
{
closed = 1;
nodes = (
"1247 1440 LINE",
"1135 1569 LINE",
"791 1278 LINE",
"907 1153 LINE"
);
}
);
};
components = (
{
name = partialdiff;
}
);
layerId = "74CCE9C5-5564-42E0-9214-3BF0725DF94D";
paths = (
{
closed = 1;
nodes = (
"1247 1427 LINE",
"1124 1569 LINE",
"596 1122 LINE",
"725 985 LINE"
);
}
);
width = 1229;
}
);
leftKerningGroup = eth;
leftMetricsKey = partialdiff;
rightKerningGroup = eth;
rightMetricsKey = partialdiff;
unicode = 00F0;
},
{
color = 3;
glyphname = dcroat;
lastChange = "2020-12-22 23:58:30 +0000";
layers = (
{
background = {
paths = (
{
closed = 1;
nodes = (
"599 -12 OFFCURVE",
"697 18 OFFCURVE",
"806 74 CURVE SMOOTH",
"904 125 LINE",
"896 172 LINE",
"785 125 LINE SMOOTH",
"673 78 OFFCURVE",
"595 55 OFFCURVE",
"519 55 CURVE SMOOTH",
"282 55 OFFCURVE",
"142 256 OFFCURVE",
"198 532 CURVE SMOOTH",
"245 772 OFFCURVE",
"429 948 OFFCURVE",
"693 948 CURVE SMOOTH",
"769 948 OFFCURVE",
"841 928 OFFCURVE",
"935 883 CURVE SMOOTH",
"1025 840 LINE",
"894 166 LINE",
"892 137 LINE",
"882 0 LINE",
"935 0 LINE",
"1240 1577 LINE",
"1156 1511 LINE",
"1031 877 LINE",
"1050 887 LINE",
"972 932 LINE SMOOTH",
"884 983 OFFCURVE",
"796 1016 OFFCURVE",
"695 1016 CURVE SMOOTH",
"531 1016 OFFCURVE",
"388 954 OFFCURVE",
"286 854 CURVE SMOOTH",
"206 776 OFFCURVE",
"146 672 OFFCURVE",
"122 545 CURVE SMOOTH",
"62 244 OFFCURVE",
"216 -12 OFFCURVE",
"499 -12 CURVE SMOOTH"
);
},
{
closed = 1;
nodes = (
"1381 1210 LINE",
"1394 1278 LINE",
"681 1278 LINE",
"669 1210 LINE"
);
}
);
};
layerId = "13A5184A-77A5-4E03-80A5-A9198A2CA35F";
paths = (
{
closed = 1;
nodes = (
"599 -12 OFFCURVE",
"697 18 OFFCURVE",
"806 74 CURVE SMOOTH",
"904 125 LINE",
"896 172 LINE",
"785 125 LINE SMOOTH",
"673 78 OFFCURVE",
"595 55 OFFCURVE",
"519 55 CURVE SMOOTH",
"282 55 OFFCURVE",
"142 256 OFFCURVE",
"198 532 CURVE SMOOTH",
"245 772 OFFCURVE",
"429 948 OFFCURVE",
"693 948 CURVE SMOOTH",
"769 948 OFFCURVE",
"841 928 OFFCURVE",
"935 883 CURVE SMOOTH",
"1025 840 LINE",
"894 166 LINE",
"892 137 LINE",
"882 0 LINE",
"935 0 LINE",
"1240 1577 LINE",
"1156 1511 LINE",
"1031 877 LINE",
"1050 887 LINE",
"972 932 LINE SMOOTH",
"884 983 OFFCURVE",
"796 1016 OFFCURVE",
"695 1016 CURVE SMOOTH",
"409 1016 OFFCURVE",
"177 827 OFFCURVE",
"122 545 CURVE SMOOTH",
"62 244 OFFCURVE",
"216 -12 OFFCURVE",
"499 -12 CURVE SMOOTH"
);
},
{
closed = 1;
nodes = (
"1381 1210 LINE",
"1394 1278 LINE",
"681 1278 LINE",
"669 1210 LINE"
);
}
);
width = 1254;
},
{
background = {
paths = (
{
closed = 1;
nodes = (
"532 -18 OFFCURVE",
"639 20 OFFCURVE",
"748 84 CURVE SMOOTH",
"850 143 LINE",
"778 379 LINE",
"737 365 LINE SMOOTH",
"698 350 OFFCURVE",
"659 344 OFFCURVE",
"629 344 CURVE SMOOTH",
"520 344 OFFCURVE",
"467 389 OFFCURVE",
"489 510 CURVE SMOOTH",
"510 608 OFFCURVE",
"580 651 OFFCURVE",
"682 651 CURVE SMOOTH",
"713 651 OFFCURVE",
"750 645 OFFCURVE",
"784 635 CURVE SMOOTH",
"827 623 LINE",
"754 279 LINE",
"803 205 LINE",
"821 0 LINE",
"1145 0 LINE",
"1452 1577 LINE",
"993 1511 LINE",
"870 870 LINE",
"993 885 LINE",
"870 946 LINE SMOOTH",
"780 989 OFFCURVE",
"684 1014 OFFCURVE",
"588 1014 CURVE SMOOTH",
"453 1014 OFFCURVE",
"322 969 OFFCURVE",
"215 866 CURVE SMOOTH",
"125 778 OFFCURVE",
"76 666 OFFCURVE",
"53 551 CURVE SMOOTH",
"6 303 OFFCURVE",
"88 -18 OFFCURVE",
"430 -18 CURVE SMOOTH"
);
},
{
closed = 1;
nodes = (
"1491 1114 LINE",
"1544 1391 LINE",
"608 1391 LINE",
"555 1114 LINE"
);
}
);
};
guideLines = (
{
position = "{278, 495}";
},
{
angle = 79;
position = "{59, 438}";
},
{
angle = 79;
position = "{271, 438}";
},
{
angle = 79;
position = "{272, 417}";
},
{
angle = 79;
position = "{347, 391}";
}
);
layerId = "6D60D92C-1450-4586-BB49-599D0D4C1213";
paths = (
{
closed = 1;
nodes = (
"532 -18 OFFCURVE",
"639 20 OFFCURVE",
"748 84 CURVE SMOOTH",
"850 143 LINE",
"778 379 LINE",
"737 365 LINE SMOOTH",
"698 350 OFFCURVE",
"659 344 OFFCURVE",
"629 344 CURVE SMOOTH",
"520 344 OFFCURVE",
"467 389 OFFCURVE",
"489 510 CURVE SMOOTH",
"510 608 OFFCURVE",
"580 651 OFFCURVE",
"682 651 CURVE SMOOTH",
"713 651 OFFCURVE",
"750 645 OFFCURVE",
"784 635 CURVE SMOOTH",
"827 623 LINE",
"754 279 LINE",
"803 205 LINE",
"821 0 LINE",
"1145 0 LINE",
"1452 1577 LINE",
"993 1511 LINE",
"870 870 LINE",
"993 885 LINE",
"870 946 LINE SMOOTH",
"780 989 OFFCURVE",
"684 1014 OFFCURVE",
"588 1014 CURVE SMOOTH",
"315 1014 OFFCURVE",
"109 834 OFFCURVE",
"53 551 CURVE SMOOTH",
"6 303 OFFCURVE",
"88 -18 OFFCURVE",
"430 -18 CURVE SMOOTH"
);
},
{
closed = 1;
nodes = (
"1491 1114 LINE",
"1544 1391 LINE",
"608 1391 LINE",
"555 1114 LINE"
);
}
);
width = 1389;
},
{
background = {
paths = (
{
closed = 1;
nodes = (
"556 -16 OFFCURVE",
"656 23 OFFCURVE",
"753 84 CURVE SMOOTH",
"841 141 LINE",
"824 299 LINE",
"726 258 LINE SMOOTH",
"667 233 OFFCURVE",
"609 219 OFFCURVE",
"550 219 CURVE SMOOTH",
"388 219 OFFCURVE",
"316 324 OFFCURVE",
"353 518 CURVE SMOOTH",
"390 709 OFFCURVE",
"484 782 OFFCURVE",
"632 782 CURVE SMOOTH",
"691 782 OFFCURVE",
"763 760 OFFCURVE",
"808 743 CURVE SMOOTH",
"888 713 LINE",
"794 233 LINE",
"818 190 LINE",
"812 0 LINE",
"1007 0 LINE",
"1314 1577 LINE",
"1041 1511 LINE",
"919 874 LINE",
"978 891 LINE",
"869 944 LINE SMOOTH",
"765 995 OFFCURVE",
"675 1016 OFFCURVE",
"589 1016 CURVE SMOOTH",
"464 1016 OFFCURVE",
"345 967 OFFCURVE",
"247 862 CURVE SMOOTH",
"161 772 OFFCURVE",
"116 655 OFFCURVE",
"95 539 CURVE SMOOTH",
"42 279 OFFCURVE",
"155 -16 OFFCURVE",
"468 -16 CURVE SMOOTH"
);
},
{
closed = 1;
nodes = (
"1404 1163 LINE",
"1439 1335 LINE",
"613 1335 LINE",
"579 1163 LINE"
);
}
);
};
guideLines = (
{
angle = 79;
position = "{106, 575}";
},
{
angle = 79;
position = "{233, 568}";
},
{
angle = 79;
position = "{245, 280}";
},
{
angle = 79;
position = "{288, 280}";
},
{
angle = 79;
position = "{305, 280}";
},
{
position = "{108, 496}";
},
{
position = "{197, 382}";
}
);
layerId = "74CCE9C5-5564-42E0-9214-3BF0725DF94D";
paths = (
{
closed = 1;
nodes = (
"556 -16 OFFCURVE",
"656 23 OFFCURVE",
"753 84 CURVE SMOOTH",
"841 141 LINE",
"824 299 LINE",
"726 258 LINE SMOOTH",
"667 233 OFFCURVE",
"609 219 OFFCURVE",
"550 219 CURVE SMOOTH",
"388 219 OFFCURVE",
"316 324 OFFCURVE",
"353 518 CURVE SMOOTH",
"390 709 OFFCURVE",
"484 782 OFFCURVE",
"632 782 CURVE SMOOTH",
"691 782 OFFCURVE",
"763 760 OFFCURVE",
"808 743 CURVE SMOOTH",
"888 713 LINE",
"794 233 LINE",
"818 190 LINE",
"812 0 LINE",
"1007 0 LINE",
"1314 1577 LINE",
"1041 1511 LINE",
"919 874 LINE",
"978 891 LINE",
"869 944 LINE SMOOTH",
"765 995 OFFCURVE",
"675 1016 OFFCURVE",
"589 1016 CURVE SMOOTH",
"335 1016 OFFCURVE",
"144 817 OFFCURVE",
"95 539 CURVE SMOOTH",
"42 279 OFFCURVE",
"155 -16 OFFCURVE",
"468 -16 CURVE SMOOTH"
);
},
{
closed = 1;
nodes = (
"1404 1163 LINE",
"1439 1335 LINE",
"613 1335 LINE",
"579 1163 LINE"
);
}
);
width = 1291;
}
);
leftKerningGroup = o;
leftMetricsKey = d;
rightMetricsKey = "=|hbar";
unicode = 0111;
},
{
color = 4;
glyphname = e;
lastChange = "2020-12-22 23:58:30 +0000";
layers = (
{
anchors = (
{
name = bottom;
position = "{555, -72}";
},
{
name = ogonek;
position = "{739, 20}";
},
{
name = top;
position = "{784, 1126}";
}
);
background = {
paths = (
{
closed = 1;
nodes = (
"700 -18 OFFCURVE",
"850 8 OFFCURVE",
"1004 66 CURVE SMOOTH",
"1178 131 LINE",
"1116 57 LINE",
"1034 455 LINE",
"1108 371 LINE",
"940 338 LINE SMOOTH",
"848 319 OFFCURVE",
"766 309 OFFCURVE",
"698 309 CURVE SMOOTH",
"504 309 OFFCURVE",
"449 371 OFFCURVE",
"487 571 CURVE SMOOTH",
"522 754 OFFCURVE",
"584 803 OFFCURVE",
"717 803 CURVE SMOOTH",
"821 803 OFFCURVE",
"866 739 OFFCURVE",
"838 596 CURVE",
"930 657 LINE",
"416 657 LINE",
"373 430 LINE",
"1186 430 LINE",
"1202 522 LINE SMOOTH",
"1270 877 OFFCURVE",
"1096 1096 OFFCURVE",
"756 1096 CURVE SMOOTH",
"442 1096 OFFCURVE",
"125 938 OFFCURVE",
"55 565 CURVE SMOOTH",
"-14 207 OFFCURVE",
"219 -18 OFFCURVE",
"565 -18 CURVE SMOOTH"
);
}
);
};
guideLines = (
{
angle = 79;
position = "{65, 476}";
},
{
angle = 79;
position = "{637, 464}";
},
{
angle = 79;
position = "{264, 418}";
}
);
layerId = "6D60D92C-1450-4586-BB49-599D0D4C1213";
paths = (
{
closed = 1;
nodes = (
"709 -18 OFFCURVE",
"866 12 OFFCURVE",
"1030 80 CURVE SMOOTH",
"1215 158 LINE",
"1116 57 LINE",
"1034 455 LINE",
"1108 371 LINE",
"940 338 LINE SMOOTH",
"848 319 OFFCURVE",
"766 309 OFFCURVE",
"698 309 CURVE SMOOTH",
"504 309 OFFCURVE",
"449 371 OFFCURVE",
"487 571 CURVE SMOOTH",
"522 754 OFFCURVE",
"584 803 OFFCURVE",
"717 803 CURVE SMOOTH",
"821 803 OFFCURVE",
"866 739 OFFCURVE",
"838 596 CURVE",
"930 657 LINE",
"416 657 LINE",
"373 430 LINE",
"1186 430 LINE",
"1202 522 LINE SMOOTH",
"1270 877 OFFCURVE",
"1096 1096 OFFCURVE",
"756 1096 CURVE SMOOTH",
"442 1096 OFFCURVE",
"125 938 OFFCURVE",
"55 565 CURVE SMOOTH",
"-14 207 OFFCURVE",
"219 -18 OFFCURVE",
"565 -18 CURVE SMOOTH"
);
}
);
width = 1237;
},
{
anchors = (
{
name = bottom;
position = "{524, -72}";
},
{
name = ogonek;
position = "{577, 20}";
},
{
name = top;
position = "{713, 1126}";
}
);
background = {
paths = (
{
closed = 1;
nodes = (
"645 0 OFFCURVE",
"737 18 OFFCURVE",
"836 53 CURVE SMOOTH",
"948 94 LINE",
"915 43 LINE",
"883 154 LINE",
"934 145 LINE",
"815 109 LINE SMOOTH",
"727 82 OFFCURVE",
"647 68 OFFCURVE",
"573 68 CURVE SMOOTH",
"301 68 OFFCURVE",
"178 246 OFFCURVE",
"231 535 CURVE SMOOTH",
"283 817 OFFCURVE",
"498 961 OFFCURVE",
"758 961 CURVE SMOOTH",
"827 961 OFFCURVE",
"903 950 OFFCURVE",
"997 922 CURVE SMOOTH",
"1104 889 LINE",
"1024 883 LINE",
"1071 985 LINE",
"1108 946 LINE",
"1024 979 LINE SMOOTH",
"944 1010 OFFCURVE",
"848 1028 OFFCURVE",
"762 1028 CURVE SMOOTH",
"473 1028 OFFCURVE",
"223 868 OFFCURVE",
"160 549 CURVE SMOOTH",
"96 231 OFFCURVE",
"246 0 OFFCURVE",
"561 0 CURVE SMOOTH"
);
}
);
};
guideLines = (
{
angle = 79;
position = "{87, 428}";
},
{
angle = 79;
position = "{124, 428}";
}
);
layerId = "13A5184A-77A5-4E03-80A5-A9198A2CA35F";
paths = (
{
closed = 1;
nodes = (
"629 -12 OFFCURVE",
"741 16 OFFCURVE",
"836 55 CURVE SMOOTH",
"940 98 LINE",
"909 37 LINE",
"866 166 LINE",
"926 147 LINE",
"817 109 LINE SMOOTH",
"725 76 OFFCURVE",
"635 55 OFFCURVE",
"543 55 CURVE SMOOTH",
"295 55 OFFCURVE",
"135 223 OFFCURVE",
"195 530 CURVE SMOOTH",
"248 801 OFFCURVE",
"451 948 OFFCURVE",
"676 948 CURVE SMOOTH",
"911 948 OFFCURVE",
"1006 778 OFFCURVE",
"956 528 CURVE",
"1010 573 LINE",
"152 573 LINE",
"139 508 LINE",
"1022 508 LINE",
"1030 551 LINE SMOOTH",
"1077 791 OFFCURVE",
"969 1016 OFFCURVE",
"680 1016 CURVE SMOOTH",
"387 1016 OFFCURVE",
"172 811 OFFCURVE",
"119 526 CURVE SMOOTH",
"53 190 OFFCURVE",
"258 -12 OFFCURVE",
"532 -12 CURVE SMOOTH"
);
}
);
width = 1122;
},
{
anchors = (
{
name = bottom;
position = "{538, -72}";
},
{
name = ogonek;
position = "{681, 20}";
},
{
name = top;
position = "{716, 1126}";
}
);
background = {
paths = (
{
closed = 1;
nodes = (
"880 -16 OFFCURVE",
"1072 182 OFFCURVE",
"1129 473 CURVE SMOOTH",
"1189 770 OFFCURVE",
"1035 1057 OFFCURVE",
"689 1057 CURVE SMOOTH",
"347 1057 OFFCURVE",
"155 854 OFFCURVE",
"99 567 CURVE SMOOTH",
"36 244 OFFCURVE",
"224 -16 OFFCURVE",
"542 -16 CURVE SMOOTH"
);
},
{
closed = 1;
nodes = (
"423 219 OFFCURVE",
"312 326 OFFCURVE",
"357 549 CURVE SMOOTH",
"388 717 OFFCURVE",
"480 821 OFFCURVE",
"658 821 CURVE SMOOTH",
"839 821 OFFCURVE",
"904 668 OFFCURVE",
"869 492 CURVE SMOOTH",
"837 307 OFFCURVE",
"728 219 OFFCURVE",
"562 219 CURVE SMOOTH"
);
}
);
};
guideLines = (
{
angle = 79;
position = "{95, 516}";
},
{
angle = 79;
position = "{200, 401}";
}
);
layerId = "74CCE9C5-5564-42E0-9214-3BF0725DF94D";
paths = (
{
closed = 1;
nodes = (
"656 -16 OFFCURVE",
"779 8 OFFCURVE",
"904 61 CURVE SMOOTH",
"1037 119 LINE",
"992 47 LINE",
"925 311 LINE",
"982 279 LINE",
"851 244 LINE SMOOTH",
"769 221 OFFCURVE",
"685 209 OFFCURVE",
"615 209 CURVE SMOOTH",
"411 209 OFFCURVE",
"312 305 OFFCURVE",
"359 555 CURVE SMOOTH",
"396 741 OFFCURVE",
"501 838 OFFCURVE",
"663 838 CURVE SMOOTH",
"822 838 OFFCURVE",
"896 721 OFFCURVE",
"865 559 CURVE",
"951 639 LINE",
"292 639 LINE",
"255 451 LINE",
"1082 451 LINE",
"1099 535 LINE SMOOTH",
"1154 813 OFFCURVE",
"1011 1057 OFFCURVE",
"704 1057 CURVE SMOOTH",
"411 1057 OFFCURVE",
"163 889 OFFCURVE",
"97 553 CURVE SMOOTH",
"30 207 OFFCURVE",
"243 -16 OFFCURVE",
"546 -16 CURVE SMOOTH"
);
}
);
width = 1168;
}
);
leftKerningGroup = o;
leftMetricsKey = o;
rightKerningGroup = e;
unicode = 0065;
},
{
color = 4;
glyphname = f;
lastChange = "2021-09-15 22:20:44 +0000";
layers = (
{
background = {
paths = (
{
closed = 1;
nodes = (
"207 0 LINE",
"387 936 LINE",
"782 936 LINE",
"797 1004 LINE",
"401 1004 LINE",
"451 1255 LINE SMOOTH",
"481 1413 OFFCURVE",
"573 1481 OFFCURVE",
"750 1481 CURVE SMOOTH",
"795 1481 OFFCURVE",
"842 1475 OFFCURVE",
"893 1466 CURVE SMOOTH",
"963 1454 LINE",
"920 1444 LINE",
"954 1532 LINE",
"971 1505 LINE",
"918 1522 LINE SMOOTH",
"868 1538 OFFCURVE",
"805 1548 OFFCURVE",
"748 1548 CURVE SMOOTH",
"551 1548 OFFCURVE",
"418 1454 OFFCURVE",
"383 1272 CURVE SMOOTH",
"330 1004 LINE",
"94 983 LINE",
"84 936 LINE",
"315 936 LINE",
"135 0 LINE"
);
}
);
};
layerId = "13A5184A-77A5-4E03-80A5-A9198A2CA35F";
paths = (
{
closed = 1;
nodes = (
"207 0 LINE",
"387 936 LINE",
"782 936 LINE",
"797 1004 LINE",
"401 1004 LINE",
"451 1255 LINE SMOOTH",
"481 1413 OFFCURVE",
"573 1481 OFFCURVE",
"750 1481 CURVE SMOOTH",
"795 1481 OFFCURVE",
"842 1475 OFFCURVE",
"893 1466 CURVE SMOOTH",
"963 1454 LINE",
"920 1444 LINE",
"954 1532 LINE",
"971 1505 LINE",
"918 1522 LINE SMOOTH",
"868 1538 OFFCURVE",
"805 1548 OFFCURVE",
"748 1548 CURVE SMOOTH",
"543 1548 OFFCURVE",
"418 1458 OFFCURVE",
"385 1282 CURVE SMOOTH",
"330 1004 LINE",
"94 983 LINE",
"84 936 LINE",
"315 936 LINE",
"135 0 LINE"
);
}
);
width = 737;
},
{
background = {
paths = (
{
closed = 1;
nodes = (
"586 0 LINE",
"727 733 LINE",
"1032 733 LINE",
"1100 1075 LINE",
"797 1075 LINE",
"811 1153 LINE SMOOTH",
"821 1206 OFFCURVE",
"862 1231 OFFCURVE",
"973 1231 CURVE SMOOTH",
"1001 1231 OFFCURVE",
"1036 1227 OFFCURVE",
"1079 1223 CURVE SMOOTH",
"1178 1210 LINE",
"1096 1163 LINE",
"1262 1595 LINE",
"1339 1479 LINE",
"1198 1520 LINE SMOOTH",
"1096 1548 OFFCURVE",
"997 1567 OFFCURVE",
"903 1567 CURVE SMOOTH",
"639 1567 OFFCURVE",
"426 1464 OFFCURVE",
"373 1192 CURVE SMOOTH",
"350 1075 LINE",
"123 1006 LINE",
"70 733 LINE",
"283 733 LINE",
"141 0 LINE"
);
}
);
};
layerId = "6D60D92C-1450-4586-BB49-599D0D4C1213";
paths = (
{
closed = 1;
nodes = (
"586 0 LINE",
"727 733 LINE",
"1032 733 LINE",
"1100 1075 LINE",
"797 1075 LINE",
"811 1153 LINE SMOOTH",
"821 1206 OFFCURVE",
"862 1231 OFFCURVE",
"973 1231 CURVE SMOOTH",
"1001 1231 OFFCURVE",
"1036 1227 OFFCURVE",
"1079 1223 CURVE SMOOTH",
"1178 1210 LINE",
"1096 1163 LINE",
"1262 1595 LINE",
"1339 1468 LINE",
"1198 1511 LINE SMOOTH",
"1096 1542 OFFCURVE",
"973 1567 OFFCURVE",
"879 1567 CURVE SMOOTH",
"592 1567 OFFCURVE",
"422 1473 OFFCURVE",
"375 1212 CURVE SMOOTH",
"350 1075 LINE",
"123 1006 LINE",
"70 733 LINE",
"283 733 LINE",
"141 0 LINE"
);
}
);
width = 1047;
},
{
background = {
paths = (
{
closed = 1;
nodes = (
"403 0 LINE",
"561 815 LINE",
"877 815 LINE",
"922 1040 LINE",
"606 1040 LINE",
"633 1180 LINE SMOOTH",
"653 1286 OFFCURVE",
"729 1325 OFFCURVE",
"846 1325 CURVE SMOOTH",
"879 1325 OFFCURVE",
"915 1319 OFFCURVE",
"958 1313 CURVE SMOOTH",
"1032 1300 LINE",
"950 1217 LINE",
"1077 1565 LINE",
"1126 1495 LINE",
"1036 1522 LINE SMOOTH",
"963 1544 OFFCURVE",
"883 1559 OFFCURVE",
"813 1559 CURVE SMOOTH",
"600 1559 OFFCURVE",
"430 1460 OFFCURVE",
"383 1217 CURVE SMOOTH",
"348 1040 LINE",
"115 995 LINE",
"78 815 LINE",
"303 815 LINE",
"145 0 LINE"
);
}
);
};
layerId = "74CCE9C5-5564-42E0-9214-3BF0725DF94D";
paths = (
{
closed = 1;
nodes = (
"403 0 LINE",
"561 815 LINE",
"877 815 LINE",
"922 1040 LINE",
"606 1040 LINE",
"635 1188 LINE SMOOTH",
"653 1286 OFFCURVE",
"700 1325 OFFCURVE",
"831 1325 CURVE SMOOTH",
"864 1325 OFFCURVE",
"915 1319 OFFCURVE",
"958 1311 CURVE SMOOTH",
"1032 1296 LINE",
"950 1217 LINE",
"1077 1565 LINE",
"1126 1485 LINE",
"1006 1520 LINE SMOOTH",
"952 1536 OFFCURVE",
"854 1559 OFFCURVE",
"780 1559 CURVE SMOOTH",
"567 1559 OFFCURVE",
"432 1466 OFFCURVE",
"391 1264 CURVE SMOOTH",
"348 1040 LINE",
"115 995 LINE",
"78 815 LINE",
"303 815 LINE",
"145 0 LINE"
);
}
);
width = 870;
}
);
leftKerningGroup = f;
rightKerningGroup = f;
unicode = 0066;
},
{
color = 4;
glyphname = g;
lastChange = "2021-09-15 22:20:19 +0000";
layers = (
{
anchors = (
{
name = top;
position = "{728, 1126}";
}
);
background = {
paths = (
{
closed = 1;
nodes = (
"697 -428 OFFCURVE",
"867 -342 OFFCURVE",
"914 -96 CURVE SMOOTH",
"1127 1004 LINE",
"1068 1004 LINE",
"1031 879 LINE",
"1029 866 LINE",
"845 -84 LINE",
"804 -297 OFFCURVE",
"665 -360 OFFCURVE",
"427 -360 CURVE SMOOTH",
"339 -360 OFFCURVE",
"228 -348 OFFCURVE",
"140 -330 CURVE SMOOTH",
"38 -307 LINE",
"89 -272 LINE",
"40 -391 LINE",
"9 -358 LINE",
"116 -387 LINE SMOOTH",
"200 -410 OFFCURVE",
"329 -428 OFFCURVE",
"413 -428 CURVE SMOOTH"
);
},
{
closed = 1;
nodes = (
"599 -12 OFFCURVE",
"697 18 OFFCURVE",
"806 74 CURVE SMOOTH",
"904 125 LINE",
"896 172 LINE",
"785 125 LINE SMOOTH",
"673 78 OFFCURVE",
"595 55 OFFCURVE",
"519 55 CURVE SMOOTH",
"282 55 OFFCURVE",
"142 256 OFFCURVE",
"198 532 CURVE SMOOTH",
"245 772 OFFCURVE",
"423 948 OFFCURVE",
"693 948 CURVE SMOOTH",
"769 948 OFFCURVE",
"841 926 OFFCURVE",
"935 883 CURVE SMOOTH",
"1031 838 LINE",
"1052 887 LINE",
"953 942 LINE SMOOTH",
"855 997 OFFCURVE",
"744 1016 OFFCURVE",
"667 1016 CURVE SMOOTH",
"529 1016 OFFCURVE",
"402 969 OFFCURVE",
"292 866 CURVE SMOOTH",
"198 778 OFFCURVE",
"146 664 OFFCURVE",
"122 545 CURVE SMOOTH",
"62 244 OFFCURVE",
"216 -12 OFFCURVE",
"499 -12 CURVE SMOOTH"
);
}
);
};
layerId = "13A5184A-77A5-4E03-80A5-A9198A2CA35F";
paths = (
{
closed = 1;
nodes = (
"697 -428 OFFCURVE",
"867 -342 OFFCURVE",
"914 -96 CURVE SMOOTH",
"1127 1004 LINE",
"1068 1004 LINE",
"1031 879 LINE",
"1029 866 LINE",
"845 -84 LINE",
"804 -297 OFFCURVE",
"665 -360 OFFCURVE",
"427 -360 CURVE SMOOTH",
"339 -360 OFFCURVE",
"228 -348 OFFCURVE",
"140 -330 CURVE SMOOTH",
"38 -307 LINE",
"89 -272 LINE",
"40 -391 LINE",
"9 -358 LINE",
"116 -387 LINE SMOOTH",
"200 -410 OFFCURVE",
"329 -428 OFFCURVE",
"413 -428 CURVE SMOOTH"
);
},
{
closed = 1;
nodes = (
"599 -12 OFFCURVE",
"697 18 OFFCURVE",
"806 74 CURVE SMOOTH",
"904 125 LINE",
"896 172 LINE",
"785 125 LINE SMOOTH",
"673 78 OFFCURVE",
"595 55 OFFCURVE",
"519 55 CURVE SMOOTH",
"282 55 OFFCURVE",
"142 256 OFFCURVE",
"198 532 CURVE SMOOTH",
"245 772 OFFCURVE",
"423 948 OFFCURVE",
"693 948 CURVE SMOOTH",
"769 948 OFFCURVE",
"841 926 OFFCURVE",
"935 883 CURVE SMOOTH",
"1031 838 LINE",
"1052 887 LINE",
"953 942 LINE SMOOTH",
"855 997 OFFCURVE",
"744 1016 OFFCURVE",
"667 1016 CURVE SMOOTH",
"396 1016 OFFCURVE",
"181 831 OFFCURVE",
"122 545 CURVE SMOOTH",
"62 244 OFFCURVE",
"216 -12 OFFCURVE",
"499 -12 CURVE SMOOTH"
);
}
);
width = 1215;
},
{
anchors = (
{
name = top;
position = "{773, 1126}";
}
);
background = {
paths = (
{
closed = 1;
nodes = (
"814 -428 OFFCURVE",
"1087 -303 OFFCURVE",
"1156 57 CURVE SMOOTH",
"1353 1075 LINE",
"1029 1075 LINE",
"933 870 LINE",
"855 797 LINE",
"710 41 LINE SMOOTH",
"693 -49 OFFCURVE",
"593 -76 OFFCURVE",
"466 -76 CURVE SMOOTH",
"382 -76 OFFCURVE",
"286 -63 OFFCURVE",
"194 -51 CURVE SMOOTH",
"56 -33 LINE",
"161 78 LINE",
"-36 -399 LINE",
"-112 -324 LINE",
"69 -373 LINE SMOOTH",
"196 -410 OFFCURVE",
"331 -428 OFFCURVE",
"456 -428 CURVE SMOOTH"
);
},
{
closed = 1;
nodes = (
"538 57 OFFCURVE",
"648 92 OFFCURVE",
"759 154 CURVE SMOOTH",
"861 211 LINE",
"788 442 LINE",
"747 430 LINE SMOOTH",
"706 416 OFFCURVE",
"665 408 OFFCURVE",
"634 408 CURVE SMOOTH",
"529 408 OFFCURVE",
"482 467 OFFCURVE",
"507 596 CURVE SMOOTH",
"532 729 OFFCURVE",
"587 756 OFFCURVE",
"693 756 CURVE SMOOTH",
"732 756 OFFCURVE",
"767 750 OFFCURVE",
"816 739 CURVE SMOOTH",
"898 721 LINE",
"1019 983 LINE",
"906 1030 LINE SMOOTH",
"794 1077 OFFCURVE",
"679 1096 OFFCURVE",
"593 1096 CURVE SMOOTH",
"321 1096 OFFCURVE",
"122 899 OFFCURVE",
"63 606 CURVE SMOOTH",
"13 354 OFFCURVE",
"110 57 OFFCURVE",
"435 57 CURVE SMOOTH"
);
}
);
};
guideLines = (
{
angle = 79;
position = "{-13, 78}";
},
{
angle = 79;
position = "{216, 135}";
},
{
position = "{86, -170}";
}
);
layerId = "6D60D92C-1450-4586-BB49-599D0D4C1213";
paths = (
{
closed = 1;
nodes = (
"814 -428 OFFCURVE",
"1087 -303 OFFCURVE",
"1156 57 CURVE SMOOTH",
"1353 1075 LINE",
"1029 1075 LINE",
"933 870 LINE",
"855 797 LINE",
"710 41 LINE SMOOTH",
"693 -49 OFFCURVE",
"593 -76 OFFCURVE",
"466 -76 CURVE SMOOTH",
"382 -76 OFFCURVE",
"286 -63 OFFCURVE",
"194 -51 CURVE SMOOTH",
"56 -33 LINE",
"161 78 LINE",
"-36 -399 LINE",
"-83 -324 LINE",
"87 -373 LINE SMOOTH",
"208 -410 OFFCURVE",
"337 -428 OFFCURVE",
"456 -428 CURVE SMOOTH"
);
},
{
closed = 1;
nodes = (
"538 57 OFFCURVE",
"648 92 OFFCURVE",
"759 154 CURVE SMOOTH",
"861 211 LINE",
"788 442 LINE",
"747 430 LINE SMOOTH",
"706 416 OFFCURVE",
"665 408 OFFCURVE",
"634 408 CURVE SMOOTH",
"529 408 OFFCURVE",
"482 467 OFFCURVE",
"507 596 CURVE SMOOTH",
"532 729 OFFCURVE",
"587 756 OFFCURVE",
"693 756 CURVE SMOOTH",
"732 756 OFFCURVE",
"767 750 OFFCURVE",
"816 739 CURVE SMOOTH",
"898 721 LINE",
"1019 983 LINE",
"906 1030 LINE SMOOTH",
"794 1077 OFFCURVE",
"679 1096 OFFCURVE",
"593 1096 CURVE SMOOTH",
"321 1096 OFFCURVE",
"122 899 OFFCURVE",
"63 606 CURVE SMOOTH",
"13 354 OFFCURVE",
"110 57 OFFCURVE",
"435 57 CURVE SMOOTH"
);
}
);
width = 1341;
},
{
anchors = (
{
name = top;
position = "{766, 1126}";
}
);
associatedMasterId = "13A5184A-77A5-4E03-80A5-A9198A2CA35F";
background = {
paths = (
{
closed = 1;
nodes = (
"868 -68 LINE SMOOTH",
"827 -281 OFFCURVE",
"688 -344 OFFCURVE",
"451 -344 CURVE SMOOTH",
"362 -344 OFFCURVE",
"252 -332 OFFCURVE",
"164 -313 CURVE SMOOTH",
"61 -291 LINE",
"113 -256 LINE",
"63 -375 LINE",
"33 -342 LINE",
"139 -371 LINE SMOOTH",
"223 -393 OFFCURVE",
"352 -412 OFFCURVE",
"436 -412 CURVE SMOOTH",
"721 -412 OFFCURVE",
"891 -326 OFFCURVE",
"938 -80 CURVE SMOOTH",
"1147 1004 LINE",
"1087 1004 LINE",
"1051 879 LINE",
"1049 864 LINE"
);
},
{
closed = 1;
nodes = (
"1075 922 LINE",
"950 969 LINE SMOOTH",
"874 997 OFFCURVE",
"795 1016 OFFCURVE",
"717 1016 CURVE SMOOTH",
"422 1016 OFFCURVE",
"199 831 OFFCURVE",
"139 530 CURVE SMOOTH",
"82 238 OFFCURVE",
"242 -12 OFFCURVE",
"526 -12 CURVE SMOOTH",
"643 -12 OFFCURVE",
"797 39 OFFCURVE",
"936 180 CURVE",
"944 248 LINE",
"827 127 OFFCURVE",
"639 55 OFFCURVE",
"539 55 CURVE SMOOTH",
"276 55 OFFCURVE",
"166 272 OFFCURVE",
"217 528 CURVE SMOOTH",
"272 805 OFFCURVE",
"471 950 OFFCURVE",
"717 950 CURVE SMOOTH",
"782 950 OFFCURVE",
"848 936 OFFCURVE",
"911 913 CURVE SMOOTH",
"1055 862 LINE"
);
}
);
};
layerId = "E9963A18-2978-45B0-B2F8-2B3AB45DD2E5";
name = "May 6 18, 11:23";
paths = (
{
closed = 1;
nodes = (
"868 -68 LINE SMOOTH",
"827 -281 OFFCURVE",
"688 -344 OFFCURVE",
"451 -344 CURVE SMOOTH",
"362 -344 OFFCURVE",
"252 -332 OFFCURVE",
"164 -313 CURVE SMOOTH",
"61 -291 LINE",
"113 -256 LINE",
"63 -375 LINE",
"33 -342 LINE",
"139 -371 LINE SMOOTH",
"223 -393 OFFCURVE",
"352 -412 OFFCURVE",
"436 -412 CURVE SMOOTH",
"721 -412 OFFCURVE",
"891 -326 OFFCURVE",
"938 -80 CURVE SMOOTH",
"1147 1004 LINE",
"1087 1004 LINE",
"1051 879 LINE",
"1049 864 LINE"
);
},
{
closed = 1;
nodes = (
"1075 922 LINE",
"950 969 LINE SMOOTH",
"874 997 OFFCURVE",
"795 1016 OFFCURVE",
"717 1016 CURVE SMOOTH",
"422 1016 OFFCURVE",
"199 831 OFFCURVE",
"139 530 CURVE SMOOTH",
"82 238 OFFCURVE",
"242 -12 OFFCURVE",
"526 -12 CURVE SMOOTH",
"643 -12 OFFCURVE",
"797 39 OFFCURVE",
"936 180 CURVE",
"944 248 LINE",
"827 127 OFFCURVE",
"639 55 OFFCURVE",
"539 55 CURVE SMOOTH",
"276 55 OFFCURVE",
"166 272 OFFCURVE",
"217 528 CURVE SMOOTH",
"272 805 OFFCURVE",
"471 950 OFFCURVE",
"717 950 CURVE SMOOTH",
"782 950 OFFCURVE",
"848 936 OFFCURVE",
"911 913 CURVE SMOOTH",
"1055 862 LINE"
);
}
);
width = 1245;
},
{
anchors = (
{
name = top;
position = "{712, 1126}";
}
);
background = {
paths = (
{
closed = 1;
nodes = (
"738 -428 OFFCURVE",
"949 -307 OFFCURVE",
"1011 6 CURVE SMOOTH",
"1211 1040 LINE",
"1021 1040 LINE",
"951 864 LINE",
"910 819 LINE",
"749 -10 LINE SMOOTH",
"722 -150 OFFCURVE",
"617 -190 OFFCURVE",
"470 -190 CURVE SMOOTH",
"357 -190 OFFCURVE",
"257 -178 OFFCURVE",
"179 -164 CURVE SMOOTH",
"60 -141 LINE",
"138 -98 LINE",
"22 -395 LINE",
"-28 -334 LINE",
"103 -375 LINE SMOOTH",
"204 -408 OFFCURVE",
"329 -428 OFFCURVE",
"452 -428 CURVE SMOOTH"
);
},
{
closed = 1;
nodes = (
"534 41 OFFCURVE",
"624 61 OFFCURVE",
"706 96 CURVE SMOOTH",
"853 158 LINE",
"816 328 LINE",
"738 303 LINE SMOOTH",
"681 285 OFFCURVE",
"626 276 OFFCURVE",
"574 276 CURVE SMOOTH",
"400 276 OFFCURVE",
"327 397 OFFCURVE",
"364 575 CURVE SMOOTH",
"398 739 OFFCURVE",
"507 821 OFFCURVE",
"658 821 CURVE SMOOTH",
"710 821 OFFCURVE",
"765 805 OFFCURVE",
"816 780 CURVE SMOOTH",
"910 733 LINE",
"992 901 LINE",
"894 967 LINE SMOOTH",
"798 1030 OFFCURVE",
"697 1057 OFFCURVE",
"611 1057 CURVE SMOOTH",
"484 1057 OFFCURVE",
"364 1010 OFFCURVE",
"261 909 CURVE SMOOTH",
"173 823 OFFCURVE",
"128 711 OFFCURVE",
"105 594 CURVE SMOOTH",
"44 281 OFFCURVE",
"183 41 OFFCURVE",
"460 41 CURVE SMOOTH"
);
}
);
};
guideLines = (
{
angle = 79;
position = "{82, 452}";
},
{
angle = 79;
position = "{199, 394}";
}
);
layerId = "74CCE9C5-5564-42E0-9214-3BF0725DF94D";
paths = (
{
closed = 1;
nodes = (
"738 -428 OFFCURVE",
"949 -307 OFFCURVE",
"1011 6 CURVE SMOOTH",
"1211 1040 LINE",
"1021 1040 LINE",
"951 864 LINE",
"910 819 LINE",
"749 -10 LINE SMOOTH",
"722 -150 OFFCURVE",
"617 -190 OFFCURVE",
"470 -190 CURVE SMOOTH",
"357 -190 OFFCURVE",
"257 -178 OFFCURVE",
"179 -164 CURVE SMOOTH",
"60 -141 LINE",
"138 -98 LINE",
"22 -395 LINE",
"-28 -334 LINE",
"103 -375 LINE SMOOTH",
"204 -408 OFFCURVE",
"329 -428 OFFCURVE",
"452 -428 CURVE SMOOTH"
);
},
{
closed = 1;
nodes = (
"534 41 OFFCURVE",
"624 61 OFFCURVE",
"706 96 CURVE SMOOTH",
"853 158 LINE",
"816 328 LINE",
"738 303 LINE SMOOTH",
"681 285 OFFCURVE",
"626 276 OFFCURVE",
"574 276 CURVE SMOOTH",
"400 276 OFFCURVE",
"327 397 OFFCURVE",
"364 575 CURVE SMOOTH",
"398 739 OFFCURVE",
"507 821 OFFCURVE",
"658 821 CURVE SMOOTH",
"710 821 OFFCURVE",
"765 805 OFFCURVE",
"816 780 CURVE SMOOTH",
"910 733 LINE",
"992 901 LINE",
"894 967 LINE SMOOTH",
"798 1030 OFFCURVE",
"697 1057 OFFCURVE",
"611 1057 CURVE SMOOTH",
"353 1057 OFFCURVE",
"159 870 OFFCURVE",
"105 594 CURVE SMOOTH",
"44 281 OFFCURVE",
"183 41 OFFCURVE",
"460 41 CURVE SMOOTH"
);
}
);
width = 1255;
}
);
leftKerningGroup = o;
leftMetricsKey = d;
rightKerningGroup = u;
rightMetricsKey = u;
unicode = 0067;
},
{
color = 4;
glyphname = h;
lastChange = "2020-12-22 23:58:30 +0000";
layers = (
{
anchors = (
{
name = top.case;
position = "{510, 1579}";
}
);
background = {
paths = (
{
closed = 1;
nodes = (
"432 0 LINE",
"563 672 LINE",
"606 686 LINE SMOOTH",
"633 694 OFFCURVE",
"659 698 OFFCURVE",
"690 698 CURVE SMOOTH",
"788 698 OFFCURVE",
"809 662 OFFCURVE",
"797 598 CURVE SMOOTH",
"680 0 LINE",
"1124 0 LINE",
"1264 717 LINE SMOOTH",
"1305 932 OFFCURVE",
"1200 1096 OFFCURVE",
"932 1096 CURVE SMOOTH",
"827 1096 OFFCURVE",
"715 1057 OFFCURVE",
"610 1001 CURVE SMOOTH",
"446 915 LINE",
"602 870 LINE",
"739 1577 LINE",
"283 1511 LINE",
"-12 0 LINE"
);
}
);
};
guideLines = (
{
angle = 90;
position = "{177, 291}";
}
);
layerId = "6D60D92C-1450-4586-BB49-599D0D4C1213";
paths = (
{
closed = 1;
nodes = (
"432 0 LINE",
"563 672 LINE",
"606 686 LINE SMOOTH",
"633 694 OFFCURVE",
"659 698 OFFCURVE",
"690 698 CURVE SMOOTH",
"780 698 OFFCURVE",
"807 653 OFFCURVE",
"795 590 CURVE SMOOTH",
"680 0 LINE",
"1124 0 LINE",
"1262 702 LINE SMOOTH",
"1307 942 OFFCURVE",
"1153 1096 OFFCURVE",
"936 1096 CURVE SMOOTH",
"827 1096 OFFCURVE",
"700 1059 OFFCURVE",
"575 983 CURVE SMOOTH",
"446 905 LINE",
"602 870 LINE",
"739 1577 LINE",
"283 1511 LINE",
"-12 0 LINE"
);
}
);
width = 1311;
},
{
anchors = (
{
name = top.case;
position = "{429, 1579}";
}
);
background = {
paths = (
{
closed = 1;
nodes = (
"169 0 LINE",
"331 831 LINE",
"468 887 LINE SMOOTH",
"562 924 OFFCURVE",
"648 948 OFFCURVE",
"738 948 CURVE SMOOTH",
"923 948 OFFCURVE",
"1011 860 OFFCURVE",
"976 680 CURVE SMOOTH",
"843 0 LINE",
"914 0 LINE",
"1048 688 LINE SMOOTH",
"1086 891 OFFCURVE",
"1009 1016 OFFCURVE",
"777 1016 CURVE SMOOTH",
"677 1016 OFFCURVE",
"564 993 OFFCURVE",
"450 938 CURVE SMOOTH",
"325 879 LINE",
"339 868 LINE",
"476 1577 LINE",
"392 1511 LINE",
"97 0 LINE"
);
}
);
};
layerId = "13A5184A-77A5-4E03-80A5-A9198A2CA35F";
paths = (
{
closed = 1;
nodes = (
"159 0 LINE",
"320 831 LINE",
"439 879 LINE SMOOTH",
"562 928 OFFCURVE",
"646 948 OFFCURVE",
"753 948 CURVE SMOOTH",
"916 948 OFFCURVE",
"996 856 OFFCURVE",
"966 696 CURVE SMOOTH",
"832 0 LINE",
"904 0 LINE",
"1037 682 LINE SMOOTH",
"1080 901 OFFCURVE",
"964 1016 OFFCURVE",
"765 1016 CURVE SMOOTH",
"652 1016 OFFCURVE",
"538 985 OFFCURVE",
"421 930 CURVE SMOOTH",
"312 879 LINE",
"329 868 LINE",
"466 1577 LINE",
"382 1511 LINE",
"87 0 LINE"
);
}
);
width = 1166;
},
{
anchors = (
{
name = top.case;
position = "{481, 1579}";
}
);
background = {
anchors = (
{
name = top.case;
position = "{481, 1579}";
}
);
paths = (
{
closed = 1;
nodes = (
"301 0 LINE",
"446 748 LINE",
"520 778 LINE SMOOTH",
"594 807 OFFCURVE",
"649 823 OFFCURVE",
"711 823 CURVE SMOOTH",
"817 823 OFFCURVE",
"868 762 OFFCURVE",
"850 666 CURVE SMOOTH",
"723 0 LINE",
"983 0 LINE",
"1126 733 LINE SMOOTH",
"1163 924 OFFCURVE",
"1042 1057 OFFCURVE",
"827 1057 CURVE SMOOTH",
"725 1057 OFFCURVE",
"623 1028 OFFCURVE",
"543 989 CURVE SMOOTH",
"383 909 LINE",
"471 870 LINE",
"608 1577 LINE",
"338 1511 LINE",
"43 0 LINE"
);
}
);
};
layerId = "74CCE9C5-5564-42E0-9214-3BF0725DF94D";
paths = (
{
closed = 1;
nodes = (
"301 0 LINE",
"446 748 LINE",
"520 778 LINE SMOOTH",
"594 807 OFFCURVE",
"649 823 OFFCURVE",
"711 823 CURVE SMOOTH",
"817 823 OFFCURVE",
"868 762 OFFCURVE",
"850 666 CURVE SMOOTH",
"723 0 LINE",
"983 0 LINE",
"1126 733 LINE SMOOTH",
"1163 924 OFFCURVE",
"1042 1057 OFFCURVE",
"827 1057 CURVE SMOOTH",
"725 1057 OFFCURVE",
"623 1028 OFFCURVE",
"543 989 CURVE SMOOTH",
"383 909 LINE",
"471 870 LINE",
"608 1577 LINE",
"338 1511 LINE",
"43 0 LINE"
);
}
);
width = 1214;
}
);
leftKerningGroup = b;
leftMetricsKey = n;
rightKerningGroup = n;
rightMetricsKey = n;
unicode = 0068;
},
{
color = 3;
glyphname = hbar;
lastChange = "2020-12-22 23:58:30 +0000";
layers = (
{
layerId = "13A5184A-77A5-4E03-80A5-A9198A2CA35F";
paths = (
{
closed = 1;
nodes = (
"197 0 LINE",
"358 831 LINE",
"477 879 LINE SMOOTH",
"600 928 OFFCURVE",
"684 948 OFFCURVE",
"791 948 CURVE SMOOTH",
"954 948 OFFCURVE",
"1034 856 OFFCURVE",
"1004 696 CURVE SMOOTH",
"870 0 LINE",
"942 0 LINE",
"1075 682 LINE SMOOTH",
"1118 901 OFFCURVE",
"1001 1016 OFFCURVE",
"803 1016 CURVE SMOOTH",
"690 1016 OFFCURVE",
"575 985 OFFCURVE",
"459 930 CURVE SMOOTH",
"350 879 LINE",
"367 868 LINE",
"504 1577 LINE",
"420 1511 LINE",
"125 0 LINE"
);
},
{
closed = 1;
nodes = (
"862 1210 LINE",
"874 1278 LINE",
"162 1278 LINE",
"150 1210 LINE"
);
}
);
width = 1204;
},
{
background = {
paths = (
{
closed = 1;
nodes = (
"481 0 LINE",
"596 590 LINE",
"641 604 LINE SMOOTH",
"666 612 OFFCURVE",
"694 616 OFFCURVE",
"725 616 CURVE SMOOTH",
"823 616 OFFCURVE",
"842 580 OFFCURVE",
"829 516 CURVE SMOOTH",
"729 0 LINE",
"1174 0 LINE",
"1296 635 LINE SMOOTH",
"1337 850 OFFCURVE",
"1233 1014 OFFCURVE",
"965 1014 CURVE SMOOTH",
"860 1014 OFFCURVE",
"750 975 OFFCURVE",
"643 920 CURVE SMOOTH",
"479 834 LINE",
"635 788 LINE",
"788 1577 LINE",
"332 1511 LINE",
"37 0 LINE"
);
},
{
closed = 1;
nodes = (
"1059 1114 LINE",
"1112 1391 LINE",
"176 1391 LINE",
"123 1114 LINE"
);
}
);
};
layerId = "6D60D92C-1450-4586-BB49-599D0D4C1213";
paths = (
{
closed = 1;
nodes = (
"481 0 LINE",
"594 590 LINE",
"637 604 LINE SMOOTH",
"664 612 OFFCURVE",
"690 616 OFFCURVE",
"721 616 CURVE SMOOTH",
"811 616 OFFCURVE",
"838 571 OFFCURVE",
"825 508 CURVE SMOOTH",
"729 0 LINE",
"1174 0 LINE",
"1292 621 LINE SMOOTH",
"1337 860 OFFCURVE",
"1184 1014 OFFCURVE",
"967 1014 CURVE SMOOTH",
"858 1014 OFFCURVE",
"731 977 OFFCURVE",
"606 901 CURVE SMOOTH",
"477 823 LINE",
"633 788 LINE",
"788 1577 LINE",
"332 1511 LINE",
"37 0 LINE"
);
},
{
closed = 1;
nodes = (
"1059 1114 LINE",
"1112 1391 LINE",
"176 1391 LINE",
"123 1114 LINE"
);
}
);
width = 1359;
},
{
background = {
paths = (
{
closed = 1;
nodes = (
"338 0 LINE",
"483 748 LINE",
"557 778 LINE SMOOTH",
"631 807 OFFCURVE",
"686 823 OFFCURVE",
"748 823 CURVE SMOOTH",
"854 823 OFFCURVE",
"905 762 OFFCURVE",
"887 666 CURVE SMOOTH",
"760 0 LINE",
"1020 0 LINE",
"1163 733 LINE SMOOTH",
"1200 924 OFFCURVE",
"1079 1057 OFFCURVE",
"864 1057 CURVE SMOOTH",
"762 1057 OFFCURVE",
"659 1028 OFFCURVE",
"580 989 CURVE SMOOTH",
"420 909 LINE",
"508 870 LINE",
"645 1577 LINE",
"375 1511 LINE",
"80 0 LINE"
);
},
{
closed = 1;
nodes = (
"961 1163 LINE",
"993 1335 LINE",
"168 1335 LINE",
"135 1163 LINE"
);
}
);
};
guideLines = (
{
position = "{658, 496}";
}
);
layerId = "74CCE9C5-5564-42E0-9214-3BF0725DF94D";
paths = (
{
closed = 1;
nodes = (
"338 0 LINE",
"475 707 LINE",
"549 737 LINE SMOOTH",
"623 768 OFFCURVE",
"678 782 OFFCURVE",
"739 782 CURVE SMOOTH",
"846 782 OFFCURVE",
"897 721 OFFCURVE",
"879 625 CURVE SMOOTH",
"760 0 LINE",
"1020 0 LINE",
"1155 692 LINE SMOOTH",
"1192 883 OFFCURVE",
"1071 1016 OFFCURVE",
"856 1016 CURVE SMOOTH",
"754 1016 OFFCURVE",
"651 987 OFFCURVE",
"571 948 CURVE SMOOTH",
"412 868 LINE",
"500 829 LINE",
"645 1577 LINE",
"375 1511 LINE",
"80 0 LINE"
);
},
{
closed = 1;
nodes = (
"961 1163 LINE",
"993 1335 LINE",
"168 1335 LINE",
"135 1163 LINE"
);
}
);
width = 1251;
}
);
rightKerningGroup = n;
rightMetricsKey = n;
unicode = 0127;
},
{
glyphname = idotless;
lastChange = "2020-12-22 23:58:30 +0000";
layers = (
{
anchors = (
{
name = bottom;
position = "{103, -72}";
},
{
name = ogonek;
position = "{40, 20}";
},
{
name = top;
position = "{341, 1126}";
}
);
layerId = "13A5184A-77A5-4E03-80A5-A9198A2CA35F";
paths = (
{
closed = 1;
nodes = (
"159 0 LINE",
"355 1004 LINE",
"284 1004 LINE",
"87 0 LINE"
);
}
);
width = 442;
},
{
anchors = (
{
name = bottom;
position = "{195, -72}";
},
{
name = ogonek;
position = "{199, 20}";
},
{
name = top;
position = "{430, 1126}";
}
);
layerId = "6D60D92C-1450-4586-BB49-599D0D4C1213";
paths = (
{
closed = 1;
nodes = (
"432 0 LINE",
"641 1075 LINE",
"197 1075 LINE",
"-12 0 LINE"
);
}
);
width = 629;
},
{
anchors = (
{
name = bottom;
position = "{155, -72}";
},
{
name = ogonek;
position = "{126, 20}";
},
{
name = top;
position = "{392, 1126}";
}
);
layerId = "74CCE9C5-5564-42E0-9214-3BF0725DF94D";
paths = (
{
closed = 1;
nodes = (
"302 0 LINE",
"503 1040 LINE",
"245 1040 LINE",
"44 0 LINE"
);
}
);
width = 547;
}
);
leftMetricsKey = n;
rightMetricsKey = u;
unicode = 0131;
},
